%
M48
M72
T01C0.02362
T02C0.03937
T03C0.05512
%
T01
X156800Y101800
T02
X16800Y151800
X36800Y151800
X46800Y131800
X46800Y116800
X46800Y101800
X41800Y86800
X21800Y86800
X16800Y101800
X16800Y116800
X16800Y131800
X66800Y126800
X66800Y111800
X66800Y96800
X61800Y81800
X86800Y66800
X101800Y56800
X111800Y56800
X126800Y46800
X116800Y36800
X116800Y26800
X106800Y26800
X106800Y11800
X96800Y11800
X76800Y11800
X76800Y26800
X66800Y26800
X51800Y36800
X51800Y46800
X51800Y56800
X66800Y56800
X86800Y36800
X51800Y11800
X36800Y16800
X26800Y11800
X16800Y11800
X36800Y36800
X26800Y41800
X16800Y41800
X16800Y51800
X36800Y51800
X91800Y81800
X106800Y81800
X106800Y91800
X126800Y86800
X136800Y101800
X116800Y111800
X106800Y111800
X86800Y111800
X86800Y96800
X136800Y131800
X131800Y146800
X131800Y156800
X156800Y151800
X166800Y151800
X176800Y151800
X186800Y151800
X186800Y121800
X176800Y121800
X166800Y121800
X156800Y121800
X156800Y111800
X176800Y91800
X186800Y91800
X186800Y111800
X156800Y86800
X156800Y51800
X146800Y46800
X156800Y39300
X146800Y36800
X146800Y26800
X156800Y26800
X171800Y11800
X186800Y11800
X186800Y26800
X186800Y39300
X186800Y51800
X121800Y11800
X101800Y149800
X101800Y159800
X66800Y156800
T03
X81800Y131800
X101800Y131800
X121800Y131800
X141800Y69300
X161800Y69300
X181800Y69300
X61800Y69300
X41800Y69300
X21800Y69300
M30
