G75*
%MOIN*%
%OFA0B0*%
%FSLAX25Y25*%
%IPPOS*%
%LPD*%
%AMOC8*
5,1,8,0,0,1.08239X$1,22.5*
%
%ADD10C,0.00000*%
%ADD11C,0.00200*%
%ADD12C,0.00600*%
%ADD13C,0.00500*%
%ADD14C,0.00400*%
%ADD15C,0.00060*%
%ADD16C,0.02000*%
%ADD17R,0.02000X0.10000*%
%ADD18R,0.01500X0.03000*%
%ADD19C,0.00300*%
D10*
X0001800Y0001800D02*
X0001800Y0166761D01*
X0200501Y0166761D01*
X0200501Y0001800D01*
X0001800Y0001800D01*
D11*
X0004897Y0024900D02*
X0008700Y0027435D01*
X0008700Y0028583D02*
X0008700Y0031119D01*
X0008700Y0032266D02*
X0004897Y0032266D01*
X0008700Y0034802D01*
X0004897Y0034802D01*
X0005531Y0035949D02*
X0008066Y0035949D01*
X0008700Y0036583D01*
X0008700Y0037851D01*
X0008066Y0038485D01*
X0005531Y0038485D01*
X0004897Y0037851D01*
X0004897Y0036583D01*
X0005531Y0035949D01*
X0005531Y0039633D02*
X0008066Y0039633D01*
X0008700Y0040266D01*
X0008700Y0041534D01*
X0008066Y0042168D01*
X0008066Y0043316D02*
X0008700Y0043950D01*
X0008700Y0045217D01*
X0008066Y0045851D01*
X0005531Y0045851D01*
X0004897Y0045217D01*
X0004897Y0043950D01*
X0005531Y0043316D01*
X0008066Y0043316D01*
X0005531Y0042168D02*
X0004897Y0041534D01*
X0004897Y0040266D01*
X0005531Y0039633D01*
X0004897Y0046999D02*
X0004897Y0048900D01*
X0005531Y0049534D01*
X0008066Y0049534D01*
X0008700Y0048900D01*
X0008700Y0046999D01*
X0004897Y0046999D01*
X0004897Y0050682D02*
X0008700Y0050682D01*
X0008700Y0053218D01*
X0008700Y0054365D02*
X0004897Y0054365D01*
X0004897Y0056267D01*
X0005531Y0056901D01*
X0006798Y0056901D01*
X0007432Y0056267D01*
X0007432Y0054365D01*
X0007432Y0055633D02*
X0008700Y0056901D01*
X0004897Y0053218D02*
X0004897Y0050682D01*
X0006798Y0050682D02*
X0006798Y0051950D01*
X0006798Y0061731D02*
X0006798Y0062999D01*
X0004897Y0061731D02*
X0004897Y0064267D01*
X0006165Y0065415D02*
X0004897Y0066682D01*
X0006165Y0067950D01*
X0008700Y0067950D01*
X0008700Y0069098D02*
X0008700Y0070999D01*
X0008066Y0071633D01*
X0007432Y0071633D01*
X0006798Y0070999D01*
X0006798Y0069098D01*
X0006798Y0067950D02*
X0006798Y0065415D01*
X0006165Y0065415D02*
X0008700Y0065415D01*
X0008700Y0069098D02*
X0004897Y0069098D01*
X0004897Y0070999D01*
X0005531Y0071633D01*
X0006165Y0071633D01*
X0006798Y0070999D01*
X0006798Y0076464D02*
X0006798Y0078366D01*
X0007432Y0079000D01*
X0008066Y0079000D01*
X0008700Y0078366D01*
X0008700Y0076464D01*
X0004897Y0076464D01*
X0004897Y0078366D01*
X0005531Y0079000D01*
X0006165Y0079000D01*
X0006798Y0078366D01*
X0005531Y0080147D02*
X0008066Y0080147D01*
X0008700Y0080781D01*
X0008700Y0082049D01*
X0008066Y0082683D01*
X0005531Y0082683D01*
X0004897Y0082049D01*
X0004897Y0080781D01*
X0005531Y0080147D01*
X0005531Y0083830D02*
X0008066Y0083830D01*
X0008700Y0084464D01*
X0008700Y0085732D01*
X0008066Y0086366D01*
X0005531Y0086366D01*
X0004897Y0085732D01*
X0004897Y0084464D01*
X0005531Y0083830D01*
X0005531Y0087513D02*
X0006165Y0087513D01*
X0006798Y0088147D01*
X0006798Y0089415D01*
X0007432Y0090049D01*
X0008066Y0090049D01*
X0008700Y0089415D01*
X0008700Y0088147D01*
X0008066Y0087513D01*
X0005531Y0087513D02*
X0004897Y0088147D01*
X0004897Y0089415D01*
X0005531Y0090049D01*
X0004897Y0091197D02*
X0004897Y0093732D01*
X0004897Y0092464D02*
X0008700Y0092464D01*
X0007432Y0098563D02*
X0004897Y0098563D01*
X0007432Y0098563D02*
X0008700Y0099831D01*
X0007432Y0101098D01*
X0004897Y0101098D01*
X0006165Y0102246D02*
X0004897Y0103514D01*
X0008700Y0103514D01*
X0008700Y0102246D02*
X0008700Y0104782D01*
X0008700Y0105929D02*
X0008700Y0106563D01*
X0008066Y0106563D01*
X0008066Y0105929D01*
X0008700Y0105929D01*
X0008700Y0107771D02*
X0008700Y0110306D01*
X0008700Y0109038D02*
X0004897Y0109038D01*
X0006165Y0107771D01*
X0005531Y0115137D02*
X0004897Y0115771D01*
X0004897Y0117039D01*
X0005531Y0117673D01*
X0008066Y0115137D01*
X0008700Y0115771D01*
X0008700Y0117039D01*
X0008066Y0117673D01*
X0005531Y0117673D01*
X0006165Y0118820D02*
X0004897Y0120088D01*
X0008700Y0120088D01*
X0008700Y0118820D02*
X0008700Y0121356D01*
X0008700Y0122503D02*
X0006165Y0125039D01*
X0005531Y0125039D01*
X0004897Y0124405D01*
X0004897Y0123137D01*
X0005531Y0122503D01*
X0008700Y0122503D02*
X0008700Y0125039D01*
X0008700Y0126186D02*
X0004897Y0128722D01*
X0005531Y0129870D02*
X0004897Y0130503D01*
X0004897Y0131771D01*
X0005531Y0132405D01*
X0006165Y0132405D01*
X0008700Y0129870D01*
X0008700Y0132405D01*
X0008066Y0133553D02*
X0005531Y0136088D01*
X0008066Y0136088D01*
X0008700Y0135454D01*
X0008700Y0134187D01*
X0008066Y0133553D01*
X0005531Y0133553D01*
X0004897Y0134187D01*
X0004897Y0135454D01*
X0005531Y0136088D01*
X0006165Y0137236D02*
X0004897Y0138504D01*
X0008700Y0138504D01*
X0008700Y0139771D02*
X0008700Y0137236D01*
X0008066Y0140919D02*
X0008700Y0141553D01*
X0008700Y0142821D01*
X0008066Y0143455D01*
X0006798Y0143455D01*
X0006165Y0142821D01*
X0006165Y0142187D01*
X0006798Y0140919D01*
X0004897Y0140919D01*
X0004897Y0143455D01*
X0005531Y0115137D02*
X0008066Y0115137D01*
X0008700Y0061731D02*
X0004897Y0061731D01*
X0004897Y0031119D02*
X0004897Y0028583D01*
X0008700Y0028583D01*
X0006798Y0028583D02*
X0006798Y0029851D01*
X0004897Y0027435D02*
X0008700Y0024900D01*
D12*
X0012800Y0020737D02*
X0013300Y0021237D01*
X0013300Y0032363D01*
X0012800Y0032863D01*
X0012800Y0036863D01*
X0012802Y0036923D01*
X0012807Y0036984D01*
X0012816Y0037043D01*
X0012829Y0037102D01*
X0012845Y0037161D01*
X0012865Y0037218D01*
X0012888Y0037273D01*
X0012915Y0037328D01*
X0012944Y0037380D01*
X0012977Y0037431D01*
X0013013Y0037480D01*
X0013051Y0037526D01*
X0013093Y0037570D01*
X0013137Y0037612D01*
X0013183Y0037650D01*
X0013232Y0037686D01*
X0013283Y0037719D01*
X0013335Y0037748D01*
X0013390Y0037775D01*
X0013445Y0037798D01*
X0013502Y0037818D01*
X0013561Y0037834D01*
X0013620Y0037847D01*
X0013679Y0037856D01*
X0013740Y0037861D01*
X0013800Y0037863D01*
X0019800Y0037863D01*
X0019860Y0037861D01*
X0019921Y0037856D01*
X0019980Y0037847D01*
X0020039Y0037834D01*
X0020098Y0037818D01*
X0020155Y0037798D01*
X0020210Y0037775D01*
X0020265Y0037748D01*
X0020317Y0037719D01*
X0020368Y0037686D01*
X0020417Y0037650D01*
X0020463Y0037612D01*
X0020507Y0037570D01*
X0020549Y0037526D01*
X0020587Y0037480D01*
X0020623Y0037431D01*
X0020656Y0037380D01*
X0020685Y0037328D01*
X0020712Y0037273D01*
X0020735Y0037218D01*
X0020755Y0037161D01*
X0020771Y0037102D01*
X0020784Y0037043D01*
X0020793Y0036984D01*
X0020798Y0036923D01*
X0020800Y0036863D01*
X0020800Y0032863D01*
X0020300Y0032363D01*
X0020300Y0021237D01*
X0020800Y0020737D01*
X0020800Y0016737D01*
X0020798Y0016677D01*
X0020793Y0016616D01*
X0020784Y0016557D01*
X0020771Y0016498D01*
X0020755Y0016439D01*
X0020735Y0016382D01*
X0020712Y0016327D01*
X0020685Y0016272D01*
X0020656Y0016220D01*
X0020623Y0016169D01*
X0020587Y0016120D01*
X0020549Y0016074D01*
X0020507Y0016030D01*
X0020463Y0015988D01*
X0020417Y0015950D01*
X0020368Y0015914D01*
X0020317Y0015881D01*
X0020265Y0015852D01*
X0020210Y0015825D01*
X0020155Y0015802D01*
X0020098Y0015782D01*
X0020039Y0015766D01*
X0019980Y0015753D01*
X0019921Y0015744D01*
X0019860Y0015739D01*
X0019800Y0015737D01*
X0013800Y0015737D01*
X0013740Y0015739D01*
X0013679Y0015744D01*
X0013620Y0015753D01*
X0013561Y0015766D01*
X0013502Y0015782D01*
X0013445Y0015802D01*
X0013390Y0015825D01*
X0013335Y0015852D01*
X0013283Y0015881D01*
X0013232Y0015914D01*
X0013183Y0015950D01*
X0013137Y0015988D01*
X0013093Y0016030D01*
X0013051Y0016074D01*
X0013013Y0016120D01*
X0012977Y0016169D01*
X0012944Y0016220D01*
X0012915Y0016272D01*
X0012888Y0016327D01*
X0012865Y0016382D01*
X0012845Y0016439D01*
X0012829Y0016498D01*
X0012816Y0016557D01*
X0012807Y0016616D01*
X0012802Y0016677D01*
X0012800Y0016737D01*
X0012800Y0020737D01*
X0014596Y0022100D02*
X0014596Y0024302D01*
X0015330Y0025036D01*
X0016798Y0025036D01*
X0017532Y0024302D01*
X0017532Y0022100D01*
X0017532Y0023568D02*
X0019000Y0025036D01*
X0019000Y0026704D02*
X0019000Y0029640D01*
X0019000Y0028172D02*
X0014596Y0028172D01*
X0016064Y0026704D01*
X0014596Y0022100D02*
X0019000Y0022100D01*
X0022800Y0020737D02*
X0023300Y0021237D01*
X0023300Y0032363D01*
X0022800Y0032863D01*
X0022800Y0036863D01*
X0022802Y0036923D01*
X0022807Y0036984D01*
X0022816Y0037043D01*
X0022829Y0037102D01*
X0022845Y0037161D01*
X0022865Y0037218D01*
X0022888Y0037273D01*
X0022915Y0037328D01*
X0022944Y0037380D01*
X0022977Y0037431D01*
X0023013Y0037480D01*
X0023051Y0037526D01*
X0023093Y0037570D01*
X0023137Y0037612D01*
X0023183Y0037650D01*
X0023232Y0037686D01*
X0023283Y0037719D01*
X0023335Y0037748D01*
X0023390Y0037775D01*
X0023445Y0037798D01*
X0023502Y0037818D01*
X0023561Y0037834D01*
X0023620Y0037847D01*
X0023679Y0037856D01*
X0023740Y0037861D01*
X0023800Y0037863D01*
X0029800Y0037863D01*
X0029860Y0037861D01*
X0029921Y0037856D01*
X0029980Y0037847D01*
X0030039Y0037834D01*
X0030098Y0037818D01*
X0030155Y0037798D01*
X0030210Y0037775D01*
X0030265Y0037748D01*
X0030317Y0037719D01*
X0030368Y0037686D01*
X0030417Y0037650D01*
X0030463Y0037612D01*
X0030507Y0037570D01*
X0030549Y0037526D01*
X0030587Y0037480D01*
X0030623Y0037431D01*
X0030656Y0037380D01*
X0030685Y0037328D01*
X0030712Y0037273D01*
X0030735Y0037218D01*
X0030755Y0037161D01*
X0030771Y0037102D01*
X0030784Y0037043D01*
X0030793Y0036984D01*
X0030798Y0036923D01*
X0030800Y0036863D01*
X0030800Y0032863D01*
X0030300Y0032363D01*
X0030300Y0021237D01*
X0030800Y0020737D01*
X0030800Y0016737D01*
X0030798Y0016677D01*
X0030793Y0016616D01*
X0030784Y0016557D01*
X0030771Y0016498D01*
X0030755Y0016439D01*
X0030735Y0016382D01*
X0030712Y0016327D01*
X0030685Y0016272D01*
X0030656Y0016220D01*
X0030623Y0016169D01*
X0030587Y0016120D01*
X0030549Y0016074D01*
X0030507Y0016030D01*
X0030463Y0015988D01*
X0030417Y0015950D01*
X0030368Y0015914D01*
X0030317Y0015881D01*
X0030265Y0015852D01*
X0030210Y0015825D01*
X0030155Y0015802D01*
X0030098Y0015782D01*
X0030039Y0015766D01*
X0029980Y0015753D01*
X0029921Y0015744D01*
X0029860Y0015739D01*
X0029800Y0015737D01*
X0023800Y0015737D01*
X0023740Y0015739D01*
X0023679Y0015744D01*
X0023620Y0015753D01*
X0023561Y0015766D01*
X0023502Y0015782D01*
X0023445Y0015802D01*
X0023390Y0015825D01*
X0023335Y0015852D01*
X0023283Y0015881D01*
X0023232Y0015914D01*
X0023183Y0015950D01*
X0023137Y0015988D01*
X0023093Y0016030D01*
X0023051Y0016074D01*
X0023013Y0016120D01*
X0022977Y0016169D01*
X0022944Y0016220D01*
X0022915Y0016272D01*
X0022888Y0016327D01*
X0022865Y0016382D01*
X0022845Y0016439D01*
X0022829Y0016498D01*
X0022816Y0016557D01*
X0022807Y0016616D01*
X0022802Y0016677D01*
X0022800Y0016737D01*
X0022800Y0020737D01*
X0024596Y0023100D02*
X0024596Y0025302D01*
X0025330Y0026036D01*
X0026798Y0026036D01*
X0027532Y0025302D01*
X0027532Y0023100D01*
X0027532Y0024568D02*
X0029000Y0026036D01*
X0029000Y0027704D02*
X0029000Y0030640D01*
X0029000Y0029172D02*
X0024596Y0029172D01*
X0026064Y0027704D01*
X0024596Y0023100D02*
X0029000Y0023100D01*
X0019000Y0031308D02*
X0018266Y0031308D01*
X0015330Y0034244D01*
X0014596Y0034244D01*
X0014596Y0031308D01*
X0031918Y0040906D02*
X0041682Y0040906D01*
X0041682Y0012694D01*
X0031918Y0012694D01*
X0031918Y0040906D01*
X0040906Y0046918D02*
X0040906Y0056682D01*
X0012694Y0056682D01*
X0012694Y0046918D01*
X0040906Y0046918D01*
X0044800Y0053221D02*
X0044800Y0040379D01*
X0062800Y0035737D02*
X0062800Y0031737D01*
X0062802Y0031677D01*
X0062807Y0031616D01*
X0062816Y0031557D01*
X0062829Y0031498D01*
X0062845Y0031439D01*
X0062865Y0031382D01*
X0062888Y0031327D01*
X0062915Y0031272D01*
X0062944Y0031220D01*
X0062977Y0031169D01*
X0063013Y0031120D01*
X0063051Y0031074D01*
X0063093Y0031030D01*
X0063137Y0030988D01*
X0063183Y0030950D01*
X0063232Y0030914D01*
X0063283Y0030881D01*
X0063335Y0030852D01*
X0063390Y0030825D01*
X0063445Y0030802D01*
X0063502Y0030782D01*
X0063561Y0030766D01*
X0063620Y0030753D01*
X0063679Y0030744D01*
X0063740Y0030739D01*
X0063800Y0030737D01*
X0069800Y0030737D01*
X0069860Y0030739D01*
X0069921Y0030744D01*
X0069980Y0030753D01*
X0070039Y0030766D01*
X0070098Y0030782D01*
X0070155Y0030802D01*
X0070210Y0030825D01*
X0070265Y0030852D01*
X0070317Y0030881D01*
X0070368Y0030914D01*
X0070417Y0030950D01*
X0070463Y0030988D01*
X0070507Y0031030D01*
X0070549Y0031074D01*
X0070587Y0031120D01*
X0070623Y0031169D01*
X0070656Y0031220D01*
X0070685Y0031272D01*
X0070712Y0031327D01*
X0070735Y0031382D01*
X0070755Y0031439D01*
X0070771Y0031498D01*
X0070784Y0031557D01*
X0070793Y0031616D01*
X0070798Y0031677D01*
X0070800Y0031737D01*
X0070800Y0035737D01*
X0070300Y0036237D01*
X0070300Y0047363D01*
X0070800Y0047863D01*
X0070800Y0051863D01*
X0070798Y0051923D01*
X0070793Y0051984D01*
X0070784Y0052043D01*
X0070771Y0052102D01*
X0070755Y0052161D01*
X0070735Y0052218D01*
X0070712Y0052273D01*
X0070685Y0052328D01*
X0070656Y0052380D01*
X0070623Y0052431D01*
X0070587Y0052480D01*
X0070549Y0052526D01*
X0070507Y0052570D01*
X0070463Y0052612D01*
X0070417Y0052650D01*
X0070368Y0052686D01*
X0070317Y0052719D01*
X0070265Y0052748D01*
X0070210Y0052775D01*
X0070155Y0052798D01*
X0070098Y0052818D01*
X0070039Y0052834D01*
X0069980Y0052847D01*
X0069921Y0052856D01*
X0069860Y0052861D01*
X0069800Y0052863D01*
X0063800Y0052863D01*
X0063740Y0052861D01*
X0063679Y0052856D01*
X0063620Y0052847D01*
X0063561Y0052834D01*
X0063502Y0052818D01*
X0063445Y0052798D01*
X0063390Y0052775D01*
X0063335Y0052748D01*
X0063283Y0052719D01*
X0063232Y0052686D01*
X0063183Y0052650D01*
X0063137Y0052612D01*
X0063093Y0052570D01*
X0063051Y0052526D01*
X0063013Y0052480D01*
X0062977Y0052431D01*
X0062944Y0052380D01*
X0062915Y0052328D01*
X0062888Y0052273D01*
X0062865Y0052218D01*
X0062845Y0052161D01*
X0062829Y0052102D01*
X0062816Y0052043D01*
X0062807Y0051984D01*
X0062802Y0051923D01*
X0062800Y0051863D01*
X0062800Y0047863D01*
X0063300Y0047363D01*
X0063300Y0036237D01*
X0062800Y0035737D01*
X0064596Y0037100D02*
X0064596Y0039302D01*
X0065330Y0040036D01*
X0066798Y0040036D01*
X0067532Y0039302D01*
X0067532Y0037100D01*
X0067532Y0038568D02*
X0069000Y0040036D01*
X0069000Y0041704D02*
X0069000Y0044640D01*
X0069000Y0043172D02*
X0064596Y0043172D01*
X0066064Y0041704D01*
X0064596Y0037100D02*
X0069000Y0037100D01*
X0068266Y0046308D02*
X0066798Y0046308D01*
X0066798Y0048510D01*
X0067532Y0049244D01*
X0068266Y0049244D01*
X0069000Y0048510D01*
X0069000Y0047042D01*
X0068266Y0046308D01*
X0066798Y0046308D02*
X0065330Y0047776D01*
X0064596Y0049244D01*
X0082800Y0045737D02*
X0082800Y0041737D01*
X0082802Y0041677D01*
X0082807Y0041616D01*
X0082816Y0041557D01*
X0082829Y0041498D01*
X0082845Y0041439D01*
X0082865Y0041382D01*
X0082888Y0041327D01*
X0082915Y0041272D01*
X0082944Y0041220D01*
X0082977Y0041169D01*
X0083013Y0041120D01*
X0083051Y0041074D01*
X0083093Y0041030D01*
X0083137Y0040988D01*
X0083183Y0040950D01*
X0083232Y0040914D01*
X0083283Y0040881D01*
X0083335Y0040852D01*
X0083390Y0040825D01*
X0083445Y0040802D01*
X0083502Y0040782D01*
X0083561Y0040766D01*
X0083620Y0040753D01*
X0083679Y0040744D01*
X0083740Y0040739D01*
X0083800Y0040737D01*
X0089800Y0040737D01*
X0089860Y0040739D01*
X0089921Y0040744D01*
X0089980Y0040753D01*
X0090039Y0040766D01*
X0090098Y0040782D01*
X0090155Y0040802D01*
X0090210Y0040825D01*
X0090265Y0040852D01*
X0090317Y0040881D01*
X0090368Y0040914D01*
X0090417Y0040950D01*
X0090463Y0040988D01*
X0090507Y0041030D01*
X0090549Y0041074D01*
X0090587Y0041120D01*
X0090623Y0041169D01*
X0090656Y0041220D01*
X0090685Y0041272D01*
X0090712Y0041327D01*
X0090735Y0041382D01*
X0090755Y0041439D01*
X0090771Y0041498D01*
X0090784Y0041557D01*
X0090793Y0041616D01*
X0090798Y0041677D01*
X0090800Y0041737D01*
X0090800Y0045737D01*
X0090300Y0046237D01*
X0090300Y0057363D01*
X0090800Y0057863D01*
X0090800Y0061863D01*
X0090798Y0061923D01*
X0090793Y0061984D01*
X0090784Y0062043D01*
X0090771Y0062102D01*
X0090755Y0062161D01*
X0090735Y0062218D01*
X0090712Y0062273D01*
X0090685Y0062328D01*
X0090656Y0062380D01*
X0090623Y0062431D01*
X0090587Y0062480D01*
X0090549Y0062526D01*
X0090507Y0062570D01*
X0090463Y0062612D01*
X0090417Y0062650D01*
X0090368Y0062686D01*
X0090317Y0062719D01*
X0090265Y0062748D01*
X0090210Y0062775D01*
X0090155Y0062798D01*
X0090098Y0062818D01*
X0090039Y0062834D01*
X0089980Y0062847D01*
X0089921Y0062856D01*
X0089860Y0062861D01*
X0089800Y0062863D01*
X0083800Y0062863D01*
X0083740Y0062861D01*
X0083679Y0062856D01*
X0083620Y0062847D01*
X0083561Y0062834D01*
X0083502Y0062818D01*
X0083445Y0062798D01*
X0083390Y0062775D01*
X0083335Y0062748D01*
X0083283Y0062719D01*
X0083232Y0062686D01*
X0083183Y0062650D01*
X0083137Y0062612D01*
X0083093Y0062570D01*
X0083051Y0062526D01*
X0083013Y0062480D01*
X0082977Y0062431D01*
X0082944Y0062380D01*
X0082915Y0062328D01*
X0082888Y0062273D01*
X0082865Y0062218D01*
X0082845Y0062161D01*
X0082829Y0062102D01*
X0082816Y0062043D01*
X0082807Y0061984D01*
X0082802Y0061923D01*
X0082800Y0061863D01*
X0082800Y0057863D01*
X0083300Y0057363D01*
X0083300Y0046237D01*
X0082800Y0045737D01*
X0084596Y0045490D02*
X0085330Y0046224D01*
X0086798Y0046224D01*
X0087532Y0045490D01*
X0087532Y0043288D01*
X0089000Y0043288D02*
X0084596Y0043288D01*
X0084596Y0045490D01*
X0087532Y0044756D02*
X0089000Y0046224D01*
X0089000Y0047892D02*
X0089000Y0050828D01*
X0089000Y0049360D02*
X0084596Y0049360D01*
X0086064Y0047892D01*
X0086064Y0052496D02*
X0084596Y0053964D01*
X0089000Y0053964D01*
X0089000Y0052496D02*
X0089000Y0055432D01*
X0101000Y0062200D02*
X0103600Y0062200D01*
X0102300Y0063400D02*
X0102300Y0060900D01*
X0096957Y0056800D02*
X0096960Y0057042D01*
X0096969Y0057283D01*
X0096984Y0057524D01*
X0097004Y0057765D01*
X0097031Y0058005D01*
X0097064Y0058244D01*
X0097102Y0058483D01*
X0097146Y0058720D01*
X0097196Y0058957D01*
X0097252Y0059192D01*
X0097314Y0059425D01*
X0097381Y0059657D01*
X0097454Y0059888D01*
X0097532Y0060116D01*
X0097617Y0060342D01*
X0097706Y0060567D01*
X0097801Y0060789D01*
X0097902Y0061008D01*
X0098008Y0061226D01*
X0098119Y0061440D01*
X0098236Y0061652D01*
X0098357Y0061860D01*
X0098484Y0062066D01*
X0098616Y0062268D01*
X0098753Y0062468D01*
X0098894Y0062663D01*
X0099040Y0062856D01*
X0099191Y0063044D01*
X0099347Y0063229D01*
X0099507Y0063410D01*
X0099671Y0063587D01*
X0099840Y0063760D01*
X0100013Y0063929D01*
X0100190Y0064093D01*
X0100371Y0064253D01*
X0100556Y0064409D01*
X0100744Y0064560D01*
X0100937Y0064706D01*
X0101132Y0064847D01*
X0101332Y0064984D01*
X0101534Y0065116D01*
X0101740Y0065243D01*
X0101948Y0065364D01*
X0102160Y0065481D01*
X0102374Y0065592D01*
X0102592Y0065698D01*
X0102811Y0065799D01*
X0103033Y0065894D01*
X0103258Y0065983D01*
X0103484Y0066068D01*
X0103712Y0066146D01*
X0103943Y0066219D01*
X0104175Y0066286D01*
X0104408Y0066348D01*
X0104643Y0066404D01*
X0104880Y0066454D01*
X0105117Y0066498D01*
X0105356Y0066536D01*
X0105595Y0066569D01*
X0105835Y0066596D01*
X0106076Y0066616D01*
X0106317Y0066631D01*
X0106558Y0066640D01*
X0106800Y0066643D01*
X0107042Y0066640D01*
X0107283Y0066631D01*
X0107524Y0066616D01*
X0107765Y0066596D01*
X0108005Y0066569D01*
X0108244Y0066536D01*
X0108483Y0066498D01*
X0108720Y0066454D01*
X0108957Y0066404D01*
X0109192Y0066348D01*
X0109425Y0066286D01*
X0109657Y0066219D01*
X0109888Y0066146D01*
X0110116Y0066068D01*
X0110342Y0065983D01*
X0110567Y0065894D01*
X0110789Y0065799D01*
X0111008Y0065698D01*
X0111226Y0065592D01*
X0111440Y0065481D01*
X0111652Y0065364D01*
X0111860Y0065243D01*
X0112066Y0065116D01*
X0112268Y0064984D01*
X0112468Y0064847D01*
X0112663Y0064706D01*
X0112856Y0064560D01*
X0113044Y0064409D01*
X0113229Y0064253D01*
X0113410Y0064093D01*
X0113587Y0063929D01*
X0113760Y0063760D01*
X0113929Y0063587D01*
X0114093Y0063410D01*
X0114253Y0063229D01*
X0114409Y0063044D01*
X0114560Y0062856D01*
X0114706Y0062663D01*
X0114847Y0062468D01*
X0114984Y0062268D01*
X0115116Y0062066D01*
X0115243Y0061860D01*
X0115364Y0061652D01*
X0115481Y0061440D01*
X0115592Y0061226D01*
X0115698Y0061008D01*
X0115799Y0060789D01*
X0115894Y0060567D01*
X0115983Y0060342D01*
X0116068Y0060116D01*
X0116146Y0059888D01*
X0116219Y0059657D01*
X0116286Y0059425D01*
X0116348Y0059192D01*
X0116404Y0058957D01*
X0116454Y0058720D01*
X0116498Y0058483D01*
X0116536Y0058244D01*
X0116569Y0058005D01*
X0116596Y0057765D01*
X0116616Y0057524D01*
X0116631Y0057283D01*
X0116640Y0057042D01*
X0116643Y0056800D01*
X0116640Y0056558D01*
X0116631Y0056317D01*
X0116616Y0056076D01*
X0116596Y0055835D01*
X0116569Y0055595D01*
X0116536Y0055356D01*
X0116498Y0055117D01*
X0116454Y0054880D01*
X0116404Y0054643D01*
X0116348Y0054408D01*
X0116286Y0054175D01*
X0116219Y0053943D01*
X0116146Y0053712D01*
X0116068Y0053484D01*
X0115983Y0053258D01*
X0115894Y0053033D01*
X0115799Y0052811D01*
X0115698Y0052592D01*
X0115592Y0052374D01*
X0115481Y0052160D01*
X0115364Y0051948D01*
X0115243Y0051740D01*
X0115116Y0051534D01*
X0114984Y0051332D01*
X0114847Y0051132D01*
X0114706Y0050937D01*
X0114560Y0050744D01*
X0114409Y0050556D01*
X0114253Y0050371D01*
X0114093Y0050190D01*
X0113929Y0050013D01*
X0113760Y0049840D01*
X0113587Y0049671D01*
X0113410Y0049507D01*
X0113229Y0049347D01*
X0113044Y0049191D01*
X0112856Y0049040D01*
X0112663Y0048894D01*
X0112468Y0048753D01*
X0112268Y0048616D01*
X0112066Y0048484D01*
X0111860Y0048357D01*
X0111652Y0048236D01*
X0111440Y0048119D01*
X0111226Y0048008D01*
X0111008Y0047902D01*
X0110789Y0047801D01*
X0110567Y0047706D01*
X0110342Y0047617D01*
X0110116Y0047532D01*
X0109888Y0047454D01*
X0109657Y0047381D01*
X0109425Y0047314D01*
X0109192Y0047252D01*
X0108957Y0047196D01*
X0108720Y0047146D01*
X0108483Y0047102D01*
X0108244Y0047064D01*
X0108005Y0047031D01*
X0107765Y0047004D01*
X0107524Y0046984D01*
X0107283Y0046969D01*
X0107042Y0046960D01*
X0106800Y0046957D01*
X0106558Y0046960D01*
X0106317Y0046969D01*
X0106076Y0046984D01*
X0105835Y0047004D01*
X0105595Y0047031D01*
X0105356Y0047064D01*
X0105117Y0047102D01*
X0104880Y0047146D01*
X0104643Y0047196D01*
X0104408Y0047252D01*
X0104175Y0047314D01*
X0103943Y0047381D01*
X0103712Y0047454D01*
X0103484Y0047532D01*
X0103258Y0047617D01*
X0103033Y0047706D01*
X0102811Y0047801D01*
X0102592Y0047902D01*
X0102374Y0048008D01*
X0102160Y0048119D01*
X0101948Y0048236D01*
X0101740Y0048357D01*
X0101534Y0048484D01*
X0101332Y0048616D01*
X0101132Y0048753D01*
X0100937Y0048894D01*
X0100744Y0049040D01*
X0100556Y0049191D01*
X0100371Y0049347D01*
X0100190Y0049507D01*
X0100013Y0049671D01*
X0099840Y0049840D01*
X0099671Y0050013D01*
X0099507Y0050190D01*
X0099347Y0050371D01*
X0099191Y0050556D01*
X0099040Y0050744D01*
X0098894Y0050937D01*
X0098753Y0051132D01*
X0098616Y0051332D01*
X0098484Y0051534D01*
X0098357Y0051740D01*
X0098236Y0051948D01*
X0098119Y0052160D01*
X0098008Y0052374D01*
X0097902Y0052592D01*
X0097801Y0052811D01*
X0097706Y0053033D01*
X0097617Y0053258D01*
X0097532Y0053484D01*
X0097454Y0053712D01*
X0097381Y0053943D01*
X0097314Y0054175D01*
X0097252Y0054408D01*
X0097196Y0054643D01*
X0097146Y0054880D01*
X0097102Y0055117D01*
X0097064Y0055356D01*
X0097031Y0055595D01*
X0097004Y0055835D01*
X0096984Y0056076D01*
X0096969Y0056317D01*
X0096960Y0056558D01*
X0096957Y0056800D01*
X0120737Y0039800D02*
X0120737Y0033800D01*
X0120739Y0033740D01*
X0120744Y0033679D01*
X0120753Y0033620D01*
X0120766Y0033561D01*
X0120782Y0033502D01*
X0120802Y0033445D01*
X0120825Y0033390D01*
X0120852Y0033335D01*
X0120881Y0033283D01*
X0120914Y0033232D01*
X0120950Y0033183D01*
X0120988Y0033137D01*
X0121030Y0033093D01*
X0121074Y0033051D01*
X0121120Y0033013D01*
X0121169Y0032977D01*
X0121220Y0032944D01*
X0121272Y0032915D01*
X0121327Y0032888D01*
X0121382Y0032865D01*
X0121439Y0032845D01*
X0121498Y0032829D01*
X0121557Y0032816D01*
X0121616Y0032807D01*
X0121677Y0032802D01*
X0121737Y0032800D01*
X0125737Y0032800D01*
X0126237Y0033300D01*
X0137363Y0033300D01*
X0137863Y0032800D01*
X0141863Y0032800D01*
X0141923Y0032802D01*
X0141984Y0032807D01*
X0142043Y0032816D01*
X0142102Y0032829D01*
X0142161Y0032845D01*
X0142218Y0032865D01*
X0142273Y0032888D01*
X0142328Y0032915D01*
X0142380Y0032944D01*
X0142431Y0032977D01*
X0142480Y0033013D01*
X0142526Y0033051D01*
X0142570Y0033093D01*
X0142612Y0033137D01*
X0142650Y0033183D01*
X0142686Y0033232D01*
X0142719Y0033283D01*
X0142748Y0033335D01*
X0142775Y0033390D01*
X0142798Y0033445D01*
X0142818Y0033502D01*
X0142834Y0033561D01*
X0142847Y0033620D01*
X0142856Y0033679D01*
X0142861Y0033740D01*
X0142863Y0033800D01*
X0142863Y0039800D01*
X0142861Y0039860D01*
X0142856Y0039921D01*
X0142847Y0039980D01*
X0142834Y0040039D01*
X0142818Y0040098D01*
X0142798Y0040155D01*
X0142775Y0040210D01*
X0142748Y0040265D01*
X0142719Y0040317D01*
X0142686Y0040368D01*
X0142650Y0040417D01*
X0142612Y0040463D01*
X0142570Y0040507D01*
X0142526Y0040549D01*
X0142480Y0040587D01*
X0142431Y0040623D01*
X0142380Y0040656D01*
X0142328Y0040685D01*
X0142273Y0040712D01*
X0142218Y0040735D01*
X0142161Y0040755D01*
X0142102Y0040771D01*
X0142043Y0040784D01*
X0141984Y0040793D01*
X0141923Y0040798D01*
X0141863Y0040800D01*
X0137863Y0040800D01*
X0137363Y0040300D01*
X0126237Y0040300D01*
X0125737Y0040800D01*
X0121737Y0040800D01*
X0121677Y0040798D01*
X0121616Y0040793D01*
X0121557Y0040784D01*
X0121498Y0040771D01*
X0121439Y0040755D01*
X0121382Y0040735D01*
X0121327Y0040712D01*
X0121272Y0040685D01*
X0121220Y0040656D01*
X0121169Y0040623D01*
X0121120Y0040587D01*
X0121074Y0040549D01*
X0121030Y0040507D01*
X0120988Y0040463D01*
X0120950Y0040417D01*
X0120914Y0040368D01*
X0120881Y0040317D01*
X0120852Y0040265D01*
X0120825Y0040210D01*
X0120802Y0040155D01*
X0120782Y0040098D01*
X0120766Y0040039D01*
X0120753Y0039980D01*
X0120744Y0039921D01*
X0120739Y0039860D01*
X0120737Y0039800D01*
X0123288Y0039004D02*
X0125490Y0039004D01*
X0126224Y0038270D01*
X0126224Y0036802D01*
X0125490Y0036068D01*
X0123288Y0036068D01*
X0123288Y0034600D02*
X0123288Y0039004D01*
X0122694Y0041918D02*
X0122694Y0051682D01*
X0150906Y0051682D01*
X0150906Y0041918D01*
X0122694Y0041918D01*
X0127892Y0037536D02*
X0129360Y0039004D01*
X0129360Y0034600D01*
X0127892Y0034600D02*
X0130828Y0034600D01*
X0132496Y0036802D02*
X0135432Y0036802D01*
X0134698Y0034600D02*
X0134698Y0039004D01*
X0132496Y0036802D01*
X0137863Y0030800D02*
X0141863Y0030800D01*
X0141923Y0030798D01*
X0141984Y0030793D01*
X0142043Y0030784D01*
X0142102Y0030771D01*
X0142161Y0030755D01*
X0142218Y0030735D01*
X0142273Y0030712D01*
X0142328Y0030685D01*
X0142380Y0030656D01*
X0142431Y0030623D01*
X0142480Y0030587D01*
X0142526Y0030549D01*
X0142570Y0030507D01*
X0142612Y0030463D01*
X0142650Y0030417D01*
X0142686Y0030368D01*
X0142719Y0030317D01*
X0142748Y0030265D01*
X0142775Y0030210D01*
X0142798Y0030155D01*
X0142818Y0030098D01*
X0142834Y0030039D01*
X0142847Y0029980D01*
X0142856Y0029921D01*
X0142861Y0029860D01*
X0142863Y0029800D01*
X0142863Y0023800D01*
X0142861Y0023740D01*
X0142856Y0023679D01*
X0142847Y0023620D01*
X0142834Y0023561D01*
X0142818Y0023502D01*
X0142798Y0023445D01*
X0142775Y0023390D01*
X0142748Y0023335D01*
X0142719Y0023283D01*
X0142686Y0023232D01*
X0142650Y0023183D01*
X0142612Y0023137D01*
X0142570Y0023093D01*
X0142526Y0023051D01*
X0142480Y0023013D01*
X0142431Y0022977D01*
X0142380Y0022944D01*
X0142328Y0022915D01*
X0142273Y0022888D01*
X0142218Y0022865D01*
X0142161Y0022845D01*
X0142102Y0022829D01*
X0142043Y0022816D01*
X0141984Y0022807D01*
X0141923Y0022802D01*
X0141863Y0022800D01*
X0137863Y0022800D01*
X0137363Y0023300D01*
X0126237Y0023300D01*
X0125737Y0022800D01*
X0121737Y0022800D01*
X0121677Y0022802D01*
X0121616Y0022807D01*
X0121557Y0022816D01*
X0121498Y0022829D01*
X0121439Y0022845D01*
X0121382Y0022865D01*
X0121327Y0022888D01*
X0121272Y0022915D01*
X0121220Y0022944D01*
X0121169Y0022977D01*
X0121120Y0023013D01*
X0121074Y0023051D01*
X0121030Y0023093D01*
X0120988Y0023137D01*
X0120950Y0023183D01*
X0120914Y0023232D01*
X0120881Y0023283D01*
X0120852Y0023335D01*
X0120825Y0023390D01*
X0120802Y0023445D01*
X0120782Y0023502D01*
X0120766Y0023561D01*
X0120753Y0023620D01*
X0120744Y0023679D01*
X0120739Y0023740D01*
X0120737Y0023800D01*
X0120737Y0029800D01*
X0120739Y0029860D01*
X0120744Y0029921D01*
X0120753Y0029980D01*
X0120766Y0030039D01*
X0120782Y0030098D01*
X0120802Y0030155D01*
X0120825Y0030210D01*
X0120852Y0030265D01*
X0120881Y0030317D01*
X0120914Y0030368D01*
X0120950Y0030417D01*
X0120988Y0030463D01*
X0121030Y0030507D01*
X0121074Y0030549D01*
X0121120Y0030587D01*
X0121169Y0030623D01*
X0121220Y0030656D01*
X0121272Y0030685D01*
X0121327Y0030712D01*
X0121382Y0030735D01*
X0121439Y0030755D01*
X0121498Y0030771D01*
X0121557Y0030784D01*
X0121616Y0030793D01*
X0121677Y0030798D01*
X0121737Y0030800D01*
X0125737Y0030800D01*
X0126237Y0030300D01*
X0137363Y0030300D01*
X0137863Y0030800D01*
X0134640Y0028270D02*
X0133906Y0029004D01*
X0132438Y0029004D01*
X0131704Y0028270D01*
X0130036Y0028270D02*
X0130036Y0026802D01*
X0129302Y0026068D01*
X0127100Y0026068D01*
X0128568Y0026068D02*
X0130036Y0024600D01*
X0131704Y0024600D02*
X0134640Y0027536D01*
X0134640Y0028270D01*
X0134640Y0024600D02*
X0131704Y0024600D01*
X0130036Y0028270D02*
X0129302Y0029004D01*
X0127100Y0029004D01*
X0127100Y0024600D01*
X0126224Y0034600D02*
X0124756Y0036068D01*
X0102863Y0029800D02*
X0102863Y0023800D01*
X0102861Y0023740D01*
X0102856Y0023679D01*
X0102847Y0023620D01*
X0102834Y0023561D01*
X0102818Y0023502D01*
X0102798Y0023445D01*
X0102775Y0023390D01*
X0102748Y0023335D01*
X0102719Y0023283D01*
X0102686Y0023232D01*
X0102650Y0023183D01*
X0102612Y0023137D01*
X0102570Y0023093D01*
X0102526Y0023051D01*
X0102480Y0023013D01*
X0102431Y0022977D01*
X0102380Y0022944D01*
X0102328Y0022915D01*
X0102273Y0022888D01*
X0102218Y0022865D01*
X0102161Y0022845D01*
X0102102Y0022829D01*
X0102043Y0022816D01*
X0101984Y0022807D01*
X0101923Y0022802D01*
X0101863Y0022800D01*
X0097863Y0022800D01*
X0097363Y0023300D01*
X0086237Y0023300D01*
X0085737Y0022800D01*
X0081737Y0022800D01*
X0081677Y0022802D01*
X0081616Y0022807D01*
X0081557Y0022816D01*
X0081498Y0022829D01*
X0081439Y0022845D01*
X0081382Y0022865D01*
X0081327Y0022888D01*
X0081272Y0022915D01*
X0081220Y0022944D01*
X0081169Y0022977D01*
X0081120Y0023013D01*
X0081074Y0023051D01*
X0081030Y0023093D01*
X0080988Y0023137D01*
X0080950Y0023183D01*
X0080914Y0023232D01*
X0080881Y0023283D01*
X0080852Y0023335D01*
X0080825Y0023390D01*
X0080802Y0023445D01*
X0080782Y0023502D01*
X0080766Y0023561D01*
X0080753Y0023620D01*
X0080744Y0023679D01*
X0080739Y0023740D01*
X0080737Y0023800D01*
X0080737Y0029800D01*
X0080739Y0029860D01*
X0080744Y0029921D01*
X0080753Y0029980D01*
X0080766Y0030039D01*
X0080782Y0030098D01*
X0080802Y0030155D01*
X0080825Y0030210D01*
X0080852Y0030265D01*
X0080881Y0030317D01*
X0080914Y0030368D01*
X0080950Y0030417D01*
X0080988Y0030463D01*
X0081030Y0030507D01*
X0081074Y0030549D01*
X0081120Y0030587D01*
X0081169Y0030623D01*
X0081220Y0030656D01*
X0081272Y0030685D01*
X0081327Y0030712D01*
X0081382Y0030735D01*
X0081439Y0030755D01*
X0081498Y0030771D01*
X0081557Y0030784D01*
X0081616Y0030793D01*
X0081677Y0030798D01*
X0081737Y0030800D01*
X0085737Y0030800D01*
X0086237Y0030300D01*
X0097363Y0030300D01*
X0097863Y0030800D01*
X0101863Y0030800D01*
X0101923Y0030798D01*
X0101984Y0030793D01*
X0102043Y0030784D01*
X0102102Y0030771D01*
X0102161Y0030755D01*
X0102218Y0030735D01*
X0102273Y0030712D01*
X0102328Y0030685D01*
X0102380Y0030656D01*
X0102431Y0030623D01*
X0102480Y0030587D01*
X0102526Y0030549D01*
X0102570Y0030507D01*
X0102612Y0030463D01*
X0102650Y0030417D01*
X0102686Y0030368D01*
X0102719Y0030317D01*
X0102748Y0030265D01*
X0102775Y0030210D01*
X0102798Y0030155D01*
X0102818Y0030098D01*
X0102834Y0030039D01*
X0102847Y0029980D01*
X0102856Y0029921D01*
X0102861Y0029860D01*
X0102863Y0029800D01*
X0099244Y0028270D02*
X0098510Y0029004D01*
X0097042Y0029004D01*
X0096308Y0028270D01*
X0099244Y0028270D02*
X0099244Y0027536D01*
X0096308Y0024600D01*
X0099244Y0024600D01*
X0094640Y0024600D02*
X0091704Y0024600D01*
X0093172Y0024600D02*
X0093172Y0029004D01*
X0091704Y0027536D01*
X0090036Y0028270D02*
X0090036Y0026802D01*
X0089302Y0026068D01*
X0087100Y0026068D01*
X0088568Y0026068D02*
X0090036Y0024600D01*
X0087100Y0024600D02*
X0087100Y0029004D01*
X0089302Y0029004D01*
X0090036Y0028270D01*
X0082100Y0014004D02*
X0082100Y0009600D01*
X0085036Y0009600D01*
X0063105Y0009600D02*
X0063105Y0014004D01*
X0060169Y0014004D02*
X0063105Y0009600D01*
X0060169Y0009600D02*
X0060169Y0014004D01*
X0058568Y0014004D02*
X0057100Y0014004D01*
X0057834Y0014004D02*
X0057834Y0009600D01*
X0057100Y0009600D02*
X0058568Y0009600D01*
X0127100Y0010334D02*
X0127834Y0009600D01*
X0129302Y0009600D01*
X0130036Y0010334D01*
X0130036Y0013270D01*
X0129302Y0014004D01*
X0127834Y0014004D01*
X0127100Y0013270D01*
X0127100Y0010334D01*
X0131704Y0010334D02*
X0131704Y0014004D01*
X0134640Y0014004D02*
X0134640Y0010334D01*
X0133906Y0009600D01*
X0132438Y0009600D01*
X0131704Y0010334D01*
X0136308Y0014004D02*
X0139244Y0014004D01*
X0137776Y0014004D02*
X0137776Y0009600D01*
X0160737Y0023800D02*
X0160737Y0029800D01*
X0160739Y0029860D01*
X0160744Y0029921D01*
X0160753Y0029980D01*
X0160766Y0030039D01*
X0160782Y0030098D01*
X0160802Y0030155D01*
X0160825Y0030210D01*
X0160852Y0030265D01*
X0160881Y0030317D01*
X0160914Y0030368D01*
X0160950Y0030417D01*
X0160988Y0030463D01*
X0161030Y0030507D01*
X0161074Y0030549D01*
X0161120Y0030587D01*
X0161169Y0030623D01*
X0161220Y0030656D01*
X0161272Y0030685D01*
X0161327Y0030712D01*
X0161382Y0030735D01*
X0161439Y0030755D01*
X0161498Y0030771D01*
X0161557Y0030784D01*
X0161616Y0030793D01*
X0161677Y0030798D01*
X0161737Y0030800D01*
X0165737Y0030800D01*
X0166237Y0030300D01*
X0177363Y0030300D01*
X0177863Y0030800D01*
X0181863Y0030800D01*
X0181923Y0030798D01*
X0181984Y0030793D01*
X0182043Y0030784D01*
X0182102Y0030771D01*
X0182161Y0030755D01*
X0182218Y0030735D01*
X0182273Y0030712D01*
X0182328Y0030685D01*
X0182380Y0030656D01*
X0182431Y0030623D01*
X0182480Y0030587D01*
X0182526Y0030549D01*
X0182570Y0030507D01*
X0182612Y0030463D01*
X0182650Y0030417D01*
X0182686Y0030368D01*
X0182719Y0030317D01*
X0182748Y0030265D01*
X0182775Y0030210D01*
X0182798Y0030155D01*
X0182818Y0030098D01*
X0182834Y0030039D01*
X0182847Y0029980D01*
X0182856Y0029921D01*
X0182861Y0029860D01*
X0182863Y0029800D01*
X0182863Y0023800D01*
X0182861Y0023740D01*
X0182856Y0023679D01*
X0182847Y0023620D01*
X0182834Y0023561D01*
X0182818Y0023502D01*
X0182798Y0023445D01*
X0182775Y0023390D01*
X0182748Y0023335D01*
X0182719Y0023283D01*
X0182686Y0023232D01*
X0182650Y0023183D01*
X0182612Y0023137D01*
X0182570Y0023093D01*
X0182526Y0023051D01*
X0182480Y0023013D01*
X0182431Y0022977D01*
X0182380Y0022944D01*
X0182328Y0022915D01*
X0182273Y0022888D01*
X0182218Y0022865D01*
X0182161Y0022845D01*
X0182102Y0022829D01*
X0182043Y0022816D01*
X0181984Y0022807D01*
X0181923Y0022802D01*
X0181863Y0022800D01*
X0177863Y0022800D01*
X0177363Y0023300D01*
X0166237Y0023300D01*
X0165737Y0022800D01*
X0161737Y0022800D01*
X0161677Y0022802D01*
X0161616Y0022807D01*
X0161557Y0022816D01*
X0161498Y0022829D01*
X0161439Y0022845D01*
X0161382Y0022865D01*
X0161327Y0022888D01*
X0161272Y0022915D01*
X0161220Y0022944D01*
X0161169Y0022977D01*
X0161120Y0023013D01*
X0161074Y0023051D01*
X0161030Y0023093D01*
X0160988Y0023137D01*
X0160950Y0023183D01*
X0160914Y0023232D01*
X0160881Y0023283D01*
X0160852Y0023335D01*
X0160825Y0023390D01*
X0160802Y0023445D01*
X0160782Y0023502D01*
X0160766Y0023561D01*
X0160753Y0023620D01*
X0160744Y0023679D01*
X0160739Y0023740D01*
X0160737Y0023800D01*
X0167100Y0024600D02*
X0167100Y0029004D01*
X0169302Y0029004D01*
X0170036Y0028270D01*
X0170036Y0026802D01*
X0169302Y0026068D01*
X0167100Y0026068D01*
X0168568Y0026068D02*
X0170036Y0024600D01*
X0171704Y0024600D02*
X0174640Y0024600D01*
X0173172Y0024600D02*
X0173172Y0029004D01*
X0171704Y0027536D01*
X0176308Y0026802D02*
X0177776Y0027536D01*
X0178510Y0027536D01*
X0179244Y0026802D01*
X0179244Y0025334D01*
X0178510Y0024600D01*
X0177042Y0024600D01*
X0176308Y0025334D01*
X0176308Y0026802D02*
X0176308Y0029004D01*
X0179244Y0029004D01*
X0179800Y0034300D02*
X0179800Y0044300D01*
X0163800Y0044300D01*
X0163800Y0034300D01*
X0179800Y0034300D01*
X0174732Y0037100D02*
X0171796Y0037100D01*
X0173264Y0037100D02*
X0173264Y0041504D01*
X0171796Y0040036D01*
X0170128Y0040770D02*
X0170128Y0037834D01*
X0169394Y0037100D01*
X0167192Y0037100D01*
X0167192Y0041504D01*
X0169394Y0041504D01*
X0170128Y0040770D01*
X0165737Y0047800D02*
X0161737Y0047800D01*
X0161677Y0047802D01*
X0161616Y0047807D01*
X0161557Y0047816D01*
X0161498Y0047829D01*
X0161439Y0047845D01*
X0161382Y0047865D01*
X0161327Y0047888D01*
X0161272Y0047915D01*
X0161220Y0047944D01*
X0161169Y0047977D01*
X0161120Y0048013D01*
X0161074Y0048051D01*
X0161030Y0048093D01*
X0160988Y0048137D01*
X0160950Y0048183D01*
X0160914Y0048232D01*
X0160881Y0048283D01*
X0160852Y0048335D01*
X0160825Y0048390D01*
X0160802Y0048445D01*
X0160782Y0048502D01*
X0160766Y0048561D01*
X0160753Y0048620D01*
X0160744Y0048679D01*
X0160739Y0048740D01*
X0160737Y0048800D01*
X0160737Y0054800D01*
X0160739Y0054860D01*
X0160744Y0054921D01*
X0160753Y0054980D01*
X0160766Y0055039D01*
X0160782Y0055098D01*
X0160802Y0055155D01*
X0160825Y0055210D01*
X0160852Y0055265D01*
X0160881Y0055317D01*
X0160914Y0055368D01*
X0160950Y0055417D01*
X0160988Y0055463D01*
X0161030Y0055507D01*
X0161074Y0055549D01*
X0161120Y0055587D01*
X0161169Y0055623D01*
X0161220Y0055656D01*
X0161272Y0055685D01*
X0161327Y0055712D01*
X0161382Y0055735D01*
X0161439Y0055755D01*
X0161498Y0055771D01*
X0161557Y0055784D01*
X0161616Y0055793D01*
X0161677Y0055798D01*
X0161737Y0055800D01*
X0165737Y0055800D01*
X0166237Y0055300D01*
X0177363Y0055300D01*
X0177863Y0055800D01*
X0181863Y0055800D01*
X0181923Y0055798D01*
X0181984Y0055793D01*
X0182043Y0055784D01*
X0182102Y0055771D01*
X0182161Y0055755D01*
X0182218Y0055735D01*
X0182273Y0055712D01*
X0182328Y0055685D01*
X0182380Y0055656D01*
X0182431Y0055623D01*
X0182480Y0055587D01*
X0182526Y0055549D01*
X0182570Y0055507D01*
X0182612Y0055463D01*
X0182650Y0055417D01*
X0182686Y0055368D01*
X0182719Y0055317D01*
X0182748Y0055265D01*
X0182775Y0055210D01*
X0182798Y0055155D01*
X0182818Y0055098D01*
X0182834Y0055039D01*
X0182847Y0054980D01*
X0182856Y0054921D01*
X0182861Y0054860D01*
X0182863Y0054800D01*
X0182863Y0048800D01*
X0182861Y0048740D01*
X0182856Y0048679D01*
X0182847Y0048620D01*
X0182834Y0048561D01*
X0182818Y0048502D01*
X0182798Y0048445D01*
X0182775Y0048390D01*
X0182748Y0048335D01*
X0182719Y0048283D01*
X0182686Y0048232D01*
X0182650Y0048183D01*
X0182612Y0048137D01*
X0182570Y0048093D01*
X0182526Y0048051D01*
X0182480Y0048013D01*
X0182431Y0047977D01*
X0182380Y0047944D01*
X0182328Y0047915D01*
X0182273Y0047888D01*
X0182218Y0047865D01*
X0182161Y0047845D01*
X0182102Y0047829D01*
X0182043Y0047816D01*
X0181984Y0047807D01*
X0181923Y0047802D01*
X0181863Y0047800D01*
X0177863Y0047800D01*
X0177363Y0048300D01*
X0166237Y0048300D01*
X0165737Y0047800D01*
X0167100Y0049600D02*
X0167100Y0054004D01*
X0169302Y0054004D01*
X0170036Y0053270D01*
X0170036Y0051802D01*
X0169302Y0051068D01*
X0167100Y0051068D01*
X0168568Y0051068D02*
X0170036Y0049600D01*
X0171704Y0049600D02*
X0174640Y0049600D01*
X0173172Y0049600D02*
X0173172Y0054004D01*
X0171704Y0052536D01*
X0176308Y0053270D02*
X0177042Y0054004D01*
X0178510Y0054004D01*
X0179244Y0053270D01*
X0179244Y0052536D01*
X0178510Y0051802D01*
X0179244Y0051068D01*
X0179244Y0050334D01*
X0178510Y0049600D01*
X0177042Y0049600D01*
X0176308Y0050334D01*
X0177776Y0051802D02*
X0178510Y0051802D01*
X0165614Y0077100D02*
X0163412Y0077100D01*
X0163412Y0081504D01*
X0165614Y0081504D01*
X0166348Y0080770D01*
X0166348Y0080036D01*
X0165614Y0079302D01*
X0163412Y0079302D01*
X0165614Y0079302D02*
X0166348Y0078568D01*
X0166348Y0077834D01*
X0165614Y0077100D01*
X0161744Y0077100D02*
X0158808Y0077100D01*
X0158808Y0081504D01*
X0161744Y0081504D01*
X0160276Y0079302D02*
X0158808Y0079302D01*
X0157140Y0079302D02*
X0156406Y0078568D01*
X0154204Y0078568D01*
X0155672Y0078568D02*
X0157140Y0077100D01*
X0157140Y0079302D02*
X0157140Y0080770D01*
X0156406Y0081504D01*
X0154204Y0081504D01*
X0154204Y0077100D01*
X0151068Y0077100D02*
X0151068Y0081504D01*
X0149600Y0081504D02*
X0152536Y0081504D01*
X0151863Y0082800D02*
X0147863Y0082800D01*
X0147363Y0083300D01*
X0136237Y0083300D01*
X0135737Y0082800D01*
X0131737Y0082800D01*
X0131677Y0082802D01*
X0131616Y0082807D01*
X0131557Y0082816D01*
X0131498Y0082829D01*
X0131439Y0082845D01*
X0131382Y0082865D01*
X0131327Y0082888D01*
X0131272Y0082915D01*
X0131220Y0082944D01*
X0131169Y0082977D01*
X0131120Y0083013D01*
X0131074Y0083051D01*
X0131030Y0083093D01*
X0130988Y0083137D01*
X0130950Y0083183D01*
X0130914Y0083232D01*
X0130881Y0083283D01*
X0130852Y0083335D01*
X0130825Y0083390D01*
X0130802Y0083445D01*
X0130782Y0083502D01*
X0130766Y0083561D01*
X0130753Y0083620D01*
X0130744Y0083679D01*
X0130739Y0083740D01*
X0130737Y0083800D01*
X0130737Y0089800D01*
X0130739Y0089860D01*
X0130744Y0089921D01*
X0130753Y0089980D01*
X0130766Y0090039D01*
X0130782Y0090098D01*
X0130802Y0090155D01*
X0130825Y0090210D01*
X0130852Y0090265D01*
X0130881Y0090317D01*
X0130914Y0090368D01*
X0130950Y0090417D01*
X0130988Y0090463D01*
X0131030Y0090507D01*
X0131074Y0090549D01*
X0131120Y0090587D01*
X0131169Y0090623D01*
X0131220Y0090656D01*
X0131272Y0090685D01*
X0131327Y0090712D01*
X0131382Y0090735D01*
X0131439Y0090755D01*
X0131498Y0090771D01*
X0131557Y0090784D01*
X0131616Y0090793D01*
X0131677Y0090798D01*
X0131737Y0090800D01*
X0135737Y0090800D01*
X0136237Y0090300D01*
X0147363Y0090300D01*
X0147863Y0090800D01*
X0151863Y0090800D01*
X0151923Y0090798D01*
X0151984Y0090793D01*
X0152043Y0090784D01*
X0152102Y0090771D01*
X0152161Y0090755D01*
X0152218Y0090735D01*
X0152273Y0090712D01*
X0152328Y0090685D01*
X0152380Y0090656D01*
X0152431Y0090623D01*
X0152480Y0090587D01*
X0152526Y0090549D01*
X0152570Y0090507D01*
X0152612Y0090463D01*
X0152650Y0090417D01*
X0152686Y0090368D01*
X0152719Y0090317D01*
X0152748Y0090265D01*
X0152775Y0090210D01*
X0152798Y0090155D01*
X0152818Y0090098D01*
X0152834Y0090039D01*
X0152847Y0089980D01*
X0152856Y0089921D01*
X0152861Y0089860D01*
X0152863Y0089800D01*
X0152863Y0083800D01*
X0152861Y0083740D01*
X0152856Y0083679D01*
X0152847Y0083620D01*
X0152834Y0083561D01*
X0152818Y0083502D01*
X0152798Y0083445D01*
X0152775Y0083390D01*
X0152748Y0083335D01*
X0152719Y0083283D01*
X0152686Y0083232D01*
X0152650Y0083183D01*
X0152612Y0083137D01*
X0152570Y0083093D01*
X0152526Y0083051D01*
X0152480Y0083013D01*
X0152431Y0082977D01*
X0152380Y0082944D01*
X0152328Y0082915D01*
X0152273Y0082888D01*
X0152218Y0082865D01*
X0152161Y0082845D01*
X0152102Y0082829D01*
X0152043Y0082816D01*
X0151984Y0082807D01*
X0151923Y0082802D01*
X0151863Y0082800D01*
X0145432Y0085334D02*
X0145432Y0088270D01*
X0144698Y0089004D01*
X0143230Y0089004D01*
X0142496Y0088270D01*
X0142496Y0087536D01*
X0143230Y0086802D01*
X0145432Y0086802D01*
X0145432Y0085334D02*
X0144698Y0084600D01*
X0143230Y0084600D01*
X0142496Y0085334D01*
X0140828Y0084600D02*
X0139360Y0086068D01*
X0140094Y0086068D02*
X0137892Y0086068D01*
X0137892Y0084600D02*
X0137892Y0089004D01*
X0140094Y0089004D01*
X0140828Y0088270D01*
X0140828Y0086802D01*
X0140094Y0086068D01*
X0139800Y0105737D02*
X0133800Y0105737D01*
X0133740Y0105739D01*
X0133679Y0105744D01*
X0133620Y0105753D01*
X0133561Y0105766D01*
X0133502Y0105782D01*
X0133445Y0105802D01*
X0133390Y0105825D01*
X0133335Y0105852D01*
X0133283Y0105881D01*
X0133232Y0105914D01*
X0133183Y0105950D01*
X0133137Y0105988D01*
X0133093Y0106030D01*
X0133051Y0106074D01*
X0133013Y0106120D01*
X0132977Y0106169D01*
X0132944Y0106220D01*
X0132915Y0106272D01*
X0132888Y0106327D01*
X0132865Y0106382D01*
X0132845Y0106439D01*
X0132829Y0106498D01*
X0132816Y0106557D01*
X0132807Y0106616D01*
X0132802Y0106677D01*
X0132800Y0106737D01*
X0132800Y0110737D01*
X0133300Y0111237D01*
X0133300Y0122363D01*
X0132800Y0122863D01*
X0132800Y0126863D01*
X0132802Y0126923D01*
X0132807Y0126984D01*
X0132816Y0127043D01*
X0132829Y0127102D01*
X0132845Y0127161D01*
X0132865Y0127218D01*
X0132888Y0127273D01*
X0132915Y0127328D01*
X0132944Y0127380D01*
X0132977Y0127431D01*
X0133013Y0127480D01*
X0133051Y0127526D01*
X0133093Y0127570D01*
X0133137Y0127612D01*
X0133183Y0127650D01*
X0133232Y0127686D01*
X0133283Y0127719D01*
X0133335Y0127748D01*
X0133390Y0127775D01*
X0133445Y0127798D01*
X0133502Y0127818D01*
X0133561Y0127834D01*
X0133620Y0127847D01*
X0133679Y0127856D01*
X0133740Y0127861D01*
X0133800Y0127863D01*
X0139800Y0127863D01*
X0139860Y0127861D01*
X0139921Y0127856D01*
X0139980Y0127847D01*
X0140039Y0127834D01*
X0140098Y0127818D01*
X0140155Y0127798D01*
X0140210Y0127775D01*
X0140265Y0127748D01*
X0140317Y0127719D01*
X0140368Y0127686D01*
X0140417Y0127650D01*
X0140463Y0127612D01*
X0140507Y0127570D01*
X0140549Y0127526D01*
X0140587Y0127480D01*
X0140623Y0127431D01*
X0140656Y0127380D01*
X0140685Y0127328D01*
X0140712Y0127273D01*
X0140735Y0127218D01*
X0140755Y0127161D01*
X0140771Y0127102D01*
X0140784Y0127043D01*
X0140793Y0126984D01*
X0140798Y0126923D01*
X0140800Y0126863D01*
X0140800Y0122863D01*
X0140300Y0122363D01*
X0140300Y0111237D01*
X0140800Y0110737D01*
X0140800Y0106737D01*
X0140798Y0106677D01*
X0140793Y0106616D01*
X0140784Y0106557D01*
X0140771Y0106498D01*
X0140755Y0106439D01*
X0140735Y0106382D01*
X0140712Y0106327D01*
X0140685Y0106272D01*
X0140656Y0106220D01*
X0140623Y0106169D01*
X0140587Y0106120D01*
X0140549Y0106074D01*
X0140507Y0106030D01*
X0140463Y0105988D01*
X0140417Y0105950D01*
X0140368Y0105914D01*
X0140317Y0105881D01*
X0140265Y0105852D01*
X0140210Y0105825D01*
X0140155Y0105802D01*
X0140098Y0105782D01*
X0140039Y0105766D01*
X0139980Y0105753D01*
X0139921Y0105744D01*
X0139860Y0105739D01*
X0139800Y0105737D01*
X0139000Y0112100D02*
X0134596Y0112100D01*
X0134596Y0114302D01*
X0135330Y0115036D01*
X0136798Y0115036D01*
X0137532Y0114302D01*
X0137532Y0112100D01*
X0137532Y0113568D02*
X0139000Y0115036D01*
X0139000Y0116704D02*
X0139000Y0119640D01*
X0139000Y0118172D02*
X0134596Y0118172D01*
X0136064Y0116704D01*
X0135330Y0121308D02*
X0134596Y0122042D01*
X0134596Y0123510D01*
X0135330Y0124244D01*
X0138266Y0121308D01*
X0139000Y0122042D01*
X0139000Y0123510D01*
X0138266Y0124244D01*
X0135330Y0124244D01*
X0135330Y0121308D02*
X0138266Y0121308D01*
X0151800Y0125300D02*
X0151800Y0148300D01*
X0191800Y0148300D01*
X0191800Y0140800D01*
X0191674Y0140798D01*
X0191549Y0140792D01*
X0191424Y0140782D01*
X0191299Y0140768D01*
X0191174Y0140751D01*
X0191050Y0140729D01*
X0190927Y0140704D01*
X0190805Y0140674D01*
X0190684Y0140641D01*
X0190564Y0140604D01*
X0190445Y0140564D01*
X0190328Y0140519D01*
X0190211Y0140471D01*
X0190097Y0140419D01*
X0189984Y0140364D01*
X0189873Y0140305D01*
X0189764Y0140243D01*
X0189657Y0140177D01*
X0189552Y0140108D01*
X0189449Y0140036D01*
X0189348Y0139961D01*
X0189250Y0139882D01*
X0189155Y0139800D01*
X0189062Y0139716D01*
X0188972Y0139628D01*
X0188884Y0139538D01*
X0188800Y0139445D01*
X0188718Y0139350D01*
X0188639Y0139252D01*
X0188564Y0139151D01*
X0188492Y0139048D01*
X0188423Y0138943D01*
X0188357Y0138836D01*
X0188295Y0138727D01*
X0188236Y0138616D01*
X0188181Y0138503D01*
X0188129Y0138389D01*
X0188081Y0138272D01*
X0188036Y0138155D01*
X0187996Y0138036D01*
X0187959Y0137916D01*
X0187926Y0137795D01*
X0187896Y0137673D01*
X0187871Y0137550D01*
X0187849Y0137426D01*
X0187832Y0137301D01*
X0187818Y0137176D01*
X0187808Y0137051D01*
X0187802Y0136926D01*
X0187800Y0136800D01*
X0187802Y0136674D01*
X0187808Y0136549D01*
X0187818Y0136424D01*
X0187832Y0136299D01*
X0187849Y0136174D01*
X0187871Y0136050D01*
X0187896Y0135927D01*
X0187926Y0135805D01*
X0187959Y0135684D01*
X0187996Y0135564D01*
X0188036Y0135445D01*
X0188081Y0135328D01*
X0188129Y0135211D01*
X0188181Y0135097D01*
X0188236Y0134984D01*
X0188295Y0134873D01*
X0188357Y0134764D01*
X0188423Y0134657D01*
X0188492Y0134552D01*
X0188564Y0134449D01*
X0188639Y0134348D01*
X0188718Y0134250D01*
X0188800Y0134155D01*
X0188884Y0134062D01*
X0188972Y0133972D01*
X0189062Y0133884D01*
X0189155Y0133800D01*
X0189250Y0133718D01*
X0189348Y0133639D01*
X0189449Y0133564D01*
X0189552Y0133492D01*
X0189657Y0133423D01*
X0189764Y0133357D01*
X0189873Y0133295D01*
X0189984Y0133236D01*
X0190097Y0133181D01*
X0190211Y0133129D01*
X0190328Y0133081D01*
X0190445Y0133036D01*
X0190564Y0132996D01*
X0190684Y0132959D01*
X0190805Y0132926D01*
X0190927Y0132896D01*
X0191050Y0132871D01*
X0191174Y0132849D01*
X0191299Y0132832D01*
X0191424Y0132818D01*
X0191549Y0132808D01*
X0191674Y0132802D01*
X0191800Y0132800D01*
X0191800Y0125300D01*
X0151800Y0125300D01*
X0161737Y0115800D02*
X0165737Y0115800D01*
X0166237Y0115300D01*
X0177363Y0115300D01*
X0177863Y0115800D01*
X0181863Y0115800D01*
X0181923Y0115798D01*
X0181984Y0115793D01*
X0182043Y0115784D01*
X0182102Y0115771D01*
X0182161Y0115755D01*
X0182218Y0115735D01*
X0182273Y0115712D01*
X0182328Y0115685D01*
X0182380Y0115656D01*
X0182431Y0115623D01*
X0182480Y0115587D01*
X0182526Y0115549D01*
X0182570Y0115507D01*
X0182612Y0115463D01*
X0182650Y0115417D01*
X0182686Y0115368D01*
X0182719Y0115317D01*
X0182748Y0115265D01*
X0182775Y0115210D01*
X0182798Y0115155D01*
X0182818Y0115098D01*
X0182834Y0115039D01*
X0182847Y0114980D01*
X0182856Y0114921D01*
X0182861Y0114860D01*
X0182863Y0114800D01*
X0182863Y0108800D01*
X0182861Y0108740D01*
X0182856Y0108679D01*
X0182847Y0108620D01*
X0182834Y0108561D01*
X0182818Y0108502D01*
X0182798Y0108445D01*
X0182775Y0108390D01*
X0182748Y0108335D01*
X0182719Y0108283D01*
X0182686Y0108232D01*
X0182650Y0108183D01*
X0182612Y0108137D01*
X0182570Y0108093D01*
X0182526Y0108051D01*
X0182480Y0108013D01*
X0182431Y0107977D01*
X0182380Y0107944D01*
X0182328Y0107915D01*
X0182273Y0107888D01*
X0182218Y0107865D01*
X0182161Y0107845D01*
X0182102Y0107829D01*
X0182043Y0107816D01*
X0181984Y0107807D01*
X0181923Y0107802D01*
X0181863Y0107800D01*
X0177863Y0107800D01*
X0177363Y0108300D01*
X0166237Y0108300D01*
X0165737Y0107800D01*
X0161737Y0107800D01*
X0161677Y0107802D01*
X0161616Y0107807D01*
X0161557Y0107816D01*
X0161498Y0107829D01*
X0161439Y0107845D01*
X0161382Y0107865D01*
X0161327Y0107888D01*
X0161272Y0107915D01*
X0161220Y0107944D01*
X0161169Y0107977D01*
X0161120Y0108013D01*
X0161074Y0108051D01*
X0161030Y0108093D01*
X0160988Y0108137D01*
X0160950Y0108183D01*
X0160914Y0108232D01*
X0160881Y0108283D01*
X0160852Y0108335D01*
X0160825Y0108390D01*
X0160802Y0108445D01*
X0160782Y0108502D01*
X0160766Y0108561D01*
X0160753Y0108620D01*
X0160744Y0108679D01*
X0160739Y0108740D01*
X0160737Y0108800D01*
X0160737Y0114800D01*
X0160739Y0114860D01*
X0160744Y0114921D01*
X0160753Y0114980D01*
X0160766Y0115039D01*
X0160782Y0115098D01*
X0160802Y0115155D01*
X0160825Y0115210D01*
X0160852Y0115265D01*
X0160881Y0115317D01*
X0160914Y0115368D01*
X0160950Y0115417D01*
X0160988Y0115463D01*
X0161030Y0115507D01*
X0161074Y0115549D01*
X0161120Y0115587D01*
X0161169Y0115623D01*
X0161220Y0115656D01*
X0161272Y0115685D01*
X0161327Y0115712D01*
X0161382Y0115735D01*
X0161439Y0115755D01*
X0161498Y0115771D01*
X0161557Y0115784D01*
X0161616Y0115793D01*
X0161677Y0115798D01*
X0161737Y0115800D01*
X0167100Y0114004D02*
X0167100Y0109600D01*
X0167100Y0111068D02*
X0169302Y0111068D01*
X0170036Y0111802D01*
X0170036Y0113270D01*
X0169302Y0114004D01*
X0167100Y0114004D01*
X0168568Y0111068D02*
X0170036Y0109600D01*
X0171704Y0110334D02*
X0171704Y0111802D01*
X0173906Y0111802D01*
X0174640Y0111068D01*
X0174640Y0110334D01*
X0173906Y0109600D01*
X0172438Y0109600D01*
X0171704Y0110334D01*
X0171704Y0111802D02*
X0173172Y0113270D01*
X0174640Y0114004D01*
X0175022Y0100004D02*
X0174288Y0099270D01*
X0174288Y0096334D01*
X0175022Y0095600D01*
X0176490Y0095600D01*
X0177224Y0096334D01*
X0178892Y0095600D02*
X0181828Y0095600D01*
X0180360Y0095600D02*
X0180360Y0100004D01*
X0178892Y0098536D01*
X0177224Y0099270D02*
X0176490Y0100004D01*
X0175022Y0100004D01*
X0183496Y0099270D02*
X0184230Y0100004D01*
X0185698Y0100004D01*
X0186432Y0099270D01*
X0186432Y0098536D01*
X0183496Y0095600D01*
X0186432Y0095600D01*
X0169398Y0091800D02*
X0169402Y0092104D01*
X0169413Y0092409D01*
X0169432Y0092712D01*
X0169458Y0093016D01*
X0169491Y0093318D01*
X0169532Y0093620D01*
X0169581Y0093920D01*
X0169636Y0094220D01*
X0169699Y0094517D01*
X0169770Y0094813D01*
X0169847Y0095108D01*
X0169932Y0095400D01*
X0170024Y0095690D01*
X0170123Y0095978D01*
X0170229Y0096263D01*
X0170342Y0096546D01*
X0170462Y0096826D01*
X0170589Y0097103D01*
X0170722Y0097376D01*
X0170862Y0097646D01*
X0171009Y0097913D01*
X0171162Y0098176D01*
X0171322Y0098435D01*
X0171488Y0098690D01*
X0171660Y0098941D01*
X0171839Y0099188D01*
X0172023Y0099430D01*
X0172213Y0099668D01*
X0172409Y0099901D01*
X0172611Y0100129D01*
X0172818Y0100352D01*
X0173030Y0100570D01*
X0173248Y0100782D01*
X0173471Y0100989D01*
X0173699Y0101191D01*
X0173932Y0101387D01*
X0174170Y0101577D01*
X0174412Y0101761D01*
X0174659Y0101940D01*
X0174910Y0102112D01*
X0175165Y0102278D01*
X0175424Y0102438D01*
X0175687Y0102591D01*
X0175954Y0102738D01*
X0176224Y0102878D01*
X0176497Y0103011D01*
X0176774Y0103138D01*
X0177054Y0103258D01*
X0177337Y0103371D01*
X0177622Y0103477D01*
X0177910Y0103576D01*
X0178200Y0103668D01*
X0178492Y0103753D01*
X0178787Y0103830D01*
X0179083Y0103901D01*
X0179380Y0103964D01*
X0179680Y0104019D01*
X0179980Y0104068D01*
X0180282Y0104109D01*
X0180584Y0104142D01*
X0180888Y0104168D01*
X0181191Y0104187D01*
X0181496Y0104198D01*
X0181800Y0104202D01*
X0182104Y0104198D01*
X0182409Y0104187D01*
X0182712Y0104168D01*
X0183016Y0104142D01*
X0183318Y0104109D01*
X0183620Y0104068D01*
X0183920Y0104019D01*
X0184220Y0103964D01*
X0184517Y0103901D01*
X0184813Y0103830D01*
X0185108Y0103753D01*
X0185400Y0103668D01*
X0185690Y0103576D01*
X0185978Y0103477D01*
X0186263Y0103371D01*
X0186546Y0103258D01*
X0186826Y0103138D01*
X0187103Y0103011D01*
X0187376Y0102878D01*
X0187646Y0102738D01*
X0187913Y0102591D01*
X0188176Y0102438D01*
X0188435Y0102278D01*
X0188690Y0102112D01*
X0188941Y0101940D01*
X0189188Y0101761D01*
X0189430Y0101577D01*
X0189668Y0101387D01*
X0189901Y0101191D01*
X0190129Y0100989D01*
X0190352Y0100782D01*
X0190570Y0100570D01*
X0190782Y0100352D01*
X0190989Y0100129D01*
X0191191Y0099901D01*
X0191387Y0099668D01*
X0191577Y0099430D01*
X0191761Y0099188D01*
X0191940Y0098941D01*
X0192112Y0098690D01*
X0192278Y0098435D01*
X0192438Y0098176D01*
X0192591Y0097913D01*
X0192738Y0097646D01*
X0192878Y0097376D01*
X0193011Y0097103D01*
X0193138Y0096826D01*
X0193258Y0096546D01*
X0193371Y0096263D01*
X0193477Y0095978D01*
X0193576Y0095690D01*
X0193668Y0095400D01*
X0193753Y0095108D01*
X0193830Y0094813D01*
X0193901Y0094517D01*
X0193964Y0094220D01*
X0194019Y0093920D01*
X0194068Y0093620D01*
X0194109Y0093318D01*
X0194142Y0093016D01*
X0194168Y0092712D01*
X0194187Y0092409D01*
X0194198Y0092104D01*
X0194202Y0091800D01*
X0194198Y0091496D01*
X0194187Y0091191D01*
X0194168Y0090888D01*
X0194142Y0090584D01*
X0194109Y0090282D01*
X0194068Y0089980D01*
X0194019Y0089680D01*
X0193964Y0089380D01*
X0193901Y0089083D01*
X0193830Y0088787D01*
X0193753Y0088492D01*
X0193668Y0088200D01*
X0193576Y0087910D01*
X0193477Y0087622D01*
X0193371Y0087337D01*
X0193258Y0087054D01*
X0193138Y0086774D01*
X0193011Y0086497D01*
X0192878Y0086224D01*
X0192738Y0085954D01*
X0192591Y0085687D01*
X0192438Y0085424D01*
X0192278Y0085165D01*
X0192112Y0084910D01*
X0191940Y0084659D01*
X0191761Y0084412D01*
X0191577Y0084170D01*
X0191387Y0083932D01*
X0191191Y0083699D01*
X0190989Y0083471D01*
X0190782Y0083248D01*
X0190570Y0083030D01*
X0190352Y0082818D01*
X0190129Y0082611D01*
X0189901Y0082409D01*
X0189668Y0082213D01*
X0189430Y0082023D01*
X0189188Y0081839D01*
X0188941Y0081660D01*
X0188690Y0081488D01*
X0188435Y0081322D01*
X0188176Y0081162D01*
X0187913Y0081009D01*
X0187646Y0080862D01*
X0187376Y0080722D01*
X0187103Y0080589D01*
X0186826Y0080462D01*
X0186546Y0080342D01*
X0186263Y0080229D01*
X0185978Y0080123D01*
X0185690Y0080024D01*
X0185400Y0079932D01*
X0185108Y0079847D01*
X0184813Y0079770D01*
X0184517Y0079699D01*
X0184220Y0079636D01*
X0183920Y0079581D01*
X0183620Y0079532D01*
X0183318Y0079491D01*
X0183016Y0079458D01*
X0182712Y0079432D01*
X0182409Y0079413D01*
X0182104Y0079402D01*
X0181800Y0079398D01*
X0181496Y0079402D01*
X0181191Y0079413D01*
X0180888Y0079432D01*
X0180584Y0079458D01*
X0180282Y0079491D01*
X0179980Y0079532D01*
X0179680Y0079581D01*
X0179380Y0079636D01*
X0179083Y0079699D01*
X0178787Y0079770D01*
X0178492Y0079847D01*
X0178200Y0079932D01*
X0177910Y0080024D01*
X0177622Y0080123D01*
X0177337Y0080229D01*
X0177054Y0080342D01*
X0176774Y0080462D01*
X0176497Y0080589D01*
X0176224Y0080722D01*
X0175954Y0080862D01*
X0175687Y0081009D01*
X0175424Y0081162D01*
X0175165Y0081322D01*
X0174910Y0081488D01*
X0174659Y0081660D01*
X0174412Y0081839D01*
X0174170Y0082023D01*
X0173932Y0082213D01*
X0173699Y0082409D01*
X0173471Y0082611D01*
X0173248Y0082818D01*
X0173030Y0083030D01*
X0172818Y0083248D01*
X0172611Y0083471D01*
X0172409Y0083699D01*
X0172213Y0083932D01*
X0172023Y0084170D01*
X0171839Y0084412D01*
X0171660Y0084659D01*
X0171488Y0084910D01*
X0171322Y0085165D01*
X0171162Y0085424D01*
X0171009Y0085687D01*
X0170862Y0085954D01*
X0170722Y0086224D01*
X0170589Y0086497D01*
X0170462Y0086774D01*
X0170342Y0087054D01*
X0170229Y0087337D01*
X0170123Y0087622D01*
X0170024Y0087910D01*
X0169932Y0088200D01*
X0169847Y0088492D01*
X0169770Y0088787D01*
X0169699Y0089083D01*
X0169636Y0089380D01*
X0169581Y0089680D01*
X0169532Y0089980D01*
X0169491Y0090282D01*
X0169458Y0090584D01*
X0169432Y0090888D01*
X0169413Y0091191D01*
X0169402Y0091496D01*
X0169398Y0091800D01*
X0185000Y0086400D02*
X0187600Y0086400D01*
X0186300Y0085200D02*
X0186300Y0087700D01*
X0181932Y0131100D02*
X0178996Y0131100D01*
X0180464Y0131100D02*
X0180464Y0135504D01*
X0178996Y0134036D01*
X0177328Y0134770D02*
X0176594Y0135504D01*
X0175126Y0135504D01*
X0174392Y0134770D01*
X0174392Y0131834D01*
X0175126Y0131100D01*
X0176594Y0131100D01*
X0177328Y0131834D01*
X0172791Y0131100D02*
X0171323Y0131100D01*
X0172057Y0131100D02*
X0172057Y0135504D01*
X0171323Y0135504D02*
X0172791Y0135504D01*
X0138400Y0156300D02*
X0135900Y0156300D01*
X0137200Y0155000D02*
X0137200Y0157600D01*
X0121957Y0151800D02*
X0121960Y0152042D01*
X0121969Y0152283D01*
X0121984Y0152524D01*
X0122004Y0152765D01*
X0122031Y0153005D01*
X0122064Y0153244D01*
X0122102Y0153483D01*
X0122146Y0153720D01*
X0122196Y0153957D01*
X0122252Y0154192D01*
X0122314Y0154425D01*
X0122381Y0154657D01*
X0122454Y0154888D01*
X0122532Y0155116D01*
X0122617Y0155342D01*
X0122706Y0155567D01*
X0122801Y0155789D01*
X0122902Y0156008D01*
X0123008Y0156226D01*
X0123119Y0156440D01*
X0123236Y0156652D01*
X0123357Y0156860D01*
X0123484Y0157066D01*
X0123616Y0157268D01*
X0123753Y0157468D01*
X0123894Y0157663D01*
X0124040Y0157856D01*
X0124191Y0158044D01*
X0124347Y0158229D01*
X0124507Y0158410D01*
X0124671Y0158587D01*
X0124840Y0158760D01*
X0125013Y0158929D01*
X0125190Y0159093D01*
X0125371Y0159253D01*
X0125556Y0159409D01*
X0125744Y0159560D01*
X0125937Y0159706D01*
X0126132Y0159847D01*
X0126332Y0159984D01*
X0126534Y0160116D01*
X0126740Y0160243D01*
X0126948Y0160364D01*
X0127160Y0160481D01*
X0127374Y0160592D01*
X0127592Y0160698D01*
X0127811Y0160799D01*
X0128033Y0160894D01*
X0128258Y0160983D01*
X0128484Y0161068D01*
X0128712Y0161146D01*
X0128943Y0161219D01*
X0129175Y0161286D01*
X0129408Y0161348D01*
X0129643Y0161404D01*
X0129880Y0161454D01*
X0130117Y0161498D01*
X0130356Y0161536D01*
X0130595Y0161569D01*
X0130835Y0161596D01*
X0131076Y0161616D01*
X0131317Y0161631D01*
X0131558Y0161640D01*
X0131800Y0161643D01*
X0132042Y0161640D01*
X0132283Y0161631D01*
X0132524Y0161616D01*
X0132765Y0161596D01*
X0133005Y0161569D01*
X0133244Y0161536D01*
X0133483Y0161498D01*
X0133720Y0161454D01*
X0133957Y0161404D01*
X0134192Y0161348D01*
X0134425Y0161286D01*
X0134657Y0161219D01*
X0134888Y0161146D01*
X0135116Y0161068D01*
X0135342Y0160983D01*
X0135567Y0160894D01*
X0135789Y0160799D01*
X0136008Y0160698D01*
X0136226Y0160592D01*
X0136440Y0160481D01*
X0136652Y0160364D01*
X0136860Y0160243D01*
X0137066Y0160116D01*
X0137268Y0159984D01*
X0137468Y0159847D01*
X0137663Y0159706D01*
X0137856Y0159560D01*
X0138044Y0159409D01*
X0138229Y0159253D01*
X0138410Y0159093D01*
X0138587Y0158929D01*
X0138760Y0158760D01*
X0138929Y0158587D01*
X0139093Y0158410D01*
X0139253Y0158229D01*
X0139409Y0158044D01*
X0139560Y0157856D01*
X0139706Y0157663D01*
X0139847Y0157468D01*
X0139984Y0157268D01*
X0140116Y0157066D01*
X0140243Y0156860D01*
X0140364Y0156652D01*
X0140481Y0156440D01*
X0140592Y0156226D01*
X0140698Y0156008D01*
X0140799Y0155789D01*
X0140894Y0155567D01*
X0140983Y0155342D01*
X0141068Y0155116D01*
X0141146Y0154888D01*
X0141219Y0154657D01*
X0141286Y0154425D01*
X0141348Y0154192D01*
X0141404Y0153957D01*
X0141454Y0153720D01*
X0141498Y0153483D01*
X0141536Y0153244D01*
X0141569Y0153005D01*
X0141596Y0152765D01*
X0141616Y0152524D01*
X0141631Y0152283D01*
X0141640Y0152042D01*
X0141643Y0151800D01*
X0141640Y0151558D01*
X0141631Y0151317D01*
X0141616Y0151076D01*
X0141596Y0150835D01*
X0141569Y0150595D01*
X0141536Y0150356D01*
X0141498Y0150117D01*
X0141454Y0149880D01*
X0141404Y0149643D01*
X0141348Y0149408D01*
X0141286Y0149175D01*
X0141219Y0148943D01*
X0141146Y0148712D01*
X0141068Y0148484D01*
X0140983Y0148258D01*
X0140894Y0148033D01*
X0140799Y0147811D01*
X0140698Y0147592D01*
X0140592Y0147374D01*
X0140481Y0147160D01*
X0140364Y0146948D01*
X0140243Y0146740D01*
X0140116Y0146534D01*
X0139984Y0146332D01*
X0139847Y0146132D01*
X0139706Y0145937D01*
X0139560Y0145744D01*
X0139409Y0145556D01*
X0139253Y0145371D01*
X0139093Y0145190D01*
X0138929Y0145013D01*
X0138760Y0144840D01*
X0138587Y0144671D01*
X0138410Y0144507D01*
X0138229Y0144347D01*
X0138044Y0144191D01*
X0137856Y0144040D01*
X0137663Y0143894D01*
X0137468Y0143753D01*
X0137268Y0143616D01*
X0137066Y0143484D01*
X0136860Y0143357D01*
X0136652Y0143236D01*
X0136440Y0143119D01*
X0136226Y0143008D01*
X0136008Y0142902D01*
X0135789Y0142801D01*
X0135567Y0142706D01*
X0135342Y0142617D01*
X0135116Y0142532D01*
X0134888Y0142454D01*
X0134657Y0142381D01*
X0134425Y0142314D01*
X0134192Y0142252D01*
X0133957Y0142196D01*
X0133720Y0142146D01*
X0133483Y0142102D01*
X0133244Y0142064D01*
X0133005Y0142031D01*
X0132765Y0142004D01*
X0132524Y0141984D01*
X0132283Y0141969D01*
X0132042Y0141960D01*
X0131800Y0141957D01*
X0131558Y0141960D01*
X0131317Y0141969D01*
X0131076Y0141984D01*
X0130835Y0142004D01*
X0130595Y0142031D01*
X0130356Y0142064D01*
X0130117Y0142102D01*
X0129880Y0142146D01*
X0129643Y0142196D01*
X0129408Y0142252D01*
X0129175Y0142314D01*
X0128943Y0142381D01*
X0128712Y0142454D01*
X0128484Y0142532D01*
X0128258Y0142617D01*
X0128033Y0142706D01*
X0127811Y0142801D01*
X0127592Y0142902D01*
X0127374Y0143008D01*
X0127160Y0143119D01*
X0126948Y0143236D01*
X0126740Y0143357D01*
X0126534Y0143484D01*
X0126332Y0143616D01*
X0126132Y0143753D01*
X0125937Y0143894D01*
X0125744Y0144040D01*
X0125556Y0144191D01*
X0125371Y0144347D01*
X0125190Y0144507D01*
X0125013Y0144671D01*
X0124840Y0144840D01*
X0124671Y0145013D01*
X0124507Y0145190D01*
X0124347Y0145371D01*
X0124191Y0145556D01*
X0124040Y0145744D01*
X0123894Y0145937D01*
X0123753Y0146132D01*
X0123616Y0146332D01*
X0123484Y0146534D01*
X0123357Y0146740D01*
X0123236Y0146948D01*
X0123119Y0147160D01*
X0123008Y0147374D01*
X0122902Y0147592D01*
X0122801Y0147811D01*
X0122706Y0148033D01*
X0122617Y0148258D01*
X0122532Y0148484D01*
X0122454Y0148712D01*
X0122381Y0148943D01*
X0122314Y0149175D01*
X0122252Y0149408D01*
X0122196Y0149643D01*
X0122146Y0149880D01*
X0122102Y0150117D01*
X0122064Y0150356D01*
X0122031Y0150595D01*
X0122004Y0150835D01*
X0121984Y0151076D01*
X0121969Y0151317D01*
X0121960Y0151558D01*
X0121957Y0151800D01*
X0114996Y0144004D02*
X0114996Y0139600D01*
X0117932Y0139600D01*
X0113328Y0140334D02*
X0113328Y0143270D01*
X0112594Y0144004D01*
X0111126Y0144004D01*
X0110392Y0143270D01*
X0110392Y0140334D01*
X0111126Y0139600D01*
X0112594Y0139600D01*
X0113328Y0140334D01*
X0108724Y0141068D02*
X0108724Y0144004D01*
X0105788Y0144004D02*
X0105788Y0141068D01*
X0107256Y0139600D01*
X0108724Y0141068D01*
X0090906Y0116682D02*
X0090906Y0106918D01*
X0062694Y0106918D01*
X0062694Y0116682D01*
X0090906Y0116682D01*
X0090906Y0101682D02*
X0090906Y0091918D01*
X0062694Y0091918D01*
X0062694Y0101682D01*
X0090906Y0101682D01*
X0096957Y0086800D02*
X0096960Y0087042D01*
X0096969Y0087283D01*
X0096984Y0087524D01*
X0097004Y0087765D01*
X0097031Y0088005D01*
X0097064Y0088244D01*
X0097102Y0088483D01*
X0097146Y0088720D01*
X0097196Y0088957D01*
X0097252Y0089192D01*
X0097314Y0089425D01*
X0097381Y0089657D01*
X0097454Y0089888D01*
X0097532Y0090116D01*
X0097617Y0090342D01*
X0097706Y0090567D01*
X0097801Y0090789D01*
X0097902Y0091008D01*
X0098008Y0091226D01*
X0098119Y0091440D01*
X0098236Y0091652D01*
X0098357Y0091860D01*
X0098484Y0092066D01*
X0098616Y0092268D01*
X0098753Y0092468D01*
X0098894Y0092663D01*
X0099040Y0092856D01*
X0099191Y0093044D01*
X0099347Y0093229D01*
X0099507Y0093410D01*
X0099671Y0093587D01*
X0099840Y0093760D01*
X0100013Y0093929D01*
X0100190Y0094093D01*
X0100371Y0094253D01*
X0100556Y0094409D01*
X0100744Y0094560D01*
X0100937Y0094706D01*
X0101132Y0094847D01*
X0101332Y0094984D01*
X0101534Y0095116D01*
X0101740Y0095243D01*
X0101948Y0095364D01*
X0102160Y0095481D01*
X0102374Y0095592D01*
X0102592Y0095698D01*
X0102811Y0095799D01*
X0103033Y0095894D01*
X0103258Y0095983D01*
X0103484Y0096068D01*
X0103712Y0096146D01*
X0103943Y0096219D01*
X0104175Y0096286D01*
X0104408Y0096348D01*
X0104643Y0096404D01*
X0104880Y0096454D01*
X0105117Y0096498D01*
X0105356Y0096536D01*
X0105595Y0096569D01*
X0105835Y0096596D01*
X0106076Y0096616D01*
X0106317Y0096631D01*
X0106558Y0096640D01*
X0106800Y0096643D01*
X0107042Y0096640D01*
X0107283Y0096631D01*
X0107524Y0096616D01*
X0107765Y0096596D01*
X0108005Y0096569D01*
X0108244Y0096536D01*
X0108483Y0096498D01*
X0108720Y0096454D01*
X0108957Y0096404D01*
X0109192Y0096348D01*
X0109425Y0096286D01*
X0109657Y0096219D01*
X0109888Y0096146D01*
X0110116Y0096068D01*
X0110342Y0095983D01*
X0110567Y0095894D01*
X0110789Y0095799D01*
X0111008Y0095698D01*
X0111226Y0095592D01*
X0111440Y0095481D01*
X0111652Y0095364D01*
X0111860Y0095243D01*
X0112066Y0095116D01*
X0112268Y0094984D01*
X0112468Y0094847D01*
X0112663Y0094706D01*
X0112856Y0094560D01*
X0113044Y0094409D01*
X0113229Y0094253D01*
X0113410Y0094093D01*
X0113587Y0093929D01*
X0113760Y0093760D01*
X0113929Y0093587D01*
X0114093Y0093410D01*
X0114253Y0093229D01*
X0114409Y0093044D01*
X0114560Y0092856D01*
X0114706Y0092663D01*
X0114847Y0092468D01*
X0114984Y0092268D01*
X0115116Y0092066D01*
X0115243Y0091860D01*
X0115364Y0091652D01*
X0115481Y0091440D01*
X0115592Y0091226D01*
X0115698Y0091008D01*
X0115799Y0090789D01*
X0115894Y0090567D01*
X0115983Y0090342D01*
X0116068Y0090116D01*
X0116146Y0089888D01*
X0116219Y0089657D01*
X0116286Y0089425D01*
X0116348Y0089192D01*
X0116404Y0088957D01*
X0116454Y0088720D01*
X0116498Y0088483D01*
X0116536Y0088244D01*
X0116569Y0088005D01*
X0116596Y0087765D01*
X0116616Y0087524D01*
X0116631Y0087283D01*
X0116640Y0087042D01*
X0116643Y0086800D01*
X0116640Y0086558D01*
X0116631Y0086317D01*
X0116616Y0086076D01*
X0116596Y0085835D01*
X0116569Y0085595D01*
X0116536Y0085356D01*
X0116498Y0085117D01*
X0116454Y0084880D01*
X0116404Y0084643D01*
X0116348Y0084408D01*
X0116286Y0084175D01*
X0116219Y0083943D01*
X0116146Y0083712D01*
X0116068Y0083484D01*
X0115983Y0083258D01*
X0115894Y0083033D01*
X0115799Y0082811D01*
X0115698Y0082592D01*
X0115592Y0082374D01*
X0115481Y0082160D01*
X0115364Y0081948D01*
X0115243Y0081740D01*
X0115116Y0081534D01*
X0114984Y0081332D01*
X0114847Y0081132D01*
X0114706Y0080937D01*
X0114560Y0080744D01*
X0114409Y0080556D01*
X0114253Y0080371D01*
X0114093Y0080190D01*
X0113929Y0080013D01*
X0113760Y0079840D01*
X0113587Y0079671D01*
X0113410Y0079507D01*
X0113229Y0079347D01*
X0113044Y0079191D01*
X0112856Y0079040D01*
X0112663Y0078894D01*
X0112468Y0078753D01*
X0112268Y0078616D01*
X0112066Y0078484D01*
X0111860Y0078357D01*
X0111652Y0078236D01*
X0111440Y0078119D01*
X0111226Y0078008D01*
X0111008Y0077902D01*
X0110789Y0077801D01*
X0110567Y0077706D01*
X0110342Y0077617D01*
X0110116Y0077532D01*
X0109888Y0077454D01*
X0109657Y0077381D01*
X0109425Y0077314D01*
X0109192Y0077252D01*
X0108957Y0077196D01*
X0108720Y0077146D01*
X0108483Y0077102D01*
X0108244Y0077064D01*
X0108005Y0077031D01*
X0107765Y0077004D01*
X0107524Y0076984D01*
X0107283Y0076969D01*
X0107042Y0076960D01*
X0106800Y0076957D01*
X0106558Y0076960D01*
X0106317Y0076969D01*
X0106076Y0076984D01*
X0105835Y0077004D01*
X0105595Y0077031D01*
X0105356Y0077064D01*
X0105117Y0077102D01*
X0104880Y0077146D01*
X0104643Y0077196D01*
X0104408Y0077252D01*
X0104175Y0077314D01*
X0103943Y0077381D01*
X0103712Y0077454D01*
X0103484Y0077532D01*
X0103258Y0077617D01*
X0103033Y0077706D01*
X0102811Y0077801D01*
X0102592Y0077902D01*
X0102374Y0078008D01*
X0102160Y0078119D01*
X0101948Y0078236D01*
X0101740Y0078357D01*
X0101534Y0078484D01*
X0101332Y0078616D01*
X0101132Y0078753D01*
X0100937Y0078894D01*
X0100744Y0079040D01*
X0100556Y0079191D01*
X0100371Y0079347D01*
X0100190Y0079507D01*
X0100013Y0079671D01*
X0099840Y0079840D01*
X0099671Y0080013D01*
X0099507Y0080190D01*
X0099347Y0080371D01*
X0099191Y0080556D01*
X0099040Y0080744D01*
X0098894Y0080937D01*
X0098753Y0081132D01*
X0098616Y0081332D01*
X0098484Y0081534D01*
X0098357Y0081740D01*
X0098236Y0081948D01*
X0098119Y0082160D01*
X0098008Y0082374D01*
X0097902Y0082592D01*
X0097801Y0082811D01*
X0097706Y0083033D01*
X0097617Y0083258D01*
X0097532Y0083484D01*
X0097454Y0083712D01*
X0097381Y0083943D01*
X0097314Y0084175D01*
X0097252Y0084408D01*
X0097196Y0084643D01*
X0097146Y0084880D01*
X0097102Y0085117D01*
X0097064Y0085356D01*
X0097031Y0085595D01*
X0097004Y0085835D01*
X0096984Y0086076D01*
X0096969Y0086317D01*
X0096960Y0086558D01*
X0096957Y0086800D01*
X0101400Y0083600D02*
X0101400Y0081000D01*
X0100200Y0082300D02*
X0102700Y0082300D01*
X0087863Y0084800D02*
X0087863Y0078800D01*
X0087861Y0078740D01*
X0087856Y0078679D01*
X0087847Y0078620D01*
X0087834Y0078561D01*
X0087818Y0078502D01*
X0087798Y0078445D01*
X0087775Y0078390D01*
X0087748Y0078335D01*
X0087719Y0078283D01*
X0087686Y0078232D01*
X0087650Y0078183D01*
X0087612Y0078137D01*
X0087570Y0078093D01*
X0087526Y0078051D01*
X0087480Y0078013D01*
X0087431Y0077977D01*
X0087380Y0077944D01*
X0087328Y0077915D01*
X0087273Y0077888D01*
X0087218Y0077865D01*
X0087161Y0077845D01*
X0087102Y0077829D01*
X0087043Y0077816D01*
X0086984Y0077807D01*
X0086923Y0077802D01*
X0086863Y0077800D01*
X0082863Y0077800D01*
X0082363Y0078300D01*
X0071237Y0078300D01*
X0070737Y0077800D01*
X0066737Y0077800D01*
X0066677Y0077802D01*
X0066616Y0077807D01*
X0066557Y0077816D01*
X0066498Y0077829D01*
X0066439Y0077845D01*
X0066382Y0077865D01*
X0066327Y0077888D01*
X0066272Y0077915D01*
X0066220Y0077944D01*
X0066169Y0077977D01*
X0066120Y0078013D01*
X0066074Y0078051D01*
X0066030Y0078093D01*
X0065988Y0078137D01*
X0065950Y0078183D01*
X0065914Y0078232D01*
X0065881Y0078283D01*
X0065852Y0078335D01*
X0065825Y0078390D01*
X0065802Y0078445D01*
X0065782Y0078502D01*
X0065766Y0078561D01*
X0065753Y0078620D01*
X0065744Y0078679D01*
X0065739Y0078740D01*
X0065737Y0078800D01*
X0065737Y0084800D01*
X0065739Y0084860D01*
X0065744Y0084921D01*
X0065753Y0084980D01*
X0065766Y0085039D01*
X0065782Y0085098D01*
X0065802Y0085155D01*
X0065825Y0085210D01*
X0065852Y0085265D01*
X0065881Y0085317D01*
X0065914Y0085368D01*
X0065950Y0085417D01*
X0065988Y0085463D01*
X0066030Y0085507D01*
X0066074Y0085549D01*
X0066120Y0085587D01*
X0066169Y0085623D01*
X0066220Y0085656D01*
X0066272Y0085685D01*
X0066327Y0085712D01*
X0066382Y0085735D01*
X0066439Y0085755D01*
X0066498Y0085771D01*
X0066557Y0085784D01*
X0066616Y0085793D01*
X0066677Y0085798D01*
X0066737Y0085800D01*
X0070737Y0085800D01*
X0071237Y0085300D01*
X0082363Y0085300D01*
X0082863Y0085800D01*
X0086863Y0085800D01*
X0086923Y0085798D01*
X0086984Y0085793D01*
X0087043Y0085784D01*
X0087102Y0085771D01*
X0087161Y0085755D01*
X0087218Y0085735D01*
X0087273Y0085712D01*
X0087328Y0085685D01*
X0087380Y0085656D01*
X0087431Y0085623D01*
X0087480Y0085587D01*
X0087526Y0085549D01*
X0087570Y0085507D01*
X0087612Y0085463D01*
X0087650Y0085417D01*
X0087686Y0085368D01*
X0087719Y0085317D01*
X0087748Y0085265D01*
X0087775Y0085210D01*
X0087798Y0085155D01*
X0087818Y0085098D01*
X0087834Y0085039D01*
X0087847Y0084980D01*
X0087856Y0084921D01*
X0087861Y0084860D01*
X0087863Y0084800D01*
X0080640Y0083270D02*
X0080640Y0082536D01*
X0079906Y0081802D01*
X0078438Y0081802D01*
X0077704Y0082536D01*
X0077704Y0083270D01*
X0078438Y0084004D01*
X0079906Y0084004D01*
X0080640Y0083270D01*
X0079906Y0081802D02*
X0080640Y0081068D01*
X0080640Y0080334D01*
X0079906Y0079600D01*
X0078438Y0079600D01*
X0077704Y0080334D01*
X0077704Y0081068D01*
X0078438Y0081802D01*
X0076036Y0081802D02*
X0076036Y0083270D01*
X0075302Y0084004D01*
X0073100Y0084004D01*
X0073100Y0079600D01*
X0073100Y0081068D02*
X0075302Y0081068D01*
X0076036Y0081802D01*
X0074568Y0081068D02*
X0076036Y0079600D01*
X0051348Y0078568D02*
X0051348Y0077834D01*
X0050614Y0077100D01*
X0049146Y0077100D01*
X0048412Y0077834D01*
X0049146Y0079302D02*
X0048412Y0080036D01*
X0048412Y0080770D01*
X0049146Y0081504D01*
X0050614Y0081504D01*
X0051348Y0080770D01*
X0050614Y0079302D02*
X0051348Y0078568D01*
X0050614Y0079302D02*
X0049146Y0079302D01*
X0046744Y0078568D02*
X0046744Y0077834D01*
X0046010Y0077100D01*
X0044542Y0077100D01*
X0043808Y0077834D01*
X0044542Y0079302D02*
X0046010Y0079302D01*
X0046744Y0078568D01*
X0046744Y0080770D02*
X0046010Y0081504D01*
X0044542Y0081504D01*
X0043808Y0080770D01*
X0043808Y0080036D01*
X0044542Y0079302D01*
X0042140Y0079302D02*
X0039204Y0079302D01*
X0039204Y0080036D02*
X0040672Y0081504D01*
X0042140Y0080036D01*
X0042140Y0077100D01*
X0039204Y0077100D02*
X0039204Y0080036D01*
X0037536Y0080036D02*
X0036802Y0079302D01*
X0034600Y0079302D01*
X0034600Y0081504D02*
X0036802Y0081504D01*
X0037536Y0080770D01*
X0037536Y0080036D01*
X0036802Y0079302D02*
X0037536Y0078568D01*
X0037536Y0077834D01*
X0036802Y0077100D01*
X0034600Y0077100D01*
X0034600Y0081504D01*
X0045906Y0081918D02*
X0045906Y0091682D01*
X0017694Y0091682D01*
X0017694Y0081918D01*
X0045906Y0081918D01*
X0041863Y0097800D02*
X0037863Y0097800D01*
X0037363Y0098300D01*
X0026237Y0098300D01*
X0025737Y0097800D01*
X0021737Y0097800D01*
X0021677Y0097802D01*
X0021616Y0097807D01*
X0021557Y0097816D01*
X0021498Y0097829D01*
X0021439Y0097845D01*
X0021382Y0097865D01*
X0021327Y0097888D01*
X0021272Y0097915D01*
X0021220Y0097944D01*
X0021169Y0097977D01*
X0021120Y0098013D01*
X0021074Y0098051D01*
X0021030Y0098093D01*
X0020988Y0098137D01*
X0020950Y0098183D01*
X0020914Y0098232D01*
X0020881Y0098283D01*
X0020852Y0098335D01*
X0020825Y0098390D01*
X0020802Y0098445D01*
X0020782Y0098502D01*
X0020766Y0098561D01*
X0020753Y0098620D01*
X0020744Y0098679D01*
X0020739Y0098740D01*
X0020737Y0098800D01*
X0020737Y0104800D01*
X0020739Y0104860D01*
X0020744Y0104921D01*
X0020753Y0104980D01*
X0020766Y0105039D01*
X0020782Y0105098D01*
X0020802Y0105155D01*
X0020825Y0105210D01*
X0020852Y0105265D01*
X0020881Y0105317D01*
X0020914Y0105368D01*
X0020950Y0105417D01*
X0020988Y0105463D01*
X0021030Y0105507D01*
X0021074Y0105549D01*
X0021120Y0105587D01*
X0021169Y0105623D01*
X0021220Y0105656D01*
X0021272Y0105685D01*
X0021327Y0105712D01*
X0021382Y0105735D01*
X0021439Y0105755D01*
X0021498Y0105771D01*
X0021557Y0105784D01*
X0021616Y0105793D01*
X0021677Y0105798D01*
X0021737Y0105800D01*
X0025737Y0105800D01*
X0026237Y0105300D01*
X0037363Y0105300D01*
X0037863Y0105800D01*
X0041863Y0105800D01*
X0041923Y0105798D01*
X0041984Y0105793D01*
X0042043Y0105784D01*
X0042102Y0105771D01*
X0042161Y0105755D01*
X0042218Y0105735D01*
X0042273Y0105712D01*
X0042328Y0105685D01*
X0042380Y0105656D01*
X0042431Y0105623D01*
X0042480Y0105587D01*
X0042526Y0105549D01*
X0042570Y0105507D01*
X0042612Y0105463D01*
X0042650Y0105417D01*
X0042686Y0105368D01*
X0042719Y0105317D01*
X0042748Y0105265D01*
X0042775Y0105210D01*
X0042798Y0105155D01*
X0042818Y0105098D01*
X0042834Y0105039D01*
X0042847Y0104980D01*
X0042856Y0104921D01*
X0042861Y0104860D01*
X0042863Y0104800D01*
X0042863Y0098800D01*
X0042861Y0098740D01*
X0042856Y0098679D01*
X0042847Y0098620D01*
X0042834Y0098561D01*
X0042818Y0098502D01*
X0042798Y0098445D01*
X0042775Y0098390D01*
X0042748Y0098335D01*
X0042719Y0098283D01*
X0042686Y0098232D01*
X0042650Y0098183D01*
X0042612Y0098137D01*
X0042570Y0098093D01*
X0042526Y0098051D01*
X0042480Y0098013D01*
X0042431Y0097977D01*
X0042380Y0097944D01*
X0042328Y0097915D01*
X0042273Y0097888D01*
X0042218Y0097865D01*
X0042161Y0097845D01*
X0042102Y0097829D01*
X0042043Y0097816D01*
X0041984Y0097807D01*
X0041923Y0097802D01*
X0041863Y0097800D01*
X0035432Y0103270D02*
X0032496Y0100334D01*
X0032496Y0099600D01*
X0030828Y0099600D02*
X0029360Y0101068D01*
X0030094Y0101068D02*
X0027892Y0101068D01*
X0027892Y0099600D02*
X0027892Y0104004D01*
X0030094Y0104004D01*
X0030828Y0103270D01*
X0030828Y0101802D01*
X0030094Y0101068D01*
X0032496Y0104004D02*
X0035432Y0104004D01*
X0035432Y0103270D01*
X0037863Y0112800D02*
X0041863Y0112800D01*
X0041923Y0112802D01*
X0041984Y0112807D01*
X0042043Y0112816D01*
X0042102Y0112829D01*
X0042161Y0112845D01*
X0042218Y0112865D01*
X0042273Y0112888D01*
X0042328Y0112915D01*
X0042380Y0112944D01*
X0042431Y0112977D01*
X0042480Y0113013D01*
X0042526Y0113051D01*
X0042570Y0113093D01*
X0042612Y0113137D01*
X0042650Y0113183D01*
X0042686Y0113232D01*
X0042719Y0113283D01*
X0042748Y0113335D01*
X0042775Y0113390D01*
X0042798Y0113445D01*
X0042818Y0113502D01*
X0042834Y0113561D01*
X0042847Y0113620D01*
X0042856Y0113679D01*
X0042861Y0113740D01*
X0042863Y0113800D01*
X0042863Y0119800D01*
X0042861Y0119860D01*
X0042856Y0119921D01*
X0042847Y0119980D01*
X0042834Y0120039D01*
X0042818Y0120098D01*
X0042798Y0120155D01*
X0042775Y0120210D01*
X0042748Y0120265D01*
X0042719Y0120317D01*
X0042686Y0120368D01*
X0042650Y0120417D01*
X0042612Y0120463D01*
X0042570Y0120507D01*
X0042526Y0120549D01*
X0042480Y0120587D01*
X0042431Y0120623D01*
X0042380Y0120656D01*
X0042328Y0120685D01*
X0042273Y0120712D01*
X0042218Y0120735D01*
X0042161Y0120755D01*
X0042102Y0120771D01*
X0042043Y0120784D01*
X0041984Y0120793D01*
X0041923Y0120798D01*
X0041863Y0120800D01*
X0037863Y0120800D01*
X0037363Y0120300D01*
X0026237Y0120300D01*
X0025737Y0120800D01*
X0021737Y0120800D01*
X0021677Y0120798D01*
X0021616Y0120793D01*
X0021557Y0120784D01*
X0021498Y0120771D01*
X0021439Y0120755D01*
X0021382Y0120735D01*
X0021327Y0120712D01*
X0021272Y0120685D01*
X0021220Y0120656D01*
X0021169Y0120623D01*
X0021120Y0120587D01*
X0021074Y0120549D01*
X0021030Y0120507D01*
X0020988Y0120463D01*
X0020950Y0120417D01*
X0020914Y0120368D01*
X0020881Y0120317D01*
X0020852Y0120265D01*
X0020825Y0120210D01*
X0020802Y0120155D01*
X0020782Y0120098D01*
X0020766Y0120039D01*
X0020753Y0119980D01*
X0020744Y0119921D01*
X0020739Y0119860D01*
X0020737Y0119800D01*
X0020737Y0113800D01*
X0020739Y0113740D01*
X0020744Y0113679D01*
X0020753Y0113620D01*
X0020766Y0113561D01*
X0020782Y0113502D01*
X0020802Y0113445D01*
X0020825Y0113390D01*
X0020852Y0113335D01*
X0020881Y0113283D01*
X0020914Y0113232D01*
X0020950Y0113183D01*
X0020988Y0113137D01*
X0021030Y0113093D01*
X0021074Y0113051D01*
X0021120Y0113013D01*
X0021169Y0112977D01*
X0021220Y0112944D01*
X0021272Y0112915D01*
X0021327Y0112888D01*
X0021382Y0112865D01*
X0021439Y0112845D01*
X0021498Y0112829D01*
X0021557Y0112816D01*
X0021616Y0112807D01*
X0021677Y0112802D01*
X0021737Y0112800D01*
X0025737Y0112800D01*
X0026237Y0113300D01*
X0037363Y0113300D01*
X0037863Y0112800D01*
X0034640Y0115334D02*
X0033906Y0114600D01*
X0032438Y0114600D01*
X0031704Y0115334D01*
X0030036Y0114600D02*
X0028568Y0116068D01*
X0029302Y0116068D02*
X0027100Y0116068D01*
X0027100Y0114600D02*
X0027100Y0119004D01*
X0029302Y0119004D01*
X0030036Y0118270D01*
X0030036Y0116802D01*
X0029302Y0116068D01*
X0031704Y0118270D02*
X0032438Y0119004D01*
X0033906Y0119004D01*
X0034640Y0118270D01*
X0034640Y0117536D01*
X0033906Y0116802D01*
X0034640Y0116068D01*
X0034640Y0115334D01*
X0033906Y0116802D02*
X0033172Y0116802D01*
X0037863Y0127800D02*
X0037363Y0128300D01*
X0026237Y0128300D01*
X0025737Y0127800D01*
X0021737Y0127800D01*
X0021677Y0127802D01*
X0021616Y0127807D01*
X0021557Y0127816D01*
X0021498Y0127829D01*
X0021439Y0127845D01*
X0021382Y0127865D01*
X0021327Y0127888D01*
X0021272Y0127915D01*
X0021220Y0127944D01*
X0021169Y0127977D01*
X0021120Y0128013D01*
X0021074Y0128051D01*
X0021030Y0128093D01*
X0020988Y0128137D01*
X0020950Y0128183D01*
X0020914Y0128232D01*
X0020881Y0128283D01*
X0020852Y0128335D01*
X0020825Y0128390D01*
X0020802Y0128445D01*
X0020782Y0128502D01*
X0020766Y0128561D01*
X0020753Y0128620D01*
X0020744Y0128679D01*
X0020739Y0128740D01*
X0020737Y0128800D01*
X0020737Y0134800D01*
X0020739Y0134860D01*
X0020744Y0134921D01*
X0020753Y0134980D01*
X0020766Y0135039D01*
X0020782Y0135098D01*
X0020802Y0135155D01*
X0020825Y0135210D01*
X0020852Y0135265D01*
X0020881Y0135317D01*
X0020914Y0135368D01*
X0020950Y0135417D01*
X0020988Y0135463D01*
X0021030Y0135507D01*
X0021074Y0135549D01*
X0021120Y0135587D01*
X0021169Y0135623D01*
X0021220Y0135656D01*
X0021272Y0135685D01*
X0021327Y0135712D01*
X0021382Y0135735D01*
X0021439Y0135755D01*
X0021498Y0135771D01*
X0021557Y0135784D01*
X0021616Y0135793D01*
X0021677Y0135798D01*
X0021737Y0135800D01*
X0025737Y0135800D01*
X0026237Y0135300D01*
X0037363Y0135300D01*
X0037863Y0135800D01*
X0041863Y0135800D01*
X0041923Y0135798D01*
X0041984Y0135793D01*
X0042043Y0135784D01*
X0042102Y0135771D01*
X0042161Y0135755D01*
X0042218Y0135735D01*
X0042273Y0135712D01*
X0042328Y0135685D01*
X0042380Y0135656D01*
X0042431Y0135623D01*
X0042480Y0135587D01*
X0042526Y0135549D01*
X0042570Y0135507D01*
X0042612Y0135463D01*
X0042650Y0135417D01*
X0042686Y0135368D01*
X0042719Y0135317D01*
X0042748Y0135265D01*
X0042775Y0135210D01*
X0042798Y0135155D01*
X0042818Y0135098D01*
X0042834Y0135039D01*
X0042847Y0134980D01*
X0042856Y0134921D01*
X0042861Y0134860D01*
X0042863Y0134800D01*
X0042863Y0128800D01*
X0042861Y0128740D01*
X0042856Y0128679D01*
X0042847Y0128620D01*
X0042834Y0128561D01*
X0042818Y0128502D01*
X0042798Y0128445D01*
X0042775Y0128390D01*
X0042748Y0128335D01*
X0042719Y0128283D01*
X0042686Y0128232D01*
X0042650Y0128183D01*
X0042612Y0128137D01*
X0042570Y0128093D01*
X0042526Y0128051D01*
X0042480Y0128013D01*
X0042431Y0127977D01*
X0042380Y0127944D01*
X0042328Y0127915D01*
X0042273Y0127888D01*
X0042218Y0127865D01*
X0042161Y0127845D01*
X0042102Y0127829D01*
X0042043Y0127816D01*
X0041984Y0127807D01*
X0041923Y0127802D01*
X0041863Y0127800D01*
X0037863Y0127800D01*
X0034698Y0129600D02*
X0034698Y0134004D01*
X0032496Y0131802D01*
X0035432Y0131802D01*
X0030828Y0131802D02*
X0030094Y0131068D01*
X0027892Y0131068D01*
X0027892Y0129600D02*
X0027892Y0134004D01*
X0030094Y0134004D01*
X0030828Y0133270D01*
X0030828Y0131802D01*
X0029360Y0131068D02*
X0030828Y0129600D01*
X0040973Y0144910D02*
X0012627Y0144910D01*
X0012627Y0158690D01*
X0040973Y0158690D01*
X0040973Y0144910D01*
X0062800Y0147863D02*
X0063300Y0147363D01*
X0063300Y0136237D01*
X0062800Y0135737D01*
X0062800Y0131737D01*
X0062802Y0131677D01*
X0062807Y0131616D01*
X0062816Y0131557D01*
X0062829Y0131498D01*
X0062845Y0131439D01*
X0062865Y0131382D01*
X0062888Y0131327D01*
X0062915Y0131272D01*
X0062944Y0131220D01*
X0062977Y0131169D01*
X0063013Y0131120D01*
X0063051Y0131074D01*
X0063093Y0131030D01*
X0063137Y0130988D01*
X0063183Y0130950D01*
X0063232Y0130914D01*
X0063283Y0130881D01*
X0063335Y0130852D01*
X0063390Y0130825D01*
X0063445Y0130802D01*
X0063502Y0130782D01*
X0063561Y0130766D01*
X0063620Y0130753D01*
X0063679Y0130744D01*
X0063740Y0130739D01*
X0063800Y0130737D01*
X0069800Y0130737D01*
X0069860Y0130739D01*
X0069921Y0130744D01*
X0069980Y0130753D01*
X0070039Y0130766D01*
X0070098Y0130782D01*
X0070155Y0130802D01*
X0070210Y0130825D01*
X0070265Y0130852D01*
X0070317Y0130881D01*
X0070368Y0130914D01*
X0070417Y0130950D01*
X0070463Y0130988D01*
X0070507Y0131030D01*
X0070549Y0131074D01*
X0070587Y0131120D01*
X0070623Y0131169D01*
X0070656Y0131220D01*
X0070685Y0131272D01*
X0070712Y0131327D01*
X0070735Y0131382D01*
X0070755Y0131439D01*
X0070771Y0131498D01*
X0070784Y0131557D01*
X0070793Y0131616D01*
X0070798Y0131677D01*
X0070800Y0131737D01*
X0070800Y0135737D01*
X0070300Y0136237D01*
X0070300Y0147363D01*
X0070800Y0147863D01*
X0070800Y0151863D01*
X0070798Y0151923D01*
X0070793Y0151984D01*
X0070784Y0152043D01*
X0070771Y0152102D01*
X0070755Y0152161D01*
X0070735Y0152218D01*
X0070712Y0152273D01*
X0070685Y0152328D01*
X0070656Y0152380D01*
X0070623Y0152431D01*
X0070587Y0152480D01*
X0070549Y0152526D01*
X0070507Y0152570D01*
X0070463Y0152612D01*
X0070417Y0152650D01*
X0070368Y0152686D01*
X0070317Y0152719D01*
X0070265Y0152748D01*
X0070210Y0152775D01*
X0070155Y0152798D01*
X0070098Y0152818D01*
X0070039Y0152834D01*
X0069980Y0152847D01*
X0069921Y0152856D01*
X0069860Y0152861D01*
X0069800Y0152863D01*
X0063800Y0152863D01*
X0063740Y0152861D01*
X0063679Y0152856D01*
X0063620Y0152847D01*
X0063561Y0152834D01*
X0063502Y0152818D01*
X0063445Y0152798D01*
X0063390Y0152775D01*
X0063335Y0152748D01*
X0063283Y0152719D01*
X0063232Y0152686D01*
X0063183Y0152650D01*
X0063137Y0152612D01*
X0063093Y0152570D01*
X0063051Y0152526D01*
X0063013Y0152480D01*
X0062977Y0152431D01*
X0062944Y0152380D01*
X0062915Y0152328D01*
X0062888Y0152273D01*
X0062865Y0152218D01*
X0062845Y0152161D01*
X0062829Y0152102D01*
X0062816Y0152043D01*
X0062807Y0151984D01*
X0062802Y0151923D01*
X0062800Y0151863D01*
X0062800Y0147863D01*
X0064596Y0145432D02*
X0064596Y0142496D01*
X0066798Y0142496D01*
X0066064Y0143964D01*
X0066064Y0144698D01*
X0066798Y0145432D01*
X0068266Y0145432D01*
X0069000Y0144698D01*
X0069000Y0143230D01*
X0068266Y0142496D01*
X0069000Y0140828D02*
X0067532Y0139360D01*
X0067532Y0140094D02*
X0066798Y0140828D01*
X0065330Y0140828D01*
X0064596Y0140094D01*
X0064596Y0137892D01*
X0069000Y0137892D01*
X0067532Y0137892D02*
X0067532Y0140094D01*
X0101957Y0111800D02*
X0101960Y0112042D01*
X0101969Y0112283D01*
X0101984Y0112524D01*
X0102004Y0112765D01*
X0102031Y0113005D01*
X0102064Y0113244D01*
X0102102Y0113483D01*
X0102146Y0113720D01*
X0102196Y0113957D01*
X0102252Y0114192D01*
X0102314Y0114425D01*
X0102381Y0114657D01*
X0102454Y0114888D01*
X0102532Y0115116D01*
X0102617Y0115342D01*
X0102706Y0115567D01*
X0102801Y0115789D01*
X0102902Y0116008D01*
X0103008Y0116226D01*
X0103119Y0116440D01*
X0103236Y0116652D01*
X0103357Y0116860D01*
X0103484Y0117066D01*
X0103616Y0117268D01*
X0103753Y0117468D01*
X0103894Y0117663D01*
X0104040Y0117856D01*
X0104191Y0118044D01*
X0104347Y0118229D01*
X0104507Y0118410D01*
X0104671Y0118587D01*
X0104840Y0118760D01*
X0105013Y0118929D01*
X0105190Y0119093D01*
X0105371Y0119253D01*
X0105556Y0119409D01*
X0105744Y0119560D01*
X0105937Y0119706D01*
X0106132Y0119847D01*
X0106332Y0119984D01*
X0106534Y0120116D01*
X0106740Y0120243D01*
X0106948Y0120364D01*
X0107160Y0120481D01*
X0107374Y0120592D01*
X0107592Y0120698D01*
X0107811Y0120799D01*
X0108033Y0120894D01*
X0108258Y0120983D01*
X0108484Y0121068D01*
X0108712Y0121146D01*
X0108943Y0121219D01*
X0109175Y0121286D01*
X0109408Y0121348D01*
X0109643Y0121404D01*
X0109880Y0121454D01*
X0110117Y0121498D01*
X0110356Y0121536D01*
X0110595Y0121569D01*
X0110835Y0121596D01*
X0111076Y0121616D01*
X0111317Y0121631D01*
X0111558Y0121640D01*
X0111800Y0121643D01*
X0112042Y0121640D01*
X0112283Y0121631D01*
X0112524Y0121616D01*
X0112765Y0121596D01*
X0113005Y0121569D01*
X0113244Y0121536D01*
X0113483Y0121498D01*
X0113720Y0121454D01*
X0113957Y0121404D01*
X0114192Y0121348D01*
X0114425Y0121286D01*
X0114657Y0121219D01*
X0114888Y0121146D01*
X0115116Y0121068D01*
X0115342Y0120983D01*
X0115567Y0120894D01*
X0115789Y0120799D01*
X0116008Y0120698D01*
X0116226Y0120592D01*
X0116440Y0120481D01*
X0116652Y0120364D01*
X0116860Y0120243D01*
X0117066Y0120116D01*
X0117268Y0119984D01*
X0117468Y0119847D01*
X0117663Y0119706D01*
X0117856Y0119560D01*
X0118044Y0119409D01*
X0118229Y0119253D01*
X0118410Y0119093D01*
X0118587Y0118929D01*
X0118760Y0118760D01*
X0118929Y0118587D01*
X0119093Y0118410D01*
X0119253Y0118229D01*
X0119409Y0118044D01*
X0119560Y0117856D01*
X0119706Y0117663D01*
X0119847Y0117468D01*
X0119984Y0117268D01*
X0120116Y0117066D01*
X0120243Y0116860D01*
X0120364Y0116652D01*
X0120481Y0116440D01*
X0120592Y0116226D01*
X0120698Y0116008D01*
X0120799Y0115789D01*
X0120894Y0115567D01*
X0120983Y0115342D01*
X0121068Y0115116D01*
X0121146Y0114888D01*
X0121219Y0114657D01*
X0121286Y0114425D01*
X0121348Y0114192D01*
X0121404Y0113957D01*
X0121454Y0113720D01*
X0121498Y0113483D01*
X0121536Y0113244D01*
X0121569Y0113005D01*
X0121596Y0112765D01*
X0121616Y0112524D01*
X0121631Y0112283D01*
X0121640Y0112042D01*
X0121643Y0111800D01*
X0121640Y0111558D01*
X0121631Y0111317D01*
X0121616Y0111076D01*
X0121596Y0110835D01*
X0121569Y0110595D01*
X0121536Y0110356D01*
X0121498Y0110117D01*
X0121454Y0109880D01*
X0121404Y0109643D01*
X0121348Y0109408D01*
X0121286Y0109175D01*
X0121219Y0108943D01*
X0121146Y0108712D01*
X0121068Y0108484D01*
X0120983Y0108258D01*
X0120894Y0108033D01*
X0120799Y0107811D01*
X0120698Y0107592D01*
X0120592Y0107374D01*
X0120481Y0107160D01*
X0120364Y0106948D01*
X0120243Y0106740D01*
X0120116Y0106534D01*
X0119984Y0106332D01*
X0119847Y0106132D01*
X0119706Y0105937D01*
X0119560Y0105744D01*
X0119409Y0105556D01*
X0119253Y0105371D01*
X0119093Y0105190D01*
X0118929Y0105013D01*
X0118760Y0104840D01*
X0118587Y0104671D01*
X0118410Y0104507D01*
X0118229Y0104347D01*
X0118044Y0104191D01*
X0117856Y0104040D01*
X0117663Y0103894D01*
X0117468Y0103753D01*
X0117268Y0103616D01*
X0117066Y0103484D01*
X0116860Y0103357D01*
X0116652Y0103236D01*
X0116440Y0103119D01*
X0116226Y0103008D01*
X0116008Y0102902D01*
X0115789Y0102801D01*
X0115567Y0102706D01*
X0115342Y0102617D01*
X0115116Y0102532D01*
X0114888Y0102454D01*
X0114657Y0102381D01*
X0114425Y0102314D01*
X0114192Y0102252D01*
X0113957Y0102196D01*
X0113720Y0102146D01*
X0113483Y0102102D01*
X0113244Y0102064D01*
X0113005Y0102031D01*
X0112765Y0102004D01*
X0112524Y0101984D01*
X0112283Y0101969D01*
X0112042Y0101960D01*
X0111800Y0101957D01*
X0111558Y0101960D01*
X0111317Y0101969D01*
X0111076Y0101984D01*
X0110835Y0102004D01*
X0110595Y0102031D01*
X0110356Y0102064D01*
X0110117Y0102102D01*
X0109880Y0102146D01*
X0109643Y0102196D01*
X0109408Y0102252D01*
X0109175Y0102314D01*
X0108943Y0102381D01*
X0108712Y0102454D01*
X0108484Y0102532D01*
X0108258Y0102617D01*
X0108033Y0102706D01*
X0107811Y0102801D01*
X0107592Y0102902D01*
X0107374Y0103008D01*
X0107160Y0103119D01*
X0106948Y0103236D01*
X0106740Y0103357D01*
X0106534Y0103484D01*
X0106332Y0103616D01*
X0106132Y0103753D01*
X0105937Y0103894D01*
X0105744Y0104040D01*
X0105556Y0104191D01*
X0105371Y0104347D01*
X0105190Y0104507D01*
X0105013Y0104671D01*
X0104840Y0104840D01*
X0104671Y0105013D01*
X0104507Y0105190D01*
X0104347Y0105371D01*
X0104191Y0105556D01*
X0104040Y0105744D01*
X0103894Y0105937D01*
X0103753Y0106132D01*
X0103616Y0106332D01*
X0103484Y0106534D01*
X0103357Y0106740D01*
X0103236Y0106948D01*
X0103119Y0107160D01*
X0103008Y0107374D01*
X0102902Y0107592D01*
X0102801Y0107811D01*
X0102706Y0108033D01*
X0102617Y0108258D01*
X0102532Y0108484D01*
X0102454Y0108712D01*
X0102381Y0108943D01*
X0102314Y0109175D01*
X0102252Y0109408D01*
X0102196Y0109643D01*
X0102146Y0109880D01*
X0102102Y0110117D01*
X0102064Y0110356D01*
X0102031Y0110595D01*
X0102004Y0110835D01*
X0101984Y0111076D01*
X0101969Y0111317D01*
X0101960Y0111558D01*
X0101957Y0111800D01*
X0115000Y0106400D02*
X0117600Y0106400D01*
X0116300Y0105200D02*
X0116300Y0107700D01*
X0191596Y0018244D02*
X0194532Y0018244D01*
X0196000Y0016776D01*
X0194532Y0015308D01*
X0191596Y0015308D01*
X0192330Y0013640D02*
X0191596Y0012906D01*
X0191596Y0011438D01*
X0192330Y0010704D01*
X0193064Y0010704D01*
X0193798Y0011438D01*
X0193798Y0013640D01*
X0195266Y0013640D02*
X0192330Y0013640D01*
X0195266Y0013640D02*
X0196000Y0012906D01*
X0196000Y0011438D01*
X0195266Y0010704D01*
X0193798Y0009036D02*
X0193798Y0006100D01*
X0192330Y0007568D02*
X0195266Y0007568D01*
X0165036Y0010334D02*
X0165036Y0011802D01*
X0163568Y0011802D01*
X0165036Y0013270D02*
X0164302Y0014004D01*
X0162834Y0014004D01*
X0162100Y0013270D01*
X0162100Y0010334D01*
X0162834Y0009600D01*
X0164302Y0009600D01*
X0165036Y0010334D01*
D13*
X0137788Y0044991D02*
X0138372Y0045575D01*
X0138372Y0047910D01*
X0137788Y0048494D01*
X0136620Y0048494D01*
X0136036Y0047910D01*
X0136036Y0047326D01*
X0136620Y0046742D01*
X0138372Y0046742D01*
X0137788Y0044991D02*
X0136620Y0044991D01*
X0136036Y0045575D01*
X0134688Y0045575D02*
X0134105Y0044991D01*
X0132937Y0044991D01*
X0132353Y0045575D01*
X0132353Y0047910D01*
X0132937Y0048494D01*
X0134105Y0048494D01*
X0134688Y0047910D01*
X0135300Y0062800D02*
X0139831Y0062800D01*
X0143769Y0062800D02*
X0148300Y0062800D01*
X0148300Y0067331D01*
X0148300Y0071269D02*
X0148300Y0075800D01*
X0143769Y0075800D01*
X0139831Y0075800D02*
X0135300Y0075800D01*
X0135300Y0071269D01*
X0135300Y0067331D02*
X0135300Y0062800D01*
X0155300Y0062800D02*
X0159831Y0062800D01*
X0163769Y0062800D02*
X0168300Y0062800D01*
X0168300Y0067331D01*
X0168300Y0071269D02*
X0168300Y0075800D01*
X0163769Y0075800D01*
X0159831Y0075800D02*
X0155300Y0075800D01*
X0155300Y0071269D01*
X0155300Y0067331D02*
X0155300Y0062800D01*
X0175300Y0062800D02*
X0179831Y0062800D01*
X0183769Y0062800D02*
X0188300Y0062800D01*
X0188300Y0067331D01*
X0188300Y0071269D02*
X0188300Y0075800D01*
X0183769Y0075800D01*
X0179831Y0075800D02*
X0175300Y0075800D01*
X0175300Y0071269D01*
X0175300Y0067331D02*
X0175300Y0062800D01*
X0107300Y0016800D02*
X0097300Y0016800D01*
X0097224Y0016802D01*
X0097148Y0016808D01*
X0097073Y0016817D01*
X0096998Y0016831D01*
X0096924Y0016848D01*
X0096851Y0016869D01*
X0096779Y0016893D01*
X0096708Y0016922D01*
X0096639Y0016953D01*
X0096572Y0016988D01*
X0096507Y0017027D01*
X0096443Y0017069D01*
X0096382Y0017114D01*
X0096323Y0017162D01*
X0096267Y0017213D01*
X0096213Y0017267D01*
X0096162Y0017323D01*
X0096114Y0017382D01*
X0096069Y0017443D01*
X0096027Y0017507D01*
X0095988Y0017572D01*
X0095953Y0017639D01*
X0095922Y0017708D01*
X0095893Y0017779D01*
X0095869Y0017851D01*
X0095848Y0017924D01*
X0095831Y0017998D01*
X0095817Y0018073D01*
X0095808Y0018148D01*
X0095802Y0018224D01*
X0095800Y0018300D01*
X0095800Y0018800D01*
X0091800Y0018800D01*
X0091800Y0005300D01*
X0095800Y0005300D01*
X0095802Y0005376D01*
X0095808Y0005452D01*
X0095817Y0005527D01*
X0095831Y0005602D01*
X0095848Y0005676D01*
X0095869Y0005749D01*
X0095893Y0005821D01*
X0095922Y0005892D01*
X0095953Y0005961D01*
X0095988Y0006028D01*
X0096027Y0006093D01*
X0096069Y0006157D01*
X0096114Y0006218D01*
X0096162Y0006277D01*
X0096213Y0006333D01*
X0096267Y0006387D01*
X0096323Y0006438D01*
X0096382Y0006486D01*
X0096443Y0006531D01*
X0096507Y0006573D01*
X0096572Y0006612D01*
X0096639Y0006647D01*
X0096708Y0006678D01*
X0096779Y0006707D01*
X0096851Y0006731D01*
X0096924Y0006752D01*
X0096998Y0006769D01*
X0097073Y0006783D01*
X0097148Y0006792D01*
X0097224Y0006798D01*
X0097300Y0006800D01*
X0107300Y0006800D01*
X0112300Y0011800D02*
X0112298Y0011940D01*
X0112292Y0012080D01*
X0112282Y0012220D01*
X0112269Y0012360D01*
X0112251Y0012499D01*
X0112229Y0012638D01*
X0112204Y0012775D01*
X0112175Y0012913D01*
X0112142Y0013049D01*
X0112105Y0013184D01*
X0112064Y0013318D01*
X0112019Y0013451D01*
X0111971Y0013583D01*
X0111919Y0013713D01*
X0111864Y0013842D01*
X0111805Y0013969D01*
X0111742Y0014095D01*
X0111676Y0014219D01*
X0111607Y0014340D01*
X0111534Y0014460D01*
X0111457Y0014578D01*
X0111378Y0014693D01*
X0111295Y0014807D01*
X0111209Y0014917D01*
X0111120Y0015026D01*
X0111028Y0015132D01*
X0110933Y0015235D01*
X0110836Y0015336D01*
X0110735Y0015433D01*
X0110632Y0015528D01*
X0110526Y0015620D01*
X0110417Y0015709D01*
X0110307Y0015795D01*
X0110193Y0015878D01*
X0110078Y0015957D01*
X0109960Y0016034D01*
X0109840Y0016107D01*
X0109719Y0016176D01*
X0109595Y0016242D01*
X0109469Y0016305D01*
X0109342Y0016364D01*
X0109213Y0016419D01*
X0109083Y0016471D01*
X0108951Y0016519D01*
X0108818Y0016564D01*
X0108684Y0016605D01*
X0108549Y0016642D01*
X0108413Y0016675D01*
X0108275Y0016704D01*
X0108138Y0016729D01*
X0107999Y0016751D01*
X0107860Y0016769D01*
X0107720Y0016782D01*
X0107580Y0016792D01*
X0107440Y0016798D01*
X0107300Y0016800D01*
X0112300Y0011800D02*
X0112298Y0011660D01*
X0112292Y0011520D01*
X0112282Y0011380D01*
X0112269Y0011240D01*
X0112251Y0011101D01*
X0112229Y0010962D01*
X0112204Y0010825D01*
X0112175Y0010687D01*
X0112142Y0010551D01*
X0112105Y0010416D01*
X0112064Y0010282D01*
X0112019Y0010149D01*
X0111971Y0010017D01*
X0111919Y0009887D01*
X0111864Y0009758D01*
X0111805Y0009631D01*
X0111742Y0009505D01*
X0111676Y0009381D01*
X0111607Y0009260D01*
X0111534Y0009140D01*
X0111457Y0009022D01*
X0111378Y0008907D01*
X0111295Y0008793D01*
X0111209Y0008683D01*
X0111120Y0008574D01*
X0111028Y0008468D01*
X0110933Y0008365D01*
X0110836Y0008264D01*
X0110735Y0008167D01*
X0110632Y0008072D01*
X0110526Y0007980D01*
X0110417Y0007891D01*
X0110307Y0007805D01*
X0110193Y0007722D01*
X0110078Y0007643D01*
X0109960Y0007566D01*
X0109840Y0007493D01*
X0109719Y0007424D01*
X0109595Y0007358D01*
X0109469Y0007295D01*
X0109342Y0007236D01*
X0109213Y0007181D01*
X0109083Y0007129D01*
X0108951Y0007081D01*
X0108818Y0007036D01*
X0108684Y0006995D01*
X0108549Y0006958D01*
X0108413Y0006925D01*
X0108275Y0006896D01*
X0108138Y0006871D01*
X0107999Y0006849D01*
X0107860Y0006831D01*
X0107720Y0006818D01*
X0107580Y0006808D01*
X0107440Y0006802D01*
X0107300Y0006800D01*
X0060550Y0043768D02*
X0059966Y0043184D01*
X0057631Y0043184D01*
X0057047Y0043768D01*
X0057047Y0044935D01*
X0057631Y0045519D01*
X0059966Y0045519D01*
X0060550Y0044935D01*
X0060550Y0043768D01*
X0059382Y0044351D02*
X0060550Y0045519D01*
X0060550Y0046867D02*
X0060550Y0049202D01*
X0060550Y0048035D02*
X0057047Y0048035D01*
X0058215Y0046867D01*
X0059831Y0062800D02*
X0055300Y0062800D01*
X0055300Y0067331D01*
X0055300Y0071269D02*
X0055300Y0075800D01*
X0059831Y0075800D01*
X0063769Y0075800D02*
X0068300Y0075800D01*
X0068300Y0071269D01*
X0068300Y0067331D02*
X0068300Y0062800D01*
X0063769Y0062800D01*
X0048300Y0062800D02*
X0048300Y0067331D01*
X0048300Y0062800D02*
X0043769Y0062800D01*
X0039831Y0062800D02*
X0035300Y0062800D01*
X0035300Y0067331D01*
X0035300Y0071269D02*
X0035300Y0075800D01*
X0039831Y0075800D01*
X0043769Y0075800D02*
X0048300Y0075800D01*
X0048300Y0071269D01*
X0033372Y0085575D02*
X0033372Y0086159D01*
X0032788Y0086742D01*
X0031036Y0086742D01*
X0031036Y0085575D01*
X0031620Y0084991D01*
X0032788Y0084991D01*
X0033372Y0085575D01*
X0032204Y0087910D02*
X0031036Y0086742D01*
X0032204Y0087910D02*
X0033372Y0088494D01*
X0029688Y0087910D02*
X0029105Y0088494D01*
X0027937Y0088494D01*
X0027353Y0087910D01*
X0027353Y0085575D01*
X0027937Y0084991D01*
X0029105Y0084991D01*
X0029688Y0085575D01*
X0028300Y0075800D02*
X0023769Y0075800D01*
X0019831Y0075800D02*
X0015300Y0075800D01*
X0015300Y0071269D01*
X0015300Y0067331D02*
X0015300Y0062800D01*
X0019831Y0062800D01*
X0023769Y0062800D02*
X0028300Y0062800D01*
X0028300Y0067331D01*
X0028300Y0071269D02*
X0028300Y0075800D01*
X0028648Y0053612D02*
X0028064Y0053028D01*
X0028648Y0053612D02*
X0029815Y0053612D01*
X0030399Y0053028D01*
X0030399Y0052444D01*
X0029815Y0051861D01*
X0030399Y0051277D01*
X0030399Y0050693D01*
X0029815Y0050109D01*
X0028648Y0050109D01*
X0028064Y0050693D01*
X0026716Y0050693D02*
X0026132Y0050109D01*
X0024964Y0050109D01*
X0024381Y0050693D01*
X0024381Y0053028D01*
X0024964Y0053612D01*
X0026132Y0053612D01*
X0026716Y0053028D01*
X0029231Y0051861D02*
X0029815Y0051861D01*
X0038491Y0030399D02*
X0038491Y0028064D01*
X0038491Y0029231D02*
X0034988Y0029231D01*
X0036156Y0028064D01*
X0035572Y0026716D02*
X0034988Y0026132D01*
X0034988Y0024964D01*
X0035572Y0024381D01*
X0037907Y0024381D01*
X0038491Y0024964D01*
X0038491Y0026132D01*
X0037907Y0026716D01*
X0074964Y0095109D02*
X0076132Y0095109D01*
X0076716Y0095693D01*
X0078064Y0095693D02*
X0078064Y0095109D01*
X0078064Y0095693D02*
X0080399Y0098028D01*
X0080399Y0098612D01*
X0078064Y0098612D01*
X0076716Y0098028D02*
X0076132Y0098612D01*
X0074964Y0098612D01*
X0074381Y0098028D01*
X0074381Y0095693D01*
X0074964Y0095109D01*
X0074964Y0110109D02*
X0076132Y0110109D01*
X0076716Y0110693D01*
X0078064Y0110693D02*
X0078064Y0111277D01*
X0078648Y0111861D01*
X0079815Y0111861D01*
X0080399Y0111277D01*
X0080399Y0110693D01*
X0079815Y0110109D01*
X0078648Y0110109D01*
X0078064Y0110693D01*
X0078648Y0111861D02*
X0078064Y0112444D01*
X0078064Y0113028D01*
X0078648Y0113612D01*
X0079815Y0113612D01*
X0080399Y0113028D01*
X0080399Y0112444D01*
X0079815Y0111861D01*
X0076716Y0113028D02*
X0076132Y0113612D01*
X0074964Y0113612D01*
X0074381Y0113028D01*
X0074381Y0110693D01*
X0074964Y0110109D01*
X0075300Y0125300D02*
X0075300Y0129831D01*
X0075300Y0133769D02*
X0075300Y0138300D01*
X0079831Y0138300D01*
X0083769Y0138300D02*
X0088300Y0138300D01*
X0088300Y0133769D01*
X0088300Y0129831D02*
X0088300Y0125300D01*
X0083769Y0125300D01*
X0079831Y0125300D02*
X0075300Y0125300D01*
X0095300Y0125300D02*
X0095300Y0129831D01*
X0095300Y0133769D02*
X0095300Y0138300D01*
X0099831Y0138300D01*
X0103769Y0138300D02*
X0108300Y0138300D01*
X0108300Y0133769D01*
X0108300Y0129831D02*
X0108300Y0125300D01*
X0103769Y0125300D01*
X0099831Y0125300D02*
X0095300Y0125300D01*
X0115300Y0125300D02*
X0115300Y0129831D01*
X0115300Y0133769D02*
X0115300Y0138300D01*
X0119831Y0138300D01*
X0123769Y0138300D02*
X0128300Y0138300D01*
X0128300Y0133769D01*
X0128300Y0129831D02*
X0128300Y0125300D01*
X0123769Y0125300D01*
X0119831Y0125300D02*
X0115300Y0125300D01*
X0106800Y0144800D02*
X0103769Y0144800D01*
X0099831Y0144800D02*
X0096800Y0144800D01*
X0096800Y0148842D01*
X0094050Y0150634D02*
X0093466Y0150050D01*
X0094050Y0150634D02*
X0094050Y0151801D01*
X0093466Y0152385D01*
X0092882Y0152385D01*
X0092299Y0151801D01*
X0092299Y0150634D01*
X0091715Y0150050D01*
X0091131Y0150050D01*
X0090547Y0150634D01*
X0090547Y0151801D01*
X0091131Y0152385D01*
X0090547Y0153733D02*
X0094050Y0153733D01*
X0092882Y0154901D01*
X0094050Y0156068D01*
X0090547Y0156068D01*
X0091715Y0157416D02*
X0090547Y0158584D01*
X0094050Y0158584D01*
X0094050Y0157416D02*
X0094050Y0159752D01*
X0096800Y0160758D02*
X0096800Y0164800D01*
X0099831Y0164800D01*
X0103769Y0164800D02*
X0106800Y0164800D01*
X0106800Y0160758D01*
X0106800Y0156821D02*
X0106800Y0152779D01*
X0106800Y0148842D02*
X0106800Y0144800D01*
X0096800Y0152779D02*
X0096800Y0156821D01*
X0028372Y0152910D02*
X0027788Y0153494D01*
X0026620Y0153494D01*
X0026036Y0152910D01*
X0024688Y0152910D02*
X0024105Y0153494D01*
X0022937Y0153494D01*
X0022353Y0152910D01*
X0022353Y0150575D01*
X0022937Y0149991D01*
X0024105Y0149991D01*
X0024688Y0150575D01*
X0026036Y0149991D02*
X0028372Y0152326D01*
X0028372Y0152910D01*
X0028372Y0149991D02*
X0026036Y0149991D01*
D14*
X0108607Y0119135D02*
X0108607Y0117267D01*
X0109074Y0116800D01*
X0110008Y0116800D01*
X0110475Y0117267D01*
X0111553Y0118201D02*
X0113422Y0118201D01*
X0112955Y0116800D02*
X0112955Y0119602D01*
X0111553Y0118201D01*
X0110475Y0119135D02*
X0110008Y0119602D01*
X0109074Y0119602D01*
X0108607Y0119135D01*
X0124465Y0145660D02*
X0123998Y0146128D01*
X0123998Y0147062D01*
X0124465Y0147529D01*
X0124932Y0148607D02*
X0123998Y0149541D01*
X0126800Y0149541D01*
X0126800Y0148607D02*
X0126800Y0150475D01*
X0126800Y0151553D02*
X0126800Y0153422D01*
X0126800Y0152488D02*
X0123998Y0152488D01*
X0124932Y0151553D01*
X0126333Y0147529D02*
X0126800Y0147062D01*
X0126800Y0146128D01*
X0126333Y0145660D01*
X0124465Y0145660D01*
X0114133Y0089315D02*
X0113199Y0089315D01*
X0112732Y0088848D01*
X0112732Y0088381D01*
X0113199Y0087447D01*
X0111798Y0087447D01*
X0111798Y0089315D01*
X0112265Y0086368D02*
X0111798Y0085901D01*
X0111798Y0084967D01*
X0112265Y0084500D01*
X0114133Y0084500D01*
X0114600Y0084967D01*
X0114600Y0085901D01*
X0114133Y0086368D01*
X0114133Y0087447D02*
X0114600Y0087914D01*
X0114600Y0088848D01*
X0114133Y0089315D01*
X0111794Y0051802D02*
X0112261Y0051335D01*
X0110393Y0049467D01*
X0110860Y0049000D01*
X0111794Y0049000D01*
X0112261Y0049467D01*
X0112261Y0051335D01*
X0111794Y0051802D02*
X0110860Y0051802D01*
X0110393Y0051335D01*
X0110393Y0049467D01*
X0109315Y0049000D02*
X0107447Y0049000D01*
X0108381Y0049000D02*
X0108381Y0051802D01*
X0107447Y0050868D01*
X0106368Y0051335D02*
X0105901Y0051802D01*
X0104967Y0051802D01*
X0104500Y0051335D01*
X0104500Y0049467D01*
X0104967Y0049000D01*
X0105901Y0049000D01*
X0106368Y0049467D01*
D15*
X0044622Y0040174D02*
X0045020Y0040539D01*
X0045019Y0040539D02*
X0045174Y0040375D01*
X0045333Y0040215D01*
X0045496Y0040059D01*
X0045663Y0039907D01*
X0045833Y0039759D01*
X0046007Y0039616D01*
X0046184Y0039476D01*
X0046365Y0039341D01*
X0046549Y0039210D01*
X0046736Y0039084D01*
X0046926Y0038963D01*
X0047119Y0038846D01*
X0047314Y0038734D01*
X0047513Y0038627D01*
X0047714Y0038525D01*
X0047917Y0038427D01*
X0048123Y0038335D01*
X0048331Y0038248D01*
X0048541Y0038165D01*
X0048753Y0038088D01*
X0048967Y0038017D01*
X0049182Y0037950D01*
X0049399Y0037889D01*
X0049618Y0037833D01*
X0049838Y0037782D01*
X0050059Y0037737D01*
X0050281Y0037697D01*
X0050504Y0037663D01*
X0050727Y0037634D01*
X0050952Y0037610D01*
X0051176Y0037592D01*
X0051402Y0037580D01*
X0051627Y0037573D01*
X0051853Y0037571D01*
X0052078Y0037575D01*
X0052303Y0037585D01*
X0052528Y0037600D01*
X0052753Y0037620D01*
X0052977Y0037646D01*
X0053200Y0037678D01*
X0053423Y0037715D01*
X0053644Y0037757D01*
X0053865Y0037805D01*
X0054084Y0037858D01*
X0054302Y0037917D01*
X0054518Y0037980D01*
X0054733Y0038049D01*
X0054946Y0038124D01*
X0055157Y0038203D01*
X0055366Y0038288D01*
X0055573Y0038377D01*
X0055778Y0038472D01*
X0055980Y0038572D01*
X0056180Y0038676D01*
X0056377Y0038786D01*
X0056572Y0038900D01*
X0056763Y0039019D01*
X0056952Y0039143D01*
X0057137Y0039271D01*
X0057320Y0039403D01*
X0057499Y0039541D01*
X0057675Y0039682D01*
X0057847Y0039828D01*
X0058015Y0039977D01*
X0058180Y0040131D01*
X0058341Y0040289D01*
X0058499Y0040451D01*
X0058652Y0040617D01*
X0058801Y0040786D01*
X0058946Y0040959D01*
X0059086Y0041135D01*
X0059223Y0041315D01*
X0059354Y0041498D01*
X0059482Y0041684D01*
X0059604Y0041873D01*
X0059723Y0042065D01*
X0059836Y0042260D01*
X0059944Y0042458D01*
X0060048Y0042658D01*
X0060147Y0042861D01*
X0060241Y0043066D01*
X0060735Y0042850D01*
X0060735Y0042849D01*
X0060636Y0042632D01*
X0060531Y0042417D01*
X0060422Y0042205D01*
X0060307Y0041996D01*
X0060187Y0041790D01*
X0060062Y0041586D01*
X0059932Y0041386D01*
X0059797Y0041189D01*
X0059658Y0040995D01*
X0059513Y0040805D01*
X0059365Y0040618D01*
X0059211Y0040435D01*
X0059053Y0040256D01*
X0058891Y0040080D01*
X0058725Y0039909D01*
X0058554Y0039742D01*
X0058380Y0039579D01*
X0058201Y0039420D01*
X0058019Y0039266D01*
X0057833Y0039116D01*
X0057643Y0038971D01*
X0057450Y0038831D01*
X0057254Y0038695D01*
X0057054Y0038564D01*
X0056851Y0038438D01*
X0056645Y0038317D01*
X0056437Y0038201D01*
X0056225Y0038091D01*
X0056011Y0037985D01*
X0055794Y0037885D01*
X0055575Y0037790D01*
X0055354Y0037700D01*
X0055130Y0037616D01*
X0054905Y0037537D01*
X0054677Y0037464D01*
X0054448Y0037397D01*
X0054218Y0037335D01*
X0053986Y0037279D01*
X0053752Y0037228D01*
X0053518Y0037183D01*
X0053282Y0037144D01*
X0053046Y0037111D01*
X0052809Y0037083D01*
X0052571Y0037061D01*
X0052333Y0037046D01*
X0052094Y0037035D01*
X0051855Y0037031D01*
X0051617Y0037033D01*
X0051378Y0037040D01*
X0051139Y0037053D01*
X0050901Y0037072D01*
X0050664Y0037097D01*
X0050427Y0037128D01*
X0050191Y0037164D01*
X0049956Y0037207D01*
X0049722Y0037254D01*
X0049490Y0037308D01*
X0049258Y0037367D01*
X0049028Y0037432D01*
X0048800Y0037503D01*
X0048574Y0037579D01*
X0048350Y0037661D01*
X0048127Y0037748D01*
X0047907Y0037840D01*
X0047689Y0037938D01*
X0047474Y0038041D01*
X0047261Y0038149D01*
X0047051Y0038263D01*
X0046844Y0038381D01*
X0046639Y0038505D01*
X0046438Y0038634D01*
X0046240Y0038767D01*
X0046046Y0038905D01*
X0045854Y0039048D01*
X0045667Y0039196D01*
X0045483Y0039348D01*
X0045302Y0039505D01*
X0045126Y0039666D01*
X0044954Y0039831D01*
X0044785Y0040000D01*
X0044621Y0040174D01*
X0044663Y0040212D01*
X0044826Y0040039D01*
X0044993Y0039871D01*
X0045164Y0039707D01*
X0045340Y0039547D01*
X0045519Y0039391D01*
X0045702Y0039240D01*
X0045889Y0039093D01*
X0046079Y0038951D01*
X0046272Y0038813D01*
X0046469Y0038680D01*
X0046669Y0038553D01*
X0046872Y0038430D01*
X0047078Y0038312D01*
X0047287Y0038199D01*
X0047499Y0038091D01*
X0047713Y0037989D01*
X0047929Y0037891D01*
X0048148Y0037799D01*
X0048369Y0037713D01*
X0048593Y0037632D01*
X0048818Y0037556D01*
X0049044Y0037486D01*
X0049273Y0037421D01*
X0049503Y0037363D01*
X0049734Y0037309D01*
X0049967Y0037262D01*
X0050200Y0037220D01*
X0050435Y0037183D01*
X0050671Y0037153D01*
X0050907Y0037128D01*
X0051143Y0037109D01*
X0051380Y0037096D01*
X0051618Y0037089D01*
X0051855Y0037087D01*
X0052092Y0037091D01*
X0052330Y0037101D01*
X0052566Y0037117D01*
X0052803Y0037139D01*
X0053039Y0037166D01*
X0053274Y0037199D01*
X0053508Y0037238D01*
X0053741Y0037283D01*
X0053973Y0037333D01*
X0054204Y0037389D01*
X0054433Y0037451D01*
X0054661Y0037518D01*
X0054887Y0037591D01*
X0055111Y0037669D01*
X0055333Y0037752D01*
X0055553Y0037841D01*
X0055771Y0037936D01*
X0055987Y0038036D01*
X0056200Y0038140D01*
X0056410Y0038251D01*
X0056618Y0038366D01*
X0056822Y0038486D01*
X0057024Y0038611D01*
X0057223Y0038741D01*
X0057418Y0038876D01*
X0057610Y0039016D01*
X0057798Y0039160D01*
X0057983Y0039309D01*
X0058165Y0039462D01*
X0058342Y0039620D01*
X0058516Y0039782D01*
X0058685Y0039948D01*
X0058851Y0040119D01*
X0059012Y0040293D01*
X0059169Y0040471D01*
X0059321Y0040653D01*
X0059469Y0040839D01*
X0059612Y0041028D01*
X0059751Y0041221D01*
X0059885Y0041417D01*
X0060014Y0041616D01*
X0060139Y0041818D01*
X0060258Y0042023D01*
X0060372Y0042232D01*
X0060481Y0042442D01*
X0060585Y0042656D01*
X0060684Y0042872D01*
X0060633Y0042894D01*
X0060534Y0042680D01*
X0060431Y0042467D01*
X0060323Y0042258D01*
X0060209Y0042051D01*
X0060091Y0041847D01*
X0059967Y0041646D01*
X0059839Y0041448D01*
X0059705Y0041253D01*
X0059567Y0041061D01*
X0059425Y0040873D01*
X0059278Y0040689D01*
X0059126Y0040508D01*
X0058970Y0040330D01*
X0058810Y0040157D01*
X0058645Y0039988D01*
X0058477Y0039823D01*
X0058304Y0039662D01*
X0058128Y0039505D01*
X0057948Y0039352D01*
X0057764Y0039204D01*
X0057576Y0039061D01*
X0057385Y0038922D01*
X0057191Y0038788D01*
X0056994Y0038658D01*
X0056793Y0038534D01*
X0056590Y0038414D01*
X0056383Y0038300D01*
X0056174Y0038190D01*
X0055963Y0038086D01*
X0055748Y0037987D01*
X0055532Y0037893D01*
X0055313Y0037805D01*
X0055092Y0037721D01*
X0054869Y0037644D01*
X0054644Y0037571D01*
X0054418Y0037505D01*
X0054190Y0037443D01*
X0053961Y0037388D01*
X0053730Y0037338D01*
X0053498Y0037293D01*
X0053265Y0037255D01*
X0053032Y0037222D01*
X0052797Y0037195D01*
X0052562Y0037173D01*
X0052327Y0037157D01*
X0052091Y0037147D01*
X0051855Y0037143D01*
X0051619Y0037145D01*
X0051383Y0037152D01*
X0051147Y0037165D01*
X0050912Y0037184D01*
X0050677Y0037209D01*
X0050443Y0037239D01*
X0050210Y0037275D01*
X0049977Y0037317D01*
X0049746Y0037364D01*
X0049516Y0037417D01*
X0049288Y0037476D01*
X0049060Y0037540D01*
X0048835Y0037609D01*
X0048611Y0037685D01*
X0048389Y0037765D01*
X0048169Y0037851D01*
X0047952Y0037943D01*
X0047737Y0038039D01*
X0047524Y0038141D01*
X0047313Y0038248D01*
X0047106Y0038361D01*
X0046901Y0038478D01*
X0046699Y0038600D01*
X0046500Y0038727D01*
X0046304Y0038859D01*
X0046112Y0038996D01*
X0045923Y0039137D01*
X0045737Y0039283D01*
X0045555Y0039433D01*
X0045377Y0039588D01*
X0045203Y0039747D01*
X0045032Y0039911D01*
X0044866Y0040078D01*
X0044704Y0040250D01*
X0044745Y0040287D01*
X0044906Y0040117D01*
X0045072Y0039951D01*
X0045241Y0039788D01*
X0045414Y0039630D01*
X0045592Y0039476D01*
X0045772Y0039327D01*
X0045957Y0039181D01*
X0046145Y0039041D01*
X0046336Y0038905D01*
X0046531Y0038774D01*
X0046729Y0038648D01*
X0046929Y0038526D01*
X0047133Y0038410D01*
X0047339Y0038298D01*
X0047549Y0038192D01*
X0047760Y0038090D01*
X0047974Y0037994D01*
X0048191Y0037903D01*
X0048409Y0037818D01*
X0048630Y0037737D01*
X0048852Y0037663D01*
X0049076Y0037593D01*
X0049302Y0037530D01*
X0049529Y0037471D01*
X0049758Y0037419D01*
X0049988Y0037372D01*
X0050219Y0037330D01*
X0050451Y0037294D01*
X0050684Y0037264D01*
X0050917Y0037240D01*
X0051151Y0037221D01*
X0051385Y0037208D01*
X0051620Y0037201D01*
X0051854Y0037199D01*
X0052089Y0037203D01*
X0052324Y0037213D01*
X0052558Y0037229D01*
X0052791Y0037250D01*
X0053024Y0037277D01*
X0053257Y0037310D01*
X0053488Y0037349D01*
X0053719Y0037393D01*
X0053948Y0037442D01*
X0054176Y0037498D01*
X0054403Y0037559D01*
X0054628Y0037625D01*
X0054851Y0037697D01*
X0055073Y0037774D01*
X0055293Y0037857D01*
X0055510Y0037945D01*
X0055725Y0038038D01*
X0055938Y0038137D01*
X0056149Y0038240D01*
X0056357Y0038349D01*
X0056562Y0038463D01*
X0056764Y0038582D01*
X0056964Y0038706D01*
X0057160Y0038834D01*
X0057353Y0038968D01*
X0057543Y0039106D01*
X0057729Y0039248D01*
X0057912Y0039395D01*
X0058091Y0039547D01*
X0058266Y0039703D01*
X0058438Y0039863D01*
X0058606Y0040027D01*
X0058769Y0040196D01*
X0058928Y0040368D01*
X0059083Y0040544D01*
X0059234Y0040724D01*
X0059380Y0040907D01*
X0059522Y0041094D01*
X0059659Y0041285D01*
X0059792Y0041479D01*
X0059920Y0041675D01*
X0060042Y0041875D01*
X0060160Y0042078D01*
X0060273Y0042284D01*
X0060381Y0042492D01*
X0060484Y0042703D01*
X0060581Y0042917D01*
X0060530Y0042939D01*
X0060433Y0042727D01*
X0060331Y0042517D01*
X0060224Y0042310D01*
X0060111Y0042106D01*
X0059994Y0041904D01*
X0059872Y0041705D01*
X0059745Y0041509D01*
X0059613Y0041317D01*
X0059477Y0041128D01*
X0059336Y0040942D01*
X0059191Y0040759D01*
X0059041Y0040580D01*
X0058887Y0040405D01*
X0058728Y0040234D01*
X0058566Y0040067D01*
X0058399Y0039903D01*
X0058229Y0039744D01*
X0058054Y0039589D01*
X0057876Y0039439D01*
X0057694Y0039292D01*
X0057509Y0039150D01*
X0057321Y0039013D01*
X0057129Y0038881D01*
X0056933Y0038753D01*
X0056735Y0038630D01*
X0056534Y0038512D01*
X0056330Y0038398D01*
X0056123Y0038290D01*
X0055914Y0038187D01*
X0055702Y0038089D01*
X0055488Y0037996D01*
X0055272Y0037909D01*
X0055054Y0037827D01*
X0054834Y0037750D01*
X0054611Y0037678D01*
X0054388Y0037612D01*
X0054162Y0037552D01*
X0053936Y0037497D01*
X0053708Y0037448D01*
X0053478Y0037404D01*
X0053248Y0037366D01*
X0053017Y0037333D01*
X0052786Y0037306D01*
X0052553Y0037285D01*
X0052321Y0037269D01*
X0052087Y0037259D01*
X0051854Y0037255D01*
X0051621Y0037257D01*
X0051388Y0037264D01*
X0051155Y0037277D01*
X0050922Y0037295D01*
X0050690Y0037320D01*
X0050459Y0037350D01*
X0050228Y0037385D01*
X0049999Y0037426D01*
X0049770Y0037473D01*
X0049543Y0037526D01*
X0049317Y0037584D01*
X0049092Y0037647D01*
X0048869Y0037716D01*
X0048648Y0037790D01*
X0048429Y0037870D01*
X0048212Y0037955D01*
X0047997Y0038045D01*
X0047784Y0038141D01*
X0047573Y0038242D01*
X0047366Y0038348D01*
X0047160Y0038458D01*
X0046958Y0038574D01*
X0046758Y0038695D01*
X0046562Y0038821D01*
X0046368Y0038951D01*
X0046178Y0039086D01*
X0045991Y0039226D01*
X0045808Y0039370D01*
X0045628Y0039519D01*
X0045452Y0039672D01*
X0045280Y0039829D01*
X0045111Y0039990D01*
X0044947Y0040156D01*
X0044786Y0040325D01*
X0044828Y0040363D01*
X0044987Y0040195D01*
X0045150Y0040030D01*
X0045318Y0039870D01*
X0045489Y0039713D01*
X0045664Y0039561D01*
X0045843Y0039414D01*
X0046025Y0039270D01*
X0046211Y0039131D01*
X0046400Y0038997D01*
X0046592Y0038867D01*
X0046788Y0038743D01*
X0046986Y0038622D01*
X0047188Y0038507D01*
X0047392Y0038397D01*
X0047598Y0038292D01*
X0047808Y0038192D01*
X0048019Y0038097D01*
X0048233Y0038007D01*
X0048449Y0037922D01*
X0048667Y0037843D01*
X0048887Y0037769D01*
X0049108Y0037701D01*
X0049331Y0037638D01*
X0049556Y0037580D01*
X0049782Y0037528D01*
X0050009Y0037481D01*
X0050238Y0037441D01*
X0050467Y0037405D01*
X0050697Y0037375D01*
X0050927Y0037351D01*
X0051159Y0037333D01*
X0051390Y0037320D01*
X0051622Y0037313D01*
X0051854Y0037311D01*
X0052086Y0037315D01*
X0052317Y0037325D01*
X0052549Y0037341D01*
X0052780Y0037362D01*
X0053010Y0037388D01*
X0053240Y0037421D01*
X0053469Y0037459D01*
X0053696Y0037502D01*
X0053923Y0037552D01*
X0054148Y0037606D01*
X0054372Y0037666D01*
X0054595Y0037732D01*
X0054816Y0037803D01*
X0055035Y0037879D01*
X0055252Y0037961D01*
X0055467Y0038048D01*
X0055680Y0038140D01*
X0055890Y0038238D01*
X0056098Y0038340D01*
X0056304Y0038448D01*
X0056506Y0038560D01*
X0056706Y0038678D01*
X0056903Y0038800D01*
X0057097Y0038927D01*
X0057288Y0039059D01*
X0057476Y0039195D01*
X0057660Y0039336D01*
X0057840Y0039482D01*
X0058018Y0039631D01*
X0058191Y0039786D01*
X0058360Y0039944D01*
X0058526Y0040106D01*
X0058688Y0040273D01*
X0058845Y0040443D01*
X0058998Y0040617D01*
X0059147Y0040795D01*
X0059292Y0040976D01*
X0059432Y0041161D01*
X0059568Y0041349D01*
X0059698Y0041540D01*
X0059825Y0041735D01*
X0059946Y0041933D01*
X0060063Y0042133D01*
X0060174Y0042336D01*
X0060281Y0042542D01*
X0060382Y0042751D01*
X0060479Y0042962D01*
X0060427Y0042984D01*
X0060332Y0042775D01*
X0060231Y0042567D01*
X0060125Y0042363D01*
X0060014Y0042160D01*
X0059898Y0041961D01*
X0059777Y0041765D01*
X0059652Y0041571D01*
X0059522Y0041381D01*
X0059387Y0041194D01*
X0059248Y0041010D01*
X0059104Y0040830D01*
X0058956Y0040653D01*
X0058803Y0040480D01*
X0058647Y0040311D01*
X0058486Y0040146D01*
X0058322Y0039984D01*
X0058153Y0039827D01*
X0057981Y0039674D01*
X0057805Y0039525D01*
X0057625Y0039380D01*
X0057442Y0039240D01*
X0057256Y0039105D01*
X0057066Y0038973D01*
X0056873Y0038847D01*
X0056677Y0038726D01*
X0056478Y0038609D01*
X0056277Y0038497D01*
X0056073Y0038390D01*
X0055866Y0038288D01*
X0055657Y0038191D01*
X0055445Y0038100D01*
X0055231Y0038013D01*
X0055016Y0037932D01*
X0054798Y0037856D01*
X0054578Y0037785D01*
X0054357Y0037720D01*
X0054135Y0037660D01*
X0053911Y0037606D01*
X0053685Y0037557D01*
X0053459Y0037514D01*
X0053231Y0037476D01*
X0053003Y0037444D01*
X0052774Y0037417D01*
X0052544Y0037396D01*
X0052314Y0037381D01*
X0052084Y0037371D01*
X0051854Y0037367D01*
X0051623Y0037369D01*
X0051393Y0037376D01*
X0051162Y0037389D01*
X0050933Y0037407D01*
X0050703Y0037431D01*
X0050475Y0037461D01*
X0050247Y0037496D01*
X0050020Y0037536D01*
X0049794Y0037583D01*
X0049569Y0037634D01*
X0049346Y0037692D01*
X0049124Y0037754D01*
X0048904Y0037823D01*
X0048685Y0037896D01*
X0048469Y0037975D01*
X0048254Y0038059D01*
X0048041Y0038148D01*
X0047831Y0038242D01*
X0047623Y0038342D01*
X0047418Y0038447D01*
X0047215Y0038556D01*
X0047015Y0038671D01*
X0046818Y0038790D01*
X0046623Y0038914D01*
X0046432Y0039043D01*
X0046244Y0039177D01*
X0046060Y0039315D01*
X0045878Y0039457D01*
X0045701Y0039604D01*
X0045527Y0039755D01*
X0045356Y0039911D01*
X0045190Y0040070D01*
X0045027Y0040234D01*
X0044869Y0040401D01*
X0044910Y0040439D01*
X0045068Y0040272D01*
X0045229Y0040110D01*
X0045395Y0039951D01*
X0045564Y0039797D01*
X0045737Y0039647D01*
X0045914Y0039501D01*
X0046094Y0039359D01*
X0046277Y0039222D01*
X0046464Y0039089D01*
X0046654Y0038961D01*
X0046847Y0038838D01*
X0047043Y0038719D01*
X0047242Y0038605D01*
X0047444Y0038496D01*
X0047648Y0038392D01*
X0047855Y0038293D01*
X0048064Y0038199D01*
X0048275Y0038111D01*
X0048489Y0038027D01*
X0048704Y0037949D01*
X0048921Y0037876D01*
X0049140Y0037808D01*
X0049361Y0037746D01*
X0049583Y0037689D01*
X0049806Y0037637D01*
X0050031Y0037591D01*
X0050256Y0037551D01*
X0050483Y0037516D01*
X0050710Y0037487D01*
X0050938Y0037463D01*
X0051166Y0037444D01*
X0051395Y0037432D01*
X0051624Y0037425D01*
X0051853Y0037423D01*
X0052082Y0037427D01*
X0052311Y0037437D01*
X0052540Y0037452D01*
X0052768Y0037473D01*
X0052996Y0037500D01*
X0053223Y0037532D01*
X0053449Y0037569D01*
X0053674Y0037612D01*
X0053898Y0037661D01*
X0054121Y0037715D01*
X0054342Y0037774D01*
X0054562Y0037839D01*
X0054780Y0037909D01*
X0054996Y0037985D01*
X0055211Y0038065D01*
X0055423Y0038151D01*
X0055634Y0038242D01*
X0055842Y0038339D01*
X0056047Y0038440D01*
X0056250Y0038546D01*
X0056451Y0038657D01*
X0056648Y0038773D01*
X0056843Y0038894D01*
X0057035Y0039020D01*
X0057223Y0039150D01*
X0057409Y0039285D01*
X0057591Y0039424D01*
X0057769Y0039568D01*
X0057944Y0039716D01*
X0058115Y0039868D01*
X0058283Y0040025D01*
X0058446Y0040185D01*
X0058606Y0040349D01*
X0058762Y0040518D01*
X0058913Y0040690D01*
X0059060Y0040865D01*
X0059203Y0041044D01*
X0059342Y0041227D01*
X0059476Y0041413D01*
X0059605Y0041602D01*
X0059730Y0041794D01*
X0059850Y0041990D01*
X0059965Y0042188D01*
X0060075Y0042389D01*
X0060181Y0042592D01*
X0060281Y0042798D01*
X0060376Y0043007D01*
X0060325Y0043029D01*
X0060230Y0042822D01*
X0060130Y0042617D01*
X0060026Y0042415D01*
X0059916Y0042215D01*
X0059802Y0042018D01*
X0059682Y0041824D01*
X0059558Y0041633D01*
X0059430Y0041445D01*
X0059297Y0041260D01*
X0059159Y0041079D01*
X0059017Y0040901D01*
X0058871Y0040726D01*
X0058720Y0040555D01*
X0058565Y0040388D01*
X0058407Y0040224D01*
X0058244Y0040065D01*
X0058078Y0039910D01*
X0057907Y0039758D01*
X0057733Y0039611D01*
X0057556Y0039468D01*
X0057375Y0039330D01*
X0057191Y0039196D01*
X0057003Y0039066D01*
X0056813Y0038941D01*
X0056619Y0038821D01*
X0056423Y0038706D01*
X0056224Y0038595D01*
X0056022Y0038490D01*
X0055817Y0038389D01*
X0055611Y0038293D01*
X0055402Y0038203D01*
X0055191Y0038117D01*
X0054977Y0038037D01*
X0054762Y0037962D01*
X0054545Y0037892D01*
X0054327Y0037828D01*
X0054107Y0037769D01*
X0053885Y0037715D01*
X0053663Y0037667D01*
X0053439Y0037624D01*
X0053214Y0037587D01*
X0052989Y0037555D01*
X0052763Y0037529D01*
X0052536Y0037508D01*
X0052308Y0037493D01*
X0052081Y0037483D01*
X0051853Y0037479D01*
X0051625Y0037481D01*
X0051398Y0037488D01*
X0051170Y0037500D01*
X0050943Y0037518D01*
X0050716Y0037542D01*
X0050491Y0037571D01*
X0050265Y0037606D01*
X0050041Y0037646D01*
X0049818Y0037692D01*
X0049596Y0037743D01*
X0049375Y0037800D01*
X0049156Y0037862D01*
X0048938Y0037929D01*
X0048723Y0038002D01*
X0048508Y0038079D01*
X0048296Y0038162D01*
X0048086Y0038251D01*
X0047878Y0038344D01*
X0047673Y0038442D01*
X0047470Y0038546D01*
X0047270Y0038654D01*
X0047072Y0038767D01*
X0046877Y0038885D01*
X0046685Y0039008D01*
X0046496Y0039135D01*
X0046310Y0039267D01*
X0046128Y0039403D01*
X0045949Y0039544D01*
X0045773Y0039689D01*
X0045601Y0039839D01*
X0045433Y0039992D01*
X0045269Y0040150D01*
X0045108Y0040311D01*
X0044951Y0040477D01*
X0044993Y0040515D01*
X0045148Y0040350D01*
X0045308Y0040190D01*
X0045471Y0040033D01*
X0045639Y0039880D01*
X0045810Y0039732D01*
X0045984Y0039588D01*
X0046162Y0039448D01*
X0046343Y0039312D01*
X0046528Y0039181D01*
X0046716Y0039054D01*
X0046907Y0038932D01*
X0047100Y0038815D01*
X0047297Y0038703D01*
X0047496Y0038595D01*
X0047698Y0038492D01*
X0047902Y0038395D01*
X0048109Y0038302D01*
X0048317Y0038214D01*
X0048528Y0038132D01*
X0048741Y0038054D01*
X0048956Y0037982D01*
X0049172Y0037915D01*
X0049390Y0037854D01*
X0049609Y0037798D01*
X0049830Y0037747D01*
X0050052Y0037701D01*
X0050275Y0037661D01*
X0050498Y0037627D01*
X0050723Y0037598D01*
X0050948Y0037574D01*
X0051174Y0037556D01*
X0051400Y0037544D01*
X0051626Y0037537D01*
X0051853Y0037535D01*
X0052079Y0037539D01*
X0052305Y0037549D01*
X0052531Y0037564D01*
X0052757Y0037585D01*
X0052982Y0037611D01*
X0053206Y0037642D01*
X0053429Y0037679D01*
X0053652Y0037722D01*
X0053873Y0037770D01*
X0054093Y0037823D01*
X0054312Y0037882D01*
X0054529Y0037946D01*
X0054744Y0038015D01*
X0054958Y0038090D01*
X0055170Y0038170D01*
X0055380Y0038255D01*
X0055588Y0038345D01*
X0055793Y0038440D01*
X0055996Y0038540D01*
X0056197Y0038645D01*
X0056395Y0038755D01*
X0056590Y0038869D01*
X0056783Y0038989D01*
X0056972Y0039113D01*
X0057158Y0039241D01*
X0057341Y0039375D01*
X0057521Y0039512D01*
X0057698Y0039654D01*
X0057870Y0039800D01*
X0058040Y0039951D01*
X0058205Y0040105D01*
X0058367Y0040264D01*
X0058525Y0040426D01*
X0058678Y0040593D01*
X0058828Y0040762D01*
X0058974Y0040936D01*
X0059115Y0041113D01*
X0059252Y0041293D01*
X0059384Y0041477D01*
X0059512Y0041664D01*
X0059635Y0041854D01*
X0059753Y0042047D01*
X0059867Y0042243D01*
X0059976Y0042441D01*
X0060080Y0042642D01*
X0060179Y0042846D01*
X0060274Y0043052D01*
X0060735Y0050750D02*
X0060240Y0050533D01*
X0060241Y0050534D02*
X0060147Y0050739D01*
X0060048Y0050942D01*
X0059944Y0051142D01*
X0059836Y0051340D01*
X0059723Y0051535D01*
X0059604Y0051727D01*
X0059482Y0051916D01*
X0059354Y0052102D01*
X0059223Y0052285D01*
X0059086Y0052465D01*
X0058946Y0052641D01*
X0058801Y0052814D01*
X0058652Y0052983D01*
X0058499Y0053149D01*
X0058341Y0053311D01*
X0058180Y0053469D01*
X0058015Y0053623D01*
X0057847Y0053772D01*
X0057675Y0053918D01*
X0057499Y0054059D01*
X0057320Y0054197D01*
X0057137Y0054329D01*
X0056952Y0054457D01*
X0056763Y0054581D01*
X0056572Y0054700D01*
X0056377Y0054814D01*
X0056180Y0054924D01*
X0055980Y0055028D01*
X0055778Y0055128D01*
X0055573Y0055223D01*
X0055366Y0055312D01*
X0055157Y0055397D01*
X0054946Y0055476D01*
X0054733Y0055551D01*
X0054518Y0055620D01*
X0054302Y0055683D01*
X0054084Y0055742D01*
X0053865Y0055795D01*
X0053644Y0055843D01*
X0053423Y0055885D01*
X0053200Y0055922D01*
X0052977Y0055954D01*
X0052753Y0055980D01*
X0052528Y0056000D01*
X0052303Y0056015D01*
X0052078Y0056025D01*
X0051853Y0056029D01*
X0051627Y0056027D01*
X0051402Y0056020D01*
X0051176Y0056008D01*
X0050952Y0055990D01*
X0050727Y0055966D01*
X0050504Y0055937D01*
X0050281Y0055903D01*
X0050059Y0055863D01*
X0049838Y0055818D01*
X0049618Y0055767D01*
X0049399Y0055711D01*
X0049182Y0055650D01*
X0048967Y0055583D01*
X0048753Y0055512D01*
X0048541Y0055435D01*
X0048331Y0055352D01*
X0048123Y0055265D01*
X0047917Y0055173D01*
X0047714Y0055075D01*
X0047513Y0054973D01*
X0047314Y0054866D01*
X0047119Y0054754D01*
X0046926Y0054637D01*
X0046736Y0054516D01*
X0046549Y0054390D01*
X0046365Y0054259D01*
X0046184Y0054124D01*
X0046007Y0053984D01*
X0045833Y0053841D01*
X0045663Y0053693D01*
X0045496Y0053541D01*
X0045333Y0053385D01*
X0045174Y0053225D01*
X0045019Y0053061D01*
X0044622Y0053426D01*
X0044621Y0053426D01*
X0044785Y0053600D01*
X0044954Y0053769D01*
X0045126Y0053934D01*
X0045302Y0054095D01*
X0045483Y0054252D01*
X0045667Y0054404D01*
X0045854Y0054552D01*
X0046046Y0054695D01*
X0046240Y0054833D01*
X0046438Y0054966D01*
X0046639Y0055095D01*
X0046844Y0055219D01*
X0047051Y0055337D01*
X0047261Y0055451D01*
X0047474Y0055559D01*
X0047689Y0055662D01*
X0047907Y0055760D01*
X0048127Y0055852D01*
X0048350Y0055939D01*
X0048574Y0056021D01*
X0048800Y0056097D01*
X0049028Y0056168D01*
X0049258Y0056233D01*
X0049490Y0056292D01*
X0049722Y0056346D01*
X0049956Y0056393D01*
X0050191Y0056436D01*
X0050427Y0056472D01*
X0050664Y0056503D01*
X0050901Y0056528D01*
X0051139Y0056547D01*
X0051378Y0056560D01*
X0051617Y0056567D01*
X0051855Y0056569D01*
X0052094Y0056565D01*
X0052333Y0056554D01*
X0052571Y0056539D01*
X0052809Y0056517D01*
X0053046Y0056489D01*
X0053282Y0056456D01*
X0053518Y0056417D01*
X0053752Y0056372D01*
X0053986Y0056321D01*
X0054218Y0056265D01*
X0054448Y0056203D01*
X0054677Y0056136D01*
X0054905Y0056063D01*
X0055130Y0055984D01*
X0055354Y0055900D01*
X0055575Y0055810D01*
X0055794Y0055715D01*
X0056011Y0055615D01*
X0056225Y0055509D01*
X0056437Y0055399D01*
X0056645Y0055283D01*
X0056851Y0055162D01*
X0057054Y0055036D01*
X0057254Y0054905D01*
X0057450Y0054769D01*
X0057643Y0054629D01*
X0057833Y0054484D01*
X0058019Y0054334D01*
X0058201Y0054180D01*
X0058380Y0054021D01*
X0058554Y0053858D01*
X0058725Y0053691D01*
X0058891Y0053520D01*
X0059053Y0053344D01*
X0059211Y0053165D01*
X0059365Y0052982D01*
X0059513Y0052795D01*
X0059658Y0052605D01*
X0059797Y0052411D01*
X0059932Y0052214D01*
X0060062Y0052014D01*
X0060187Y0051810D01*
X0060307Y0051604D01*
X0060422Y0051395D01*
X0060531Y0051183D01*
X0060636Y0050968D01*
X0060735Y0050751D01*
X0060684Y0050728D01*
X0060585Y0050944D01*
X0060481Y0051158D01*
X0060372Y0051368D01*
X0060258Y0051577D01*
X0060139Y0051782D01*
X0060014Y0051984D01*
X0059885Y0052183D01*
X0059751Y0052379D01*
X0059612Y0052572D01*
X0059469Y0052761D01*
X0059321Y0052947D01*
X0059169Y0053129D01*
X0059012Y0053307D01*
X0058851Y0053481D01*
X0058685Y0053652D01*
X0058516Y0053818D01*
X0058342Y0053980D01*
X0058165Y0054138D01*
X0057983Y0054291D01*
X0057798Y0054440D01*
X0057610Y0054584D01*
X0057418Y0054724D01*
X0057223Y0054859D01*
X0057024Y0054989D01*
X0056822Y0055114D01*
X0056618Y0055234D01*
X0056410Y0055349D01*
X0056200Y0055460D01*
X0055987Y0055564D01*
X0055771Y0055664D01*
X0055553Y0055759D01*
X0055333Y0055848D01*
X0055111Y0055931D01*
X0054887Y0056009D01*
X0054661Y0056082D01*
X0054433Y0056149D01*
X0054204Y0056211D01*
X0053973Y0056267D01*
X0053741Y0056317D01*
X0053508Y0056362D01*
X0053274Y0056401D01*
X0053039Y0056434D01*
X0052803Y0056461D01*
X0052566Y0056483D01*
X0052330Y0056499D01*
X0052092Y0056509D01*
X0051855Y0056513D01*
X0051618Y0056511D01*
X0051380Y0056504D01*
X0051143Y0056491D01*
X0050907Y0056472D01*
X0050671Y0056447D01*
X0050435Y0056417D01*
X0050200Y0056380D01*
X0049967Y0056338D01*
X0049734Y0056291D01*
X0049503Y0056237D01*
X0049273Y0056179D01*
X0049044Y0056114D01*
X0048818Y0056044D01*
X0048593Y0055968D01*
X0048369Y0055887D01*
X0048148Y0055801D01*
X0047929Y0055709D01*
X0047713Y0055611D01*
X0047499Y0055509D01*
X0047287Y0055401D01*
X0047078Y0055288D01*
X0046872Y0055170D01*
X0046669Y0055047D01*
X0046469Y0054920D01*
X0046272Y0054787D01*
X0046079Y0054649D01*
X0045889Y0054507D01*
X0045702Y0054360D01*
X0045519Y0054209D01*
X0045340Y0054053D01*
X0045164Y0053893D01*
X0044993Y0053729D01*
X0044826Y0053561D01*
X0044663Y0053388D01*
X0044704Y0053350D01*
X0044866Y0053522D01*
X0045032Y0053689D01*
X0045203Y0053853D01*
X0045377Y0054012D01*
X0045555Y0054167D01*
X0045737Y0054317D01*
X0045923Y0054463D01*
X0046112Y0054604D01*
X0046304Y0054741D01*
X0046500Y0054873D01*
X0046699Y0055000D01*
X0046901Y0055122D01*
X0047106Y0055239D01*
X0047313Y0055352D01*
X0047524Y0055459D01*
X0047737Y0055561D01*
X0047952Y0055657D01*
X0048169Y0055749D01*
X0048389Y0055835D01*
X0048611Y0055915D01*
X0048835Y0055991D01*
X0049060Y0056060D01*
X0049288Y0056124D01*
X0049516Y0056183D01*
X0049746Y0056236D01*
X0049977Y0056283D01*
X0050210Y0056325D01*
X0050443Y0056361D01*
X0050677Y0056391D01*
X0050912Y0056416D01*
X0051147Y0056435D01*
X0051383Y0056448D01*
X0051619Y0056455D01*
X0051855Y0056457D01*
X0052091Y0056453D01*
X0052327Y0056443D01*
X0052562Y0056427D01*
X0052797Y0056405D01*
X0053032Y0056378D01*
X0053265Y0056345D01*
X0053498Y0056307D01*
X0053730Y0056262D01*
X0053961Y0056212D01*
X0054190Y0056157D01*
X0054418Y0056095D01*
X0054644Y0056029D01*
X0054869Y0055956D01*
X0055092Y0055879D01*
X0055313Y0055795D01*
X0055532Y0055707D01*
X0055748Y0055613D01*
X0055963Y0055514D01*
X0056174Y0055410D01*
X0056383Y0055300D01*
X0056590Y0055186D01*
X0056793Y0055066D01*
X0056994Y0054942D01*
X0057191Y0054812D01*
X0057385Y0054678D01*
X0057576Y0054539D01*
X0057764Y0054396D01*
X0057948Y0054248D01*
X0058128Y0054095D01*
X0058304Y0053938D01*
X0058477Y0053777D01*
X0058645Y0053612D01*
X0058810Y0053443D01*
X0058970Y0053270D01*
X0059126Y0053092D01*
X0059278Y0052911D01*
X0059425Y0052727D01*
X0059567Y0052539D01*
X0059705Y0052347D01*
X0059839Y0052152D01*
X0059967Y0051954D01*
X0060091Y0051753D01*
X0060209Y0051549D01*
X0060323Y0051342D01*
X0060431Y0051133D01*
X0060534Y0050920D01*
X0060633Y0050706D01*
X0060581Y0050683D01*
X0060484Y0050897D01*
X0060381Y0051108D01*
X0060273Y0051316D01*
X0060160Y0051522D01*
X0060042Y0051725D01*
X0059920Y0051925D01*
X0059792Y0052121D01*
X0059659Y0052315D01*
X0059522Y0052506D01*
X0059380Y0052693D01*
X0059234Y0052876D01*
X0059083Y0053056D01*
X0058928Y0053232D01*
X0058769Y0053404D01*
X0058606Y0053573D01*
X0058438Y0053737D01*
X0058266Y0053897D01*
X0058091Y0054053D01*
X0057912Y0054205D01*
X0057729Y0054352D01*
X0057543Y0054494D01*
X0057353Y0054632D01*
X0057160Y0054766D01*
X0056964Y0054894D01*
X0056764Y0055018D01*
X0056562Y0055137D01*
X0056357Y0055251D01*
X0056149Y0055360D01*
X0055938Y0055463D01*
X0055725Y0055562D01*
X0055510Y0055655D01*
X0055293Y0055743D01*
X0055073Y0055826D01*
X0054851Y0055903D01*
X0054628Y0055975D01*
X0054403Y0056041D01*
X0054176Y0056102D01*
X0053948Y0056158D01*
X0053719Y0056207D01*
X0053488Y0056251D01*
X0053257Y0056290D01*
X0053024Y0056323D01*
X0052791Y0056350D01*
X0052558Y0056371D01*
X0052324Y0056387D01*
X0052089Y0056397D01*
X0051854Y0056401D01*
X0051620Y0056399D01*
X0051385Y0056392D01*
X0051151Y0056379D01*
X0050917Y0056360D01*
X0050684Y0056336D01*
X0050451Y0056306D01*
X0050219Y0056270D01*
X0049988Y0056228D01*
X0049758Y0056181D01*
X0049529Y0056129D01*
X0049302Y0056070D01*
X0049076Y0056007D01*
X0048852Y0055937D01*
X0048630Y0055863D01*
X0048409Y0055782D01*
X0048191Y0055697D01*
X0047974Y0055606D01*
X0047760Y0055510D01*
X0047549Y0055408D01*
X0047339Y0055302D01*
X0047133Y0055190D01*
X0046929Y0055074D01*
X0046729Y0054952D01*
X0046531Y0054826D01*
X0046336Y0054695D01*
X0046145Y0054559D01*
X0045957Y0054419D01*
X0045772Y0054273D01*
X0045592Y0054124D01*
X0045414Y0053970D01*
X0045241Y0053812D01*
X0045072Y0053649D01*
X0044906Y0053483D01*
X0044745Y0053313D01*
X0044786Y0053275D01*
X0044947Y0053444D01*
X0045111Y0053610D01*
X0045280Y0053771D01*
X0045452Y0053928D01*
X0045628Y0054081D01*
X0045808Y0054230D01*
X0045991Y0054374D01*
X0046178Y0054514D01*
X0046368Y0054649D01*
X0046562Y0054779D01*
X0046758Y0054905D01*
X0046958Y0055026D01*
X0047160Y0055142D01*
X0047366Y0055252D01*
X0047573Y0055358D01*
X0047784Y0055459D01*
X0047997Y0055555D01*
X0048212Y0055645D01*
X0048429Y0055730D01*
X0048648Y0055810D01*
X0048869Y0055884D01*
X0049092Y0055953D01*
X0049317Y0056016D01*
X0049543Y0056074D01*
X0049770Y0056127D01*
X0049999Y0056174D01*
X0050228Y0056215D01*
X0050459Y0056250D01*
X0050690Y0056280D01*
X0050922Y0056305D01*
X0051155Y0056323D01*
X0051388Y0056336D01*
X0051621Y0056343D01*
X0051854Y0056345D01*
X0052087Y0056341D01*
X0052321Y0056331D01*
X0052553Y0056315D01*
X0052786Y0056294D01*
X0053017Y0056267D01*
X0053248Y0056234D01*
X0053478Y0056196D01*
X0053708Y0056152D01*
X0053936Y0056103D01*
X0054162Y0056048D01*
X0054388Y0055988D01*
X0054611Y0055922D01*
X0054834Y0055850D01*
X0055054Y0055773D01*
X0055272Y0055691D01*
X0055488Y0055604D01*
X0055702Y0055511D01*
X0055914Y0055413D01*
X0056123Y0055310D01*
X0056330Y0055202D01*
X0056534Y0055088D01*
X0056735Y0054970D01*
X0056933Y0054847D01*
X0057129Y0054719D01*
X0057321Y0054587D01*
X0057509Y0054450D01*
X0057694Y0054308D01*
X0057876Y0054161D01*
X0058054Y0054011D01*
X0058229Y0053856D01*
X0058399Y0053697D01*
X0058566Y0053533D01*
X0058728Y0053366D01*
X0058887Y0053195D01*
X0059041Y0053020D01*
X0059191Y0052841D01*
X0059336Y0052658D01*
X0059477Y0052472D01*
X0059613Y0052283D01*
X0059745Y0052091D01*
X0059872Y0051895D01*
X0059994Y0051696D01*
X0060111Y0051494D01*
X0060224Y0051290D01*
X0060331Y0051083D01*
X0060433Y0050873D01*
X0060530Y0050661D01*
X0060479Y0050638D01*
X0060382Y0050849D01*
X0060281Y0051058D01*
X0060174Y0051264D01*
X0060063Y0051467D01*
X0059946Y0051667D01*
X0059825Y0051865D01*
X0059698Y0052060D01*
X0059568Y0052251D01*
X0059432Y0052439D01*
X0059292Y0052624D01*
X0059147Y0052805D01*
X0058998Y0052983D01*
X0058845Y0053157D01*
X0058688Y0053327D01*
X0058526Y0053494D01*
X0058360Y0053656D01*
X0058191Y0053814D01*
X0058018Y0053969D01*
X0057840Y0054118D01*
X0057660Y0054264D01*
X0057476Y0054405D01*
X0057288Y0054541D01*
X0057097Y0054673D01*
X0056903Y0054800D01*
X0056706Y0054922D01*
X0056506Y0055040D01*
X0056304Y0055152D01*
X0056098Y0055260D01*
X0055890Y0055362D01*
X0055680Y0055460D01*
X0055467Y0055552D01*
X0055252Y0055639D01*
X0055035Y0055721D01*
X0054816Y0055797D01*
X0054595Y0055868D01*
X0054372Y0055934D01*
X0054148Y0055994D01*
X0053923Y0056048D01*
X0053696Y0056098D01*
X0053469Y0056141D01*
X0053240Y0056179D01*
X0053010Y0056212D01*
X0052780Y0056238D01*
X0052549Y0056259D01*
X0052317Y0056275D01*
X0052086Y0056285D01*
X0051854Y0056289D01*
X0051622Y0056287D01*
X0051390Y0056280D01*
X0051159Y0056267D01*
X0050927Y0056249D01*
X0050697Y0056225D01*
X0050467Y0056195D01*
X0050238Y0056159D01*
X0050009Y0056119D01*
X0049782Y0056072D01*
X0049556Y0056020D01*
X0049331Y0055962D01*
X0049108Y0055899D01*
X0048887Y0055831D01*
X0048667Y0055757D01*
X0048449Y0055678D01*
X0048233Y0055593D01*
X0048019Y0055503D01*
X0047808Y0055408D01*
X0047598Y0055308D01*
X0047392Y0055203D01*
X0047188Y0055093D01*
X0046986Y0054978D01*
X0046788Y0054857D01*
X0046592Y0054733D01*
X0046400Y0054603D01*
X0046211Y0054469D01*
X0046025Y0054330D01*
X0045843Y0054186D01*
X0045664Y0054039D01*
X0045489Y0053887D01*
X0045318Y0053730D01*
X0045150Y0053570D01*
X0044987Y0053405D01*
X0044828Y0053237D01*
X0044869Y0053199D01*
X0045027Y0053366D01*
X0045190Y0053530D01*
X0045356Y0053689D01*
X0045527Y0053845D01*
X0045701Y0053996D01*
X0045878Y0054143D01*
X0046060Y0054285D01*
X0046244Y0054423D01*
X0046432Y0054557D01*
X0046623Y0054686D01*
X0046818Y0054810D01*
X0047015Y0054929D01*
X0047215Y0055044D01*
X0047418Y0055153D01*
X0047623Y0055258D01*
X0047831Y0055358D01*
X0048041Y0055452D01*
X0048254Y0055541D01*
X0048469Y0055625D01*
X0048685Y0055704D01*
X0048904Y0055777D01*
X0049124Y0055846D01*
X0049346Y0055908D01*
X0049569Y0055966D01*
X0049794Y0056017D01*
X0050020Y0056064D01*
X0050247Y0056104D01*
X0050475Y0056139D01*
X0050703Y0056169D01*
X0050933Y0056193D01*
X0051162Y0056211D01*
X0051393Y0056224D01*
X0051623Y0056231D01*
X0051854Y0056233D01*
X0052084Y0056229D01*
X0052314Y0056219D01*
X0052544Y0056204D01*
X0052774Y0056183D01*
X0053003Y0056156D01*
X0053231Y0056124D01*
X0053459Y0056086D01*
X0053685Y0056043D01*
X0053911Y0055994D01*
X0054135Y0055940D01*
X0054357Y0055880D01*
X0054578Y0055815D01*
X0054798Y0055744D01*
X0055016Y0055668D01*
X0055231Y0055587D01*
X0055445Y0055500D01*
X0055657Y0055409D01*
X0055866Y0055312D01*
X0056073Y0055210D01*
X0056277Y0055103D01*
X0056478Y0054991D01*
X0056677Y0054874D01*
X0056873Y0054753D01*
X0057066Y0054627D01*
X0057256Y0054495D01*
X0057442Y0054360D01*
X0057625Y0054220D01*
X0057805Y0054075D01*
X0057981Y0053926D01*
X0058153Y0053773D01*
X0058322Y0053616D01*
X0058486Y0053454D01*
X0058647Y0053289D01*
X0058803Y0053120D01*
X0058956Y0052947D01*
X0059104Y0052770D01*
X0059248Y0052590D01*
X0059387Y0052406D01*
X0059522Y0052219D01*
X0059652Y0052029D01*
X0059777Y0051835D01*
X0059898Y0051639D01*
X0060014Y0051440D01*
X0060125Y0051237D01*
X0060231Y0051033D01*
X0060332Y0050825D01*
X0060427Y0050616D01*
X0060376Y0050593D01*
X0060281Y0050802D01*
X0060181Y0051008D01*
X0060075Y0051211D01*
X0059965Y0051412D01*
X0059850Y0051610D01*
X0059730Y0051806D01*
X0059605Y0051998D01*
X0059476Y0052187D01*
X0059342Y0052373D01*
X0059203Y0052556D01*
X0059060Y0052735D01*
X0058913Y0052910D01*
X0058762Y0053082D01*
X0058606Y0053251D01*
X0058446Y0053415D01*
X0058283Y0053575D01*
X0058115Y0053732D01*
X0057944Y0053884D01*
X0057769Y0054032D01*
X0057591Y0054176D01*
X0057409Y0054315D01*
X0057223Y0054450D01*
X0057035Y0054580D01*
X0056843Y0054706D01*
X0056648Y0054827D01*
X0056451Y0054943D01*
X0056250Y0055054D01*
X0056047Y0055160D01*
X0055842Y0055261D01*
X0055634Y0055358D01*
X0055423Y0055449D01*
X0055211Y0055535D01*
X0054996Y0055615D01*
X0054780Y0055691D01*
X0054562Y0055761D01*
X0054342Y0055826D01*
X0054121Y0055885D01*
X0053898Y0055939D01*
X0053674Y0055988D01*
X0053449Y0056031D01*
X0053223Y0056068D01*
X0052996Y0056100D01*
X0052768Y0056127D01*
X0052540Y0056148D01*
X0052311Y0056163D01*
X0052082Y0056173D01*
X0051853Y0056177D01*
X0051624Y0056175D01*
X0051395Y0056168D01*
X0051166Y0056156D01*
X0050938Y0056137D01*
X0050710Y0056113D01*
X0050483Y0056084D01*
X0050256Y0056049D01*
X0050031Y0056009D01*
X0049806Y0055963D01*
X0049583Y0055911D01*
X0049361Y0055854D01*
X0049140Y0055792D01*
X0048921Y0055724D01*
X0048704Y0055651D01*
X0048489Y0055573D01*
X0048275Y0055489D01*
X0048064Y0055401D01*
X0047855Y0055307D01*
X0047648Y0055208D01*
X0047444Y0055104D01*
X0047242Y0054995D01*
X0047043Y0054881D01*
X0046847Y0054762D01*
X0046654Y0054639D01*
X0046464Y0054511D01*
X0046277Y0054378D01*
X0046094Y0054241D01*
X0045914Y0054099D01*
X0045737Y0053953D01*
X0045564Y0053803D01*
X0045395Y0053649D01*
X0045229Y0053490D01*
X0045068Y0053328D01*
X0044910Y0053161D01*
X0044951Y0053123D01*
X0045108Y0053289D01*
X0045269Y0053450D01*
X0045433Y0053608D01*
X0045601Y0053761D01*
X0045773Y0053911D01*
X0045949Y0054056D01*
X0046128Y0054197D01*
X0046310Y0054333D01*
X0046496Y0054465D01*
X0046685Y0054592D01*
X0046877Y0054715D01*
X0047072Y0054833D01*
X0047270Y0054946D01*
X0047470Y0055054D01*
X0047673Y0055158D01*
X0047878Y0055256D01*
X0048086Y0055349D01*
X0048296Y0055438D01*
X0048508Y0055521D01*
X0048723Y0055598D01*
X0048938Y0055671D01*
X0049156Y0055738D01*
X0049375Y0055800D01*
X0049596Y0055857D01*
X0049818Y0055908D01*
X0050041Y0055954D01*
X0050265Y0055994D01*
X0050491Y0056029D01*
X0050716Y0056058D01*
X0050943Y0056082D01*
X0051170Y0056100D01*
X0051398Y0056112D01*
X0051625Y0056119D01*
X0051853Y0056121D01*
X0052081Y0056117D01*
X0052308Y0056107D01*
X0052536Y0056092D01*
X0052763Y0056071D01*
X0052989Y0056045D01*
X0053214Y0056013D01*
X0053439Y0055976D01*
X0053663Y0055933D01*
X0053885Y0055885D01*
X0054107Y0055831D01*
X0054327Y0055772D01*
X0054545Y0055708D01*
X0054762Y0055638D01*
X0054977Y0055563D01*
X0055191Y0055483D01*
X0055402Y0055397D01*
X0055611Y0055307D01*
X0055817Y0055211D01*
X0056022Y0055110D01*
X0056224Y0055005D01*
X0056423Y0054894D01*
X0056619Y0054779D01*
X0056813Y0054659D01*
X0057003Y0054534D01*
X0057191Y0054404D01*
X0057375Y0054270D01*
X0057556Y0054132D01*
X0057733Y0053989D01*
X0057907Y0053842D01*
X0058078Y0053690D01*
X0058244Y0053535D01*
X0058407Y0053376D01*
X0058565Y0053212D01*
X0058720Y0053045D01*
X0058871Y0052874D01*
X0059017Y0052699D01*
X0059159Y0052521D01*
X0059297Y0052340D01*
X0059430Y0052155D01*
X0059558Y0051967D01*
X0059682Y0051776D01*
X0059802Y0051582D01*
X0059916Y0051385D01*
X0060026Y0051185D01*
X0060130Y0050983D01*
X0060230Y0050778D01*
X0060325Y0050571D01*
X0060274Y0050548D01*
X0060179Y0050754D01*
X0060080Y0050958D01*
X0059976Y0051159D01*
X0059867Y0051357D01*
X0059753Y0051553D01*
X0059635Y0051746D01*
X0059512Y0051936D01*
X0059384Y0052123D01*
X0059252Y0052307D01*
X0059115Y0052487D01*
X0058974Y0052664D01*
X0058828Y0052838D01*
X0058678Y0053007D01*
X0058525Y0053174D01*
X0058367Y0053336D01*
X0058205Y0053495D01*
X0058040Y0053649D01*
X0057870Y0053800D01*
X0057698Y0053946D01*
X0057521Y0054088D01*
X0057341Y0054225D01*
X0057158Y0054359D01*
X0056972Y0054487D01*
X0056783Y0054611D01*
X0056590Y0054731D01*
X0056395Y0054845D01*
X0056197Y0054955D01*
X0055996Y0055060D01*
X0055793Y0055160D01*
X0055588Y0055255D01*
X0055380Y0055345D01*
X0055170Y0055430D01*
X0054958Y0055510D01*
X0054744Y0055585D01*
X0054529Y0055654D01*
X0054312Y0055718D01*
X0054093Y0055777D01*
X0053873Y0055830D01*
X0053652Y0055878D01*
X0053429Y0055921D01*
X0053206Y0055958D01*
X0052982Y0055989D01*
X0052757Y0056015D01*
X0052531Y0056036D01*
X0052305Y0056051D01*
X0052079Y0056061D01*
X0051853Y0056065D01*
X0051626Y0056063D01*
X0051400Y0056056D01*
X0051174Y0056044D01*
X0050948Y0056026D01*
X0050723Y0056002D01*
X0050498Y0055973D01*
X0050275Y0055939D01*
X0050052Y0055899D01*
X0049830Y0055853D01*
X0049609Y0055802D01*
X0049390Y0055746D01*
X0049172Y0055685D01*
X0048956Y0055618D01*
X0048741Y0055546D01*
X0048528Y0055468D01*
X0048317Y0055386D01*
X0048109Y0055298D01*
X0047902Y0055205D01*
X0047698Y0055108D01*
X0047496Y0055005D01*
X0047297Y0054897D01*
X0047100Y0054785D01*
X0046907Y0054668D01*
X0046716Y0054546D01*
X0046528Y0054419D01*
X0046343Y0054288D01*
X0046162Y0054152D01*
X0045984Y0054012D01*
X0045810Y0053868D01*
X0045639Y0053720D01*
X0045471Y0053567D01*
X0045308Y0053410D01*
X0045148Y0053250D01*
X0044993Y0053085D01*
D16*
X0051800Y0053800D02*
X0051800Y0056800D01*
X0051800Y0046800D02*
X0052800Y0046800D01*
X0051800Y0039800D02*
X0051800Y0036800D01*
D17*
X0177300Y0039300D03*
D18*
X0180550Y0039300D03*
X0163050Y0039300D03*
D19*
X0186240Y0077050D02*
X0187641Y0077050D01*
X0186941Y0077050D02*
X0186941Y0079152D01*
X0186240Y0078451D01*
X0136641Y0078451D02*
X0136291Y0078101D01*
X0136641Y0077751D01*
X0136641Y0077400D01*
X0136291Y0077050D01*
X0135590Y0077050D01*
X0135240Y0077400D01*
X0135941Y0078101D02*
X0136291Y0078101D01*
X0136641Y0078451D02*
X0136641Y0078801D01*
X0136291Y0079152D01*
X0135590Y0079152D01*
X0135240Y0078801D01*
X0127501Y0121950D02*
X0126800Y0121950D01*
X0126450Y0122300D01*
X0127151Y0123001D02*
X0127501Y0123001D01*
X0127851Y0122651D01*
X0127851Y0122300D01*
X0127501Y0121950D01*
X0127501Y0123001D02*
X0127851Y0123351D01*
X0127851Y0123701D01*
X0127501Y0124052D01*
X0126800Y0124052D01*
X0126450Y0123701D01*
X0076851Y0121950D02*
X0075450Y0121950D01*
X0076151Y0121950D02*
X0076151Y0124052D01*
X0075450Y0123351D01*
X0066941Y0079152D02*
X0066941Y0077050D01*
X0067641Y0077050D02*
X0066240Y0077050D01*
X0066240Y0078451D02*
X0066941Y0079152D01*
X0016641Y0078801D02*
X0016641Y0078451D01*
X0016291Y0078101D01*
X0016641Y0077751D01*
X0016641Y0077400D01*
X0016291Y0077050D01*
X0015590Y0077050D01*
X0015240Y0077400D01*
X0015941Y0078101D02*
X0016291Y0078101D01*
X0016641Y0078801D02*
X0016291Y0079152D01*
X0015590Y0079152D01*
X0015240Y0078801D01*
M02*
