G75*
%MOIN*%
%OFA0B0*%
%FSLAX25Y25*%
%IPPOS*%
%LPD*%
%AMOC8*
5,1,8,0,0,1.08239X$1,22.5*
%
%ADD10C,0.00000*%
%ADD11C,0.07874*%
%ADD12R,0.07874X0.07874*%
%ADD13C,0.10000*%
%ADD14C,0.01600*%
%ADD15R,0.03762X0.03762*%
D10*
X0001800Y0001800D02*
X0001800Y0166761D01*
X0200501Y0166761D01*
X0200501Y0001800D01*
X0001800Y0001800D01*
D11*
X0016800Y0011800D03*
X0026800Y0011800D03*
X0036800Y0016800D03*
X0036800Y0036800D03*
X0026800Y0041800D03*
X0016800Y0041800D03*
X0016800Y0051800D03*
X0036800Y0051800D03*
X0051800Y0046800D03*
X0051800Y0036800D03*
X0066800Y0026800D03*
X0076800Y0026800D03*
X0086800Y0036800D03*
X0106800Y0026800D03*
X0116800Y0026800D03*
X0116800Y0036800D03*
X0126800Y0046800D03*
X0111800Y0056800D03*
X0086800Y0066800D03*
X0091800Y0081800D03*
X0106800Y0091800D03*
X0126800Y0086800D03*
X0136800Y0101800D03*
X0156800Y0111800D03*
X0156800Y0121800D03*
X0166800Y0121800D03*
X0176800Y0121800D03*
X0186800Y0121800D03*
X0186800Y0111800D03*
X0176800Y0091800D03*
X0156800Y0086800D03*
X0156800Y0051800D03*
X0146800Y0046800D03*
X0156800Y0039300D03*
X0146800Y0036800D03*
X0146800Y0026800D03*
X0156800Y0026800D03*
X0186800Y0026800D03*
X0186800Y0051800D03*
X0106800Y0111800D03*
X0086800Y0111800D03*
X0086800Y0096800D03*
X0066800Y0096800D03*
X0066800Y0111800D03*
X0066800Y0126800D03*
X0046800Y0131800D03*
X0046800Y0116800D03*
X0046800Y0101800D03*
X0041800Y0086800D03*
X0021800Y0086800D03*
X0016800Y0101800D03*
X0016800Y0116800D03*
X0016800Y0131800D03*
X0016800Y0151800D03*
X0036800Y0151800D03*
X0066800Y0156800D03*
X0101800Y0159800D03*
X0101800Y0149800D03*
X0131800Y0146800D03*
X0136800Y0131800D03*
X0156800Y0151800D03*
X0166800Y0151800D03*
X0176800Y0151800D03*
X0061800Y0081800D03*
X0066800Y0056800D03*
X0051800Y0056800D03*
X0096800Y0011800D03*
D12*
X0106800Y0011800D03*
X0121800Y0011800D03*
X0076800Y0011800D03*
X0051800Y0011800D03*
X0101800Y0056800D03*
X0106800Y0081800D03*
X0116800Y0111800D03*
X0131800Y0156800D03*
X0186800Y0151800D03*
X0186800Y0091800D03*
X0186800Y0039300D03*
X0186800Y0011800D03*
X0171800Y0011800D03*
D13*
X0161800Y0069300D03*
X0141800Y0069300D03*
X0181800Y0069300D03*
X0121800Y0131800D03*
X0101800Y0131800D03*
X0081800Y0131800D03*
X0061800Y0069300D03*
X0041800Y0069300D03*
X0021800Y0069300D03*
D14*
X0008800Y0059800D02*
X0008800Y0123800D01*
X0016800Y0131800D01*
X0036800Y0131800D01*
X0061800Y0156800D01*
X0066800Y0156800D01*
X0098800Y0156800D01*
X0101800Y0159800D01*
X0101800Y0149800D02*
X0077800Y0149800D01*
X0059800Y0131800D01*
X0046800Y0131800D01*
X0046800Y0116800D02*
X0036800Y0116800D01*
X0031800Y0111800D01*
X0031800Y0056800D01*
X0036800Y0051800D01*
X0043800Y0048800D02*
X0043800Y0027800D01*
X0049800Y0021800D01*
X0056800Y0021800D01*
X0061800Y0016800D01*
X0061800Y0011800D01*
X0068800Y0004800D01*
X0182800Y0004800D01*
X0186800Y0008800D01*
X0186800Y0011800D01*
X0194800Y0019800D01*
X0194800Y0032800D01*
X0188300Y0039300D01*
X0186800Y0039300D01*
X0186800Y0051800D01*
X0186800Y0053800D01*
X0194800Y0061800D01*
X0194800Y0083800D01*
X0186800Y0091800D01*
X0176800Y0091800D02*
X0176800Y0096800D01*
X0181800Y0101800D01*
X0191800Y0101800D01*
X0196800Y0106800D01*
X0196800Y0154800D01*
X0191800Y0159800D01*
X0159800Y0159800D01*
X0156800Y0156800D01*
X0156800Y0151800D01*
X0156800Y0131800D02*
X0176800Y0151800D01*
X0156800Y0131800D02*
X0136800Y0131800D01*
X0131800Y0126800D01*
X0131800Y0116800D01*
X0119800Y0104800D01*
X0119800Y0080800D01*
X0113800Y0074800D01*
X0098800Y0074800D01*
X0091800Y0081800D01*
X0106800Y0081800D02*
X0108800Y0081800D01*
X0113800Y0086800D01*
X0113800Y0099800D01*
X0106800Y0106800D01*
X0106800Y0111800D01*
X0101800Y0116800D01*
X0101800Y0131800D01*
X0156800Y0121800D02*
X0169800Y0106800D01*
X0169800Y0061800D01*
X0161800Y0051800D01*
X0156800Y0051800D01*
X0153800Y0054800D01*
X0137800Y0054800D01*
X0133800Y0050800D01*
X0133800Y0040800D01*
X0129800Y0036800D01*
X0116800Y0036800D01*
X0109300Y0034300D02*
X0116800Y0026800D01*
X0109300Y0034300D02*
X0099300Y0034300D01*
X0094300Y0029300D01*
X0084300Y0029300D01*
X0074300Y0036800D01*
X0051800Y0036800D01*
X0043800Y0048800D02*
X0051800Y0056800D01*
X0066800Y0056800D01*
X0086800Y0036800D02*
X0096800Y0046800D01*
X0126800Y0046800D01*
X0146800Y0046800D02*
X0152800Y0046800D01*
X0153800Y0045800D01*
X0165800Y0045800D01*
X0181800Y0061800D01*
X0181800Y0069300D01*
X0166800Y0074300D02*
X0166800Y0091800D01*
X0156800Y0101800D01*
X0166800Y0074300D02*
X0161800Y0069300D01*
X0164800Y0018800D02*
X0103800Y0018800D01*
X0095800Y0026800D01*
X0076800Y0026800D01*
X0016800Y0051800D02*
X0008800Y0059800D01*
X0164800Y0018800D02*
X0171800Y0011800D01*
D15*
X0156800Y0101800D03*
M02*
