G75*
%MOIN*%
%OFA0B0*%
%FSLAX25Y25*%
%IPPOS*%
%LPD*%
%AMOC8*
5,1,8,0,0,1.08239X$1,22.5*
%
%ADD10C,0.00000*%
%ADD11C,0.08474*%
%ADD12R,0.08474X0.08474*%
%ADD13C,0.10600*%
%ADD14R,0.04362X0.04362*%
D10*
X0001800Y0001800D02*
X0001800Y0166761D01*
X0200501Y0166761D01*
X0200501Y0001800D01*
X0001800Y0001800D01*
D11*
X0016800Y0011800D03*
X0026800Y0011800D03*
X0036800Y0016800D03*
X0036800Y0036800D03*
X0026800Y0041800D03*
X0016800Y0041800D03*
X0016800Y0051800D03*
X0036800Y0051800D03*
X0051800Y0046800D03*
X0051800Y0036800D03*
X0066800Y0026800D03*
X0076800Y0026800D03*
X0086800Y0036800D03*
X0106800Y0026800D03*
X0116800Y0026800D03*
X0116800Y0036800D03*
X0126800Y0046800D03*
X0111800Y0056800D03*
X0086800Y0066800D03*
X0091800Y0081800D03*
X0106800Y0091800D03*
X0126800Y0086800D03*
X0136800Y0101800D03*
X0156800Y0111800D03*
X0156800Y0121800D03*
X0166800Y0121800D03*
X0176800Y0121800D03*
X0186800Y0121800D03*
X0186800Y0111800D03*
X0176800Y0091800D03*
X0156800Y0086800D03*
X0156800Y0051800D03*
X0146800Y0046800D03*
X0156800Y0039300D03*
X0146800Y0036800D03*
X0146800Y0026800D03*
X0156800Y0026800D03*
X0186800Y0026800D03*
X0186800Y0051800D03*
X0106800Y0111800D03*
X0086800Y0111800D03*
X0086800Y0096800D03*
X0066800Y0096800D03*
X0066800Y0111800D03*
X0066800Y0126800D03*
X0046800Y0131800D03*
X0046800Y0116800D03*
X0046800Y0101800D03*
X0041800Y0086800D03*
X0021800Y0086800D03*
X0016800Y0101800D03*
X0016800Y0116800D03*
X0016800Y0131800D03*
X0016800Y0151800D03*
X0036800Y0151800D03*
X0066800Y0156800D03*
X0101800Y0159800D03*
X0101800Y0149800D03*
X0131800Y0146800D03*
X0136800Y0131800D03*
X0156800Y0151800D03*
X0166800Y0151800D03*
X0176800Y0151800D03*
X0061800Y0081800D03*
X0066800Y0056800D03*
X0051800Y0056800D03*
X0096800Y0011800D03*
D12*
X0106800Y0011800D03*
X0121800Y0011800D03*
X0076800Y0011800D03*
X0051800Y0011800D03*
X0101800Y0056800D03*
X0106800Y0081800D03*
X0116800Y0111800D03*
X0131800Y0156800D03*
X0186800Y0151800D03*
X0186800Y0091800D03*
X0186800Y0039300D03*
X0186800Y0011800D03*
X0171800Y0011800D03*
D13*
X0161800Y0069300D03*
X0141800Y0069300D03*
X0181800Y0069300D03*
X0121800Y0131800D03*
X0101800Y0131800D03*
X0081800Y0131800D03*
X0061800Y0069300D03*
X0041800Y0069300D03*
X0021800Y0069300D03*
D14*
X0156800Y0101800D03*
M02*
